<svg width="120" height="81" fill="none" xmlns="http://www.w3.org/2000/svg"><path fill-rule="evenodd" clip-rule="evenodd" d="M3.63 58.98c0 1.01.196 1.962.59 2.861a7.588 7.588 0 001.584 2.34c.66.662 1.44 1.19 2.338 1.584.898.395 1.852.59 2.86.59 1.009 0 1.962-.18 2.861-.543a7.196 7.196 0 002.363-1.536 7.094 7.094 0 001.583-2.34c.378-.9.568-1.883.568-2.955a7.052 7.052 0 00-.592-2.86 7.58 7.58 0 00-1.583-2.34 7.606 7.606 0 00-2.339-1.583 7.05 7.05 0 00-2.86-.59 7.042 7.042 0 00-2.86.59 7.58 7.58 0 00-2.34 1.583 7.566 7.566 0 00-1.583 2.34 7.04 7.04 0 00-.59 2.86zM0 58.923c0-1.517.29-2.935.872-4.254a10.827 10.827 0 012.368-3.435 11.422 11.422 0 013.504-2.316c1.336-.572 2.775-.859 4.312-.859 1.54 0 2.977.287 4.314.86a11.175 11.175 0 013.483 2.315 11.01 11.01 0 012.348 3.435c.58 1.319.871 2.737.871 4.254V69.47h-3.695v-2.363c-1.579 1.47-3.695 2.679-7.321 2.679-1.675 0-3.192-.278-4.556-.838-1.364-.56-2.525-1.331-3.483-2.318A10.449 10.449 0 01.79 63.175C.263 61.86 0 60.44 0 58.922zm47.941.093a7.17 7.17 0 00.587 2.88 7.547 7.547 0 001.578 2.357 7.508 7.508 0 002.328 1.596 6.925 6.925 0 002.848.594 6.916 6.916 0 002.846-.594 7.504 7.504 0 002.328-1.596 7.61 7.61 0 001.579-2.357 7.19 7.19 0 00.587-2.88 7.2 7.2 0 00-.587-2.883 7.656 7.656 0 00-1.579-2.356 7.513 7.513 0 00-2.328-1.595 6.917 6.917 0 00-2.846-.595 6.926 6.926 0 00-2.848.595 7.517 7.517 0 00-2.328 1.595 7.591 7.591 0 00-1.578 2.356 7.168 7.168 0 00-.587 2.883zm-3.643 0c0-1.53.29-2.96.866-4.288a10.936 10.936 0 012.362-3.463 11.377 11.377 0 013.49-2.334c1.33-.577 2.762-.866 4.295-.866 1.534 0 2.966.29 4.297.866a11.149 11.149 0 013.468 2.334c.983.98 1.762 2.134 2.341 3.463.577 1.328.867 2.757.867 4.288 0 1.53-.29 2.958-.867 4.288a11.085 11.085 0 01-2.34 3.46c-.983.98-2.139 1.76-3.47 2.335-1.33.577-2.762.866-4.296.866-1.533 0-2.966-.289-4.296-.866a11.313 11.313 0 01-3.489-2.335 10.933 10.933 0 01-2.362-3.46c-.576-1.33-.866-2.759-.866-4.288zm23.608-10.247h3.418v1.769c.536-.52 1.444-1.303 2.552-1.763.942-.387 1.859-.555 3.192-.555v3.546c-2.234 0-4.332.984-5.108 3.154-.407 1.14-.234 2.26-.234 3.435V69.46h-3.82V48.769zm28.619 13.322a7.58 7.58 0 01-1.578 2.358 7.538 7.538 0 01-2.327 1.596 6.946 6.946 0 01-2.848.595 6.934 6.934 0 01-2.847-.595 7.535 7.535 0 01-2.329-1.596 7.586 7.586 0 01-1.577-2.358 7.151 7.151 0 01-.588-2.88c0-1.015.196-1.975.588-2.882a7.632 7.632 0 011.577-2.357 7.536 7.536 0 012.33-1.594 6.928 6.928 0 012.846-.595 6.94 6.94 0 012.848.595 7.54 7.54 0 012.327 1.594 7.626 7.626 0 011.578 2.357c.393.907.588 1.867.588 2.882a7.147 7.147 0 01-.588 2.88zm4.093-4.694V43.494h-3.494v7.566a11.231 11.231 0 00-3.025-1.934c-1.332-.577-2.764-.864-4.297-.864s-2.966.287-4.296.864a11.388 11.388 0 00-3.49 2.335 10.911 10.911 0 00-2.36 3.462c-.58 1.329-.868 2.758-.868 4.288 0 1.53.289 2.959.868 4.287a10.897 10.897 0 002.36 3.462c.995.98 2.158 1.76 3.49 2.336 1.33.577 2.763.864 4.296.864 1.533 0 2.965-.287 4.297-.864a11.097 11.097 0 003.468-2.336 11.074 11.074 0 002.34-3.462c.578-1.328.868-2.757.868-4.287 0-.623-.062-1.224-.157-1.814zM32.689 41.621v3.17s-2.352-.067-3.428.652c-1.075.72-1.611 1.765-1.611 3.072v.132h5.039v3.266H27.65v17.416h-3.596V48.907c0-1.405.235-4.313 2.923-6.077 2.117-1.34 4.469-1.274 5.712-1.209zm10.146 0v3.17s-2.352-.067-3.428.652c-1.074.72-1.612 1.765-1.612 3.072v.132h5.04v3.266h-5.04v17.416H34.2V48.907c0-1.405.235-4.313 2.922-6.077 2.118-1.34 4.47-1.274 5.713-1.209z" fill="#296BA7"/><path fill-rule="evenodd" clip-rule="evenodd" d="M85.13 35.515l.855-1.863.605.325.085.021.118.154s.017.056.017.073l.005.134-.019.031-1.666 1.125z" fill="#DB3F81"/><path fill-rule="evenodd" clip-rule="evenodd" d="M93.778 28.74l1.387 1.15-2.06.248.673-1.397z" fill="#C62453"/><path fill-rule="evenodd" clip-rule="evenodd" d="M92.077 32.873l1.701-4.132-2.703 1.423 1.002 2.709zm-4.64 2.37l-1.452-1.59 2.389-.112-.112.375-.825 1.327zm.306-8.261l1.492 4.505 1.218-3.196-2.71-1.31z" fill="#C62453"/><path fill-rule="evenodd" clip-rule="evenodd" d="M87.437 35.243l4.64-2.37-1.624-4.582-3.016 6.952z" fill="#DB3F81"/><path fill-rule="evenodd" clip-rule="evenodd" d="M77.274 25.964l.114-.615.257.105.035.006.056.058.008.027.008.055-.006.012-.472.352zm3.046-2.906l.61.409-.822.182.212-.59z" fill="#296BA7"/><path fill-rule="evenodd" clip-rule="evenodd" d="M79.812 24.793l.508-1.734-1.029.68.521 1.054zm-1.769 1.137l-.655-.581.958-.141-.03.156-.273.567zm.068-2.902l.494 1.32.353-1.34-.847.02z" fill="#223F6F"/><path fill-rule="evenodd" clip-rule="evenodd" d="M78.043 25.93l1.77-1.137-.855-1.786-.915 2.924z" fill="#296BA7"/><path fill-rule="evenodd" clip-rule="evenodd" d="M92.79 28.151l1.246-2.129.633.341.089.022.124.16s.018.058.018.077l.005.14-.02.032-2.095 1.357zm9.398-7.265l1.449 1.201-2.157.26.708-1.46z" fill="#DB3F81"/><path fill-rule="evenodd" clip-rule="evenodd" d="M100.407 25.207l1.781-4.32-2.828 1.487 1.047 2.833zm-4.852 2.478l-1.519-1.663 2.5-.115-.12.392-.861 1.386zm1.045-8.759l1.248 3.902.894-3.031-2.142-.87z" fill="#C62453"/><path fill-rule="evenodd" clip-rule="evenodd" d="M95.555 27.685l4.852-2.478-1.666-5.41-3.186 7.888z" fill="#DB3F81"/><path fill-rule="evenodd" clip-rule="evenodd" d="M55.96 33.664l.343 1.64.75-.388-1.093-1.252zm2.494.812l.108.526-.333-.21.225-.316z" fill="#DF5531"/><path fill-rule="evenodd" clip-rule="evenodd" d="M58.003 34.393l-2.12 1.13.497.456.009.001 1.251.234.814-1.738-.451-.083z" fill="#E98B32"/><path fill-rule="evenodd" clip-rule="evenodd" d="M57.422 34.703l-1.162-1.438.129 2.715 1.032-1.277z" fill="#EFAA36"/><path fill-rule="evenodd" clip-rule="evenodd" d="M56.389 35.98l-1.027 1.5.52-1.956" fill="#E98B32"/><path fill-rule="evenodd" clip-rule="evenodd" d="M62.532 29.634l.429 2.055.938-.486-1.367-1.57zm3.122 1.016l.136.661-.418-.263.282-.398z" fill="#DF5531"/><path fill-rule="evenodd" clip-rule="evenodd" d="M65.089 30.548l-2.655 1.415.622.57.011.002 1.567.294 1.02-2.179-.565-.102z" fill="#E98B32"/><path fill-rule="evenodd" clip-rule="evenodd" d="M64.362 30.937l-1.457-1.8.162 3.398 1.295-1.598z" fill="#EFAA36"/><path fill-rule="evenodd" clip-rule="evenodd" d="M63.067 32.535l-1.284 1.879.651-2.45" fill="#E98B32"/><path fill-rule="evenodd" clip-rule="evenodd" d="M78.924 43.735l-.228 1.079.555-.054-.327-1.025zm1.294 1.096l-.075.347-.146-.208.22-.139z" fill="#DF5531"/><path fill-rule="evenodd" clip-rule="evenodd" d="M79.966 44.673l-1.585.172.18.397.006.002.694.445.957-.858-.252-.158z" fill="#E98B32"/><path fill-rule="evenodd" clip-rule="evenodd" d="M79.532 44.72l-.321-1.155-.644 1.68.965-.525z" fill="#EFAA36"/><path fill-rule="evenodd" clip-rule="evenodd" d="M78.567 45.244l-1.02.661.834-1.06" fill="#E98B32"/><path fill-rule="evenodd" clip-rule="evenodd" d="M73.687 25.103l.357 1.706.778-.405-1.135-1.301zm2.593.843l.111.549-.346-.217.235-.332z" fill="#DF5531"/><path fill-rule="evenodd" clip-rule="evenodd" d="M75.81 25.86l-2.205 1.177.517.474.007.001 1.302.243.849-1.81-.47-.084z" fill="#E98B32"/><path fill-rule="evenodd" clip-rule="evenodd" d="M75.206 26.184l-1.208-1.495.131 2.823 1.077-1.328z" fill="#EFAA36"/><path fill-rule="evenodd" clip-rule="evenodd" d="M74.13 27.512l-1.066 1.56.541-2.035" fill="#E98B32"/><path fill-rule="evenodd" clip-rule="evenodd" d="M77.647 33.313l.887 4.248 1.937-1.006-2.824-3.242zm6.455 2.104l.277 1.364-.861-.544.584-.82z" fill="#DF5531"/><path fill-rule="evenodd" clip-rule="evenodd" d="M82.931 35.203l-5.49 2.927 1.29 1.177.022.005 3.238.605 2.111-4.5-1.17-.214z" fill="#E98B32"/><path fill-rule="evenodd" clip-rule="evenodd" d="M81.427 36.007l-3.008-3.724.334 7.029 2.674-3.305z" fill="#EFAA36"/><path fill-rule="evenodd" clip-rule="evenodd" d="M78.753 39.312l-2.656 3.884 1.345-5.066" fill="#E98B32"/><path fill-rule="evenodd" clip-rule="evenodd" d="M88.726 20.686l.847 4.048 1.846-.96-2.693-3.088zm6.154 2.004l.266 1.3-.821-.52.555-.78z" fill="#DF5531"/><path fill-rule="evenodd" clip-rule="evenodd" d="M93.764 22.484l-5.232 2.79 1.228 1.123.022.004 3.088.576 2.01-4.288-1.116-.205z" fill="#E98B32"/><path fill-rule="evenodd" clip-rule="evenodd" d="M92.33 23.253l-2.865-3.55.317 6.698 2.548-3.148z" fill="#EFAA36"/><path fill-rule="evenodd" clip-rule="evenodd" d="M89.782 26.401l-2.53 3.703 1.28-4.83" fill="#E98B32"/><path fill-rule="evenodd" clip-rule="evenodd" d="M66.915 31.018l-1.292 1.03 1.069.09.486-1.122-.263.002zm3.741-2.468l-.894-.277.506-.6.36.852" fill="#81B741"/><path fill-rule="evenodd" clip-rule="evenodd" d="M66.692 32.139l1.602-1.36-1.248-.528-.354 1.888zm2.84-2.923l.736-1.543-1.16.523.005.842.42.178z" fill="#198B44"/><path fill-rule="evenodd" clip-rule="evenodd" d="M70.972 32.4l-3.926-2.149 2.076-2.076 1.85 4.225zm18.164 3.867l-1.459.898 1.08.221.65-1.088-.27-.03zm4.154-2.065l-.877-.392.6-.551.25.913" fill="#81B741"/><path fill-rule="evenodd" clip-rule="evenodd" d="M88.757 37.386l1.82-1.194-1.204-.69-.616 1.884zm3.294-2.64l.96-1.487-1.255.391-.107.861.402.235z" fill="#198B44"/><path fill-rule="evenodd" clip-rule="evenodd" d="M93.093 38.178l-3.72-2.676 2.4-1.87 1.32 4.546zm2.842-6.957l-2.467 1.976 2.046.094.926-2.09-.505.02zm7.145-4.774L101.368 26l.963-1.136.692 1.538" fill="#81B741"/><path fill-rule="evenodd" clip-rule="evenodd" d="M95.514 33.29l3.056-2.597-2.392-.887-.664 3.485z" fill="#4CAE48"/><path fill-rule="evenodd" clip-rule="evenodd" d="M100.931 27.744l1.4-2.88-2.216 1.034.018 1.545.798.3z" fill="#198B44"/><path fill-rule="evenodd" clip-rule="evenodd" d="M103.71 33.494l-7.532-3.688 3.964-3.946 3.568 7.634z" fill="#91C140"/><path fill-rule="evenodd" clip-rule="evenodd" d="M77.886 43.157l-1.655.82 1.141.298.8-1.07-.286-.048zm4.663-1.841l-.907-.458.694-.526.187.953" fill="#81B741"/><path fill-rule="evenodd" clip-rule="evenodd" d="M77.372 44.275l2.07-1.101-1.235-.787-.835 1.888z" fill="#4CAE48"/><path fill-rule="evenodd" clip-rule="evenodd" d="M81.165 41.791l1.171-1.46-1.388.32-.194.874.411.266z" fill="#198B44"/><path fill-rule="evenodd" clip-rule="evenodd" d="M81.975 45.376l-3.768-2.989 2.761-1.755 1.007 4.744z" fill="#91C140"/><path fill-rule="evenodd" clip-rule="evenodd" d="M55.362 32.664l-.852.623.677.088.342-.704-.167-.007zm2.453-1.474l-.562-.202.338-.37.204.556" fill="#1F9C8E"/><path fill-rule="evenodd" clip-rule="evenodd" d="M55.187 33.375l1.06-.824-.781-.374-.279 1.198zm1.893-1.789l.51-.968-.754.3-.019.54.262.128z" fill="#5FBDB5"/><path fill-rule="evenodd" clip-rule="evenodd" d="M57.909 33.673l-2.443-1.496 1.38-1.27 1.063 2.766zm23.265.325l-.909.663.726.094.363-.752-.18-.005zm2.616-1.572l-.599-.218.36-.395.22.595" fill="#1F9C8E"/><path fill-rule="evenodd" clip-rule="evenodd" d="M80.99 34.755l1.127-.878-.832-.4-.294 1.278zm2.015-1.908l.546-1.034-.802.322-.022.576.278.136z" fill="#5FBDB5"/><path fill-rule="evenodd" clip-rule="evenodd" d="M83.892 35.073l-2.607-1.596 1.473-1.355 1.135 2.95zM71.991 45.291l-.658.417.494.096.287-.5-.123-.013zm1.877-.963l-.402-.176.269-.257.121.419" fill="#1F9C8E"/><path fill-rule="evenodd" clip-rule="evenodd" d="M71.827 45.804l.818-.553-.552-.313-.266.866zm1.48-1.222l.427-.686-.568.185-.044.396.185.105z" fill="#5FBDB5"/><path fill-rule="evenodd" clip-rule="evenodd" d="M73.807 46.154l-1.714-1.216 1.082-.867.632 2.083z" fill="#1F9C8E"/><path fill-rule="evenodd" clip-rule="evenodd" d="M104.662 29.607l-1.246-3.398 2.775-4.573-1.529 7.97z" fill="#4CAE48"/><path fill-rule="evenodd" clip-rule="evenodd" d="M107.511 27.573l-2.98 2.71 1.66-8.648 1.32 5.938z" fill="#198B44"/><path fill-rule="evenodd" clip-rule="evenodd" d="M105.64 30.81l-1.215 3.996-.633-3.855 1.848-.142z" fill="#91C140"/><path fill-rule="evenodd" clip-rule="evenodd" d="M104.131 22.135l-3.346-2.949 2.998 6.416.348-3.467zm1.532 8.594l-.468 1.557 2.967-1.666-2.499.108z" fill="#198B44"/><path fill-rule="evenodd" clip-rule="evenodd" d="M108.162 30.62l-4.37.331 3.734-3.399.636 3.068z" fill="#6FB444"/><path fill-rule="evenodd" clip-rule="evenodd" d="M109.319 25.226l1.485 1.234-1.264.093-.221-1.327zm-2.042 1.279l2.386.774-1.501 3.341-.885-4.115z" fill="#198B44"/><path fill-rule="evenodd" clip-rule="evenodd" d="M107.275 26.505l2.046-1.28.342 2.054-2.388-.774zm-2.694-8.915l-.798 8.012 2.408-3.966-1.61-4.046z" fill="#83BE43"/><path fill-rule="evenodd" clip-rule="evenodd" d="M77.005 31.356l-.208-1.973 2.103-2.104-1.895 4.077z" fill="#4CAE48"/><path fill-rule="evenodd" clip-rule="evenodd" d="M78.801 30.619L76.843 31.7l2.057-4.42-.099 3.34z" fill="#198B44"/><path fill-rule="evenodd" clip-rule="evenodd" d="M76.356 31.969l-.891 1.866.592 1.654.3-3.52z" fill="#83BE43"/><path fill-rule="evenodd" clip-rule="evenodd" d="M77.364 32.122l-1.19 1.988.182-2.141 1.008.153z" fill="#4CAE48"/><path fill-rule="evenodd" clip-rule="evenodd" d="M77.734 27.292l-1.39-1.992.733 3.804.657-1.812zm-.347 4.788l-.462.776 1.812-.525-1.35-.25z" fill="#198B44"/><path fill-rule="evenodd" clip-rule="evenodd" d="M78.738 32.331l-2.382-.362 2.456-1.36-.074 1.722z" fill="#83BE43"/><path fill-rule="evenodd" clip-rule="evenodd" d="M80.087 29.586l.626.844-.687-.107.06-.737zm-1.265.432l1.17.71-1.255 1.604.085-2.314z" fill="#198B44"/><path fill-rule="evenodd" clip-rule="evenodd" d="M78.822 30.018l1.267-.432-.096 1.142-1.17-.71zm-.232-5.104l-1.513 4.19L78.9 27.28l-.31-2.365z" fill="#83BE43"/><path fill-rule="evenodd" clip-rule="evenodd" d="M65.992 35.564l.2-.415-.584.262.384.153z" fill="#9E9F9E"/><path fill-rule="evenodd" clip-rule="evenodd" d="M64.256 36.274l1.737-.71-2.745-1.107 1.008 1.817zm-3.148.029l-.046.416.44-.421-.394.005z" fill="#4D4E4C"/><path fill-rule="evenodd" clip-rule="evenodd" d="M63.265 34.485l.584-.313-.862-.253.278.566z" fill="#4D4E4C"/><path fill-rule="evenodd" clip-rule="evenodd" d="M61.75 36.308l-.642-.006.73-.658-.088.664z" fill="#9E9F9E"/><path fill-rule="evenodd" clip-rule="evenodd" d="M61.86 35.21l-.112 1.098 1.15-1.127-1.038.029z" fill="#4D4E4C"/><path fill-rule="evenodd" clip-rule="evenodd" d="M62.986 33.919l-1.127 1.29 2.397 1.067-1.27-2.358zm-13.822.384l.14-.193-.322.085.182.108z" fill="#9E9F9E"/><path fill-rule="evenodd" clip-rule="evenodd" d="M48.217 34.524l.947-.22-1.297-.79.35 1.01zm-1.605-.246l-.062.21.264-.18-.202-.03z" fill="#4D4E4C"/><path fill-rule="evenodd" clip-rule="evenodd" d="M47.874 33.529l.326-.11-.416-.202.09.312z" fill="#4D4E4C"/><path fill-rule="evenodd" clip-rule="evenodd" d="M46.939 34.334l-.327-.054.432-.278-.105.332z" fill="#9E9F9E"/><path fill-rule="evenodd" clip-rule="evenodd" d="M47.094 33.783l-.155.55.684-.478-.529-.072z" fill="#4D4E4C"/><path fill-rule="evenodd" clip-rule="evenodd" d="M47.785 33.217l-.69.565 1.122.742-.432-1.307zM96.122 22.71l.799-.144-1-.39.201.534z" fill="#9E9F9E"/><path fill-rule="evenodd" clip-rule="evenodd" d="M93.246 21.5l2.876 1.21-1.405-3.812-1.471 2.601zm-3.438-3.266l-.638.306 1.071.1-.433-.406z" fill="#4D4E4C"/><path fill-rule="evenodd" clip-rule="evenodd" d="M94.699 18.939l1.072.346-.575-1.118-.497.772z" fill="#4D4E4C"/><path fill-rule="evenodd" clip-rule="evenodd" d="M90.49 18.908l-.683-.674 1.715.2-1.031.474z" fill="#9E9F9E"/><path fill-rule="evenodd" clip-rule="evenodd" d="M92.158 18.09l-1.666.818 2.826.241-1.16-1.06z" fill="#4D4E4C"/><path fill-rule="evenodd" clip-rule="evenodd" d="M95.196 18.167l-3.038-.079 1.086 3.412 1.952-3.333zm-7.031 6.725l.371-.736-1.058.445.687.291z" fill="#9E9F9E"/><path fill-rule="evenodd" clip-rule="evenodd" d="M85.023 26.102l3.142-1.21-4.884-2.098 1.742 3.308zm-5.643-.073l-.1.747.805-.74-.705-.007z" fill="#4D4E4C"/><path fill-rule="evenodd" clip-rule="evenodd" d="M83.312 22.843l1.06-.54-1.538-.49.478 1.03z" fill="#4D4E4C"/><path fill-rule="evenodd" clip-rule="evenodd" d="M80.53 26.064l-1.15-.035 1.33-1.156-.18 1.191z" fill="#9E9F9E"/><path fill-rule="evenodd" clip-rule="evenodd" d="M80.766 24.094l-.238 1.97 2.098-1.981-1.86.01z" fill="#4D4E4C"/><path fill-rule="evenodd" clip-rule="evenodd" d="M82.834 21.813l-2.068 2.281 4.257 2.01-2.19-4.29zm9.932 17.247l.325-.943-1.21.725.885.217z" fill="#9E9F9E"/><path fill-rule="evenodd" clip-rule="evenodd" d="M89.153 41.083l3.612-2.024-6.298-1.578 2.686 3.602zm-6.872.969l.007.904.85-1.03-.857.126z" fill="#4D4E4C"/><path fill-rule="evenodd" clip-rule="evenodd" d="M86.515 37.534l1.196-.837-1.954-.294.758 1.131z" fill="#4D4E4C"/><path fill-rule="evenodd" clip-rule="evenodd" d="M83.682 41.878l-1.401.174 1.42-1.62-.019 1.446z" fill="#9E9F9E"/><path fill-rule="evenodd" clip-rule="evenodd" d="M83.634 39.495l.047 2.382 2.213-2.743-2.26.361z" fill="#4D4E4C"/><path fill-rule="evenodd" clip-rule="evenodd" d="M85.758 36.403l-2.125 3.093 5.523 1.59-3.398-4.683z" fill="#9E9F9E"/><path fill-rule="evenodd" clip-rule="evenodd" d="M52.989 33.612l-.808 1.806 3.062.207-2.254-2.013z" fill="#8C1D46"/><path fill-rule="evenodd" clip-rule="evenodd" d="M53.558 32.515l-.513.556 1.023-.095-.51-.461z" fill="#BA2059"/><path fill-rule="evenodd" clip-rule="evenodd" d="M51.488 36.756l.104.503.377-.675-.481.172zm1.382-3.554l.689-.687-.128 1.379-.56-.692z" fill="#8C1D46"/><path fill-rule="evenodd" clip-rule="evenodd" d="M52.276 36.492l-.788.264.639-1.07.15.806z" fill="#BA2059"/><path fill-rule="evenodd" clip-rule="evenodd" d="M51.988 35.174l.289 1.318.968-1.787-1.257.469z" fill="#8C1D46"/><path fill-rule="evenodd" clip-rule="evenodd" d="M52.87 33.202l-.882 1.972 3.345.225-2.463-2.197z" fill="#BA2059"/><path fill-rule="evenodd" clip-rule="evenodd" d="M59.534 33.072l-.192 1.044-.773-1.21.965.166zm1.583.936l.178.41-.589-.213.41-.197z" fill="#223F6F"/><path fill-rule="evenodd" clip-rule="evenodd" d="M59.72 33.101l-.386 1.121-.628-1.486 1.013.365zm.01 1.314l1.131-.509.256.102-.37.792-1.017-.385z" fill="#296BA7"/><path fill-rule="evenodd" clip-rule="evenodd" d="M59.295 34.209l.424-1.108.574 1.513-.998-.405zm.473 1.205l-.883.484.537-1.383.346.899z" fill="#223F6F"/><path fill-rule="evenodd" clip-rule="evenodd" d="M59.704 35.255l-.409-1.046 1.453.59-1.044.456z" fill="#296BA7"/><path fill-rule="evenodd" clip-rule="evenodd" d="M43.152 29.183l-.14.76-.562-.88.702.12zm1.151.683l.13.298-.428-.157.298-.14z" fill="#223F6F"/><path fill-rule="evenodd" clip-rule="evenodd" d="M43.288 29.205l-.28.816-.458-1.081.738.265zm.007.957l.824-.372.184.076-.267.574-.741-.278z" fill="#296BA7"/><path fill-rule="evenodd" clip-rule="evenodd" d="M42.98 30.012l.308-.807.416 1.1-.724-.293zm.342.875l-.643.354.392-1.007.251.653z" fill="#223F6F"/><path fill-rule="evenodd" clip-rule="evenodd" d="M43.277 30.772l-.297-.76 1.056.428-.76.332z" fill="#296BA7"/><path fill-rule="evenodd" clip-rule="evenodd" d="M70.843 45.167l-.47.482.03-.88.44.398zm.487 1l-.052.268-.229-.298.281.03z" fill="#223F6F"/><path fill-rule="evenodd" clip-rule="evenodd" d="M70.928 45.243l-.597.458.203-.975.394.517zm-.46.687l.767.1.095.138-.471.291-.391-.53z" fill="#296BA7"/><path fill-rule="evenodd" clip-rule="evenodd" d="M70.317 45.684l.61-.441-.239.972-.371-.531zm-.184.778l-.63-.034.77-.546-.14.58z" fill="#223F6F"/><path fill-rule="evenodd" clip-rule="evenodd" d="M70.156 46.359l.16-.675.543.774-.703-.1z" fill="#296BA7"/><path fill-rule="evenodd" clip-rule="evenodd" d="M49.713 33.02l.052 1.342-1.33-1.249 1.278-.093zm2.29.661l.342.448-.811-.08.469-.367z" fill="#223F6F"/><path fill-rule="evenodd" clip-rule="evenodd" d="M49.962 32.997l-.176 1.498-1.224-1.634 1.4.136zm.384 1.613l1.302-.977.355.048-.247 1.087-1.41-.158z" fill="#296BA7"/><path fill-rule="evenodd" clip-rule="evenodd" d="M49.733 34.492l.229-1.495 1.16 1.684-1.389-.19zm.943 1.335l-.99.869.295-1.87.695 1z" fill="#223F6F"/><path fill-rule="evenodd" clip-rule="evenodd" d="M50.552 35.65l-.819-1.158 2.024.275-1.205.883z" fill="#296BA7"/><path fill-rule="evenodd" clip-rule="evenodd" d="M73.408 33.31l-2.274 2.056 3.996 2.494-1.722-4.55z" fill="#8B7836"/><path fill-rule="evenodd" clip-rule="evenodd" d="M74.894 32.117l-1.054.442 1.442.595-.388-1.037z" fill="#BCA948"/><path fill-rule="evenodd" clip-rule="evenodd" d="M69.324 36.82l-.19.807.95-.714-.76-.093zm4.193-4.195l1.377-.508-1.074 1.918-.303-1.41z" fill="#8B7836"/><path fill-rule="evenodd" clip-rule="evenodd" d="M70.558 37l-1.234-.179 1.563-1.105L70.558 37z" fill="#BCA948"/><path fill-rule="evenodd" clip-rule="evenodd" d="M71.034 34.868L70.558 37l2.481-1.915-2.005-.218z" fill="#A68D40"/><path fill-rule="evenodd" clip-rule="evenodd" d="M73.518 32.624l-2.484 2.244 4.361 2.727-1.877-4.97z" fill="#BCA948"/><path fill-rule="evenodd" clip-rule="evenodd" d="M46.546 31.27l-.866.783L47.2 33l-.654-1.731z" fill="#8B7836"/><path fill-rule="evenodd" clip-rule="evenodd" d="M47.113 30.815l-.405.168.551.227-.146-.395z" fill="#BCA948"/><path fill-rule="evenodd" clip-rule="evenodd" d="M44.992 32.606l-.073.307.362-.272-.29-.035zm1.594-1.599l.527-.192-.41.73-.117-.538z" fill="#8B7836"/><path fill-rule="evenodd" clip-rule="evenodd" d="M45.46 32.673l-.47-.068.596-.42-.125.488z" fill="#BCA948"/><path fill-rule="evenodd" clip-rule="evenodd" d="M45.642 31.862l-.181.812.944-.729-.763-.083z" fill="#A68D40"/><path fill-rule="evenodd" clip-rule="evenodd" d="M46.588 31.008l-.946.855 1.66 1.038-.714-1.893z" fill="#BCA948"/><path fill-rule="evenodd" clip-rule="evenodd" d="M84.567 27.839l-2.8 2.528 4.916 3.073-2.116-5.601z" fill="#8B7836"/><path fill-rule="evenodd" clip-rule="evenodd" d="M86.397 26.371l-1.302.543 1.777.731-.475-1.274z" fill="#BCA948"/><path fill-rule="evenodd" clip-rule="evenodd" d="M79.54 32.159l-.236.993 1.168-.88-.933-.113zm5.158-5.164l1.699-.624-1.325 2.36-.374-1.736z" fill="#8B7836"/><path fill-rule="evenodd" clip-rule="evenodd" d="M81.058 32.381l-1.519-.222 1.924-1.36-.404 1.582z" fill="#BCA948"/><path fill-rule="evenodd" clip-rule="evenodd" d="M81.643 29.756l-.584 2.625 3.053-2.357-2.469-.268z" fill="#A68D40"/><path fill-rule="evenodd" clip-rule="evenodd" d="M84.7 26.995l-3.058 2.762 5.37 3.356-2.311-6.118z" fill="#BCA948"/><path fill-rule="evenodd" clip-rule="evenodd" d="M46.38 29.949l-.284.31.577-.078-.292-.232z" fill="#E5765B"/><path fill-rule="evenodd" clip-rule="evenodd" d="M45.798 30.235l.195.577.388-.863-.583.286z" fill="#C1544C"/><path fill-rule="evenodd" clip-rule="evenodd" d="M44.634 30.955l.341.06-.455.285.114-.345z" fill="#E5765B"/><path fill-rule="evenodd" clip-rule="evenodd" d="M45.66 29.83l-.29.645-.299-.895.59.25zm-.681 1.48l-.345-.355.752-.01-.407.365z" fill="#C1544C"/><path fill-rule="evenodd" clip-rule="evenodd" d="M45.993 30.812l-1.014.498.682-1.48.332.982zm7.437-.357l-.36.633.95-.342-.59-.291z" fill="#E5765B"/><path fill-rule="evenodd" clip-rule="evenodd" d="M52.553 31.15l.557.908.32-1.603-.877.695z" fill="#C1544C"/><path fill-rule="evenodd" clip-rule="evenodd" d="M50.854 32.786l.603-.02-.663.646.06-.626z" fill="#E5765B"/><path fill-rule="evenodd" clip-rule="evenodd" d="M52.163 30.51l-.246 1.198-.858-1.415 1.104.218zm-.586 2.757l-.723-.481 1.273-.284-.55.765z" fill="#C1544C"/><path fill-rule="evenodd" clip-rule="evenodd" d="M53.11 32.06l-1.532 1.208.585-2.757.947 1.548zm45.674 6.666l-1.632 1.145 2.185-.035-.553-1.11z" fill="#E5765B"/><path fill-rule="evenodd" clip-rule="evenodd" d="M95.558 39.392l.084 2.447 3.142-3.113-3.226.666z" fill="#C1544C"/><path fill-rule="evenodd" clip-rule="evenodd" d="M89.827 41.275l1.453.756-2.36.772.907-1.528z" fill="#E5765B"/><path fill-rule="evenodd" clip-rule="evenodd" d="M95.71 37.172l-2.046 2.748-.292-4.782 2.339 2.034zm-4.756 6.308l-1.127-2.205 3.365.97-2.238 1.235z" fill="#C1544C"/><path fill-rule="evenodd" clip-rule="evenodd" d="M95.641 41.841l-4.686 1.64 4.756-6.31-.07 4.67z" fill="#E5765B"/><path fill-rule="evenodd" clip-rule="evenodd" d="M62.032 30.958l-.557.425.944.096-.387-.52z" fill="#DB3F81"/><path fill-rule="evenodd" clip-rule="evenodd" d="M61.01 31.215l.114 1.075.908-1.332-1.022.257zm-.08-.755l-.682.992-.17-1.667.852.675zm-1.587 2.278l-.426-.755 1.196.289-.77.466z" fill="#C62453"/><path fill-rule="evenodd" clip-rule="evenodd" d="M61.124 32.29l-1.78.448 1.586-2.278.194 1.83z" fill="#DB3F81"/><path fill-rule="evenodd" clip-rule="evenodd" d="M88.257 42.284l-.97.627 1.529.246-.559-.873z" fill="#296BA7"/><path fill-rule="evenodd" clip-rule="evenodd" d="M86.551 42.596l.038 1.731 1.667-2.043-1.705.312zm-.026-1.214L85.274 42.9l-.047-2.684 1.298 1.166zm-2.906 3.484l-.597-1.248 1.92.582-1.323.666z" fill="#223F6F"/><path fill-rule="evenodd" clip-rule="evenodd" d="M86.59 44.327l-2.972.542 2.906-3.488.065 2.946z" fill="#296BA7"/><path fill-rule="evenodd" clip-rule="evenodd" d="M77.006 44.602l-.618.282.875.241-.257-.523z" fill="#DB3F81"/><path fill-rule="evenodd" clip-rule="evenodd" d="M75.98 44.66l-.11.961 1.136-1.019-1.026.057zm.081-.674l-.852.757.184-1.492.668.735zm-1.977 1.733l-.25-.732 1.078.452-.828.28z" fill="#C62453"/><path fill-rule="evenodd" clip-rule="evenodd" d="M75.87 45.621l-1.787.098 1.978-1.734-.192 1.636zM69.451 32.96l-.61 1.071 1.612-.578-1.002-.494z" fill="#DB3F81"/><path fill-rule="evenodd" clip-rule="evenodd" d="M67.962 34.137l.944 1.54.545-2.72-1.489 1.18zm-.66-1.083l-.419 2.028-1.452-2.398 1.87.37zm-.99 4.674l-1.23-.815 2.162-.484-.932 1.299z" fill="#C62453"/><path fill-rule="evenodd" clip-rule="evenodd" d="M68.906 35.677l-2.594 2.05.988-4.673 1.606 2.623zm18.755-16.91l.04 1.116.99-1.171-1.03.055z" fill="#DB3F81"/><path fill-rule="evenodd" clip-rule="evenodd" d="M87.058 20.356l1.5.793-.897-2.384-.603 1.59zm-1.049-.559l.66 1.781-2.626-.66 1.966-1.121zm1.5 4.117l-1.369-.096 1.47-1.34-.101 1.436z" fill="#C62453"/><path fill-rule="evenodd" clip-rule="evenodd" d="M88.558 21.149l-1.05 2.765-1.5-4.117 2.55 1.352zm-5.103 4.857l-.418.717 1.083-.379-.665-.338z" fill="#DB3F81"/><path fill-rule="evenodd" clip-rule="evenodd" d="M82.446 26.787l.625 1.04.384-1.823-1.01.783zm-.437-.73l-.292 1.358-.96-1.617 1.252.259zm-.694 3.131l-.82-.555 1.453-.31-.633.865z" fill="#C62453"/><path fill-rule="evenodd" clip-rule="evenodd" d="M83.071 27.827l-1.756 1.36.694-3.13 1.062 1.77zm-7.947.156l-.64 1.122 1.684-.605-1.044-.517z" fill="#DB3F81"/><path fill-rule="evenodd" clip-rule="evenodd" d="M73.565 29.215l.99 1.613.57-2.846-1.56 1.233zm-.69-1.132l-.437 2.122-1.518-2.507 1.955.385zM71.84 32.97l-1.286-.852 2.26-.507-.974 1.358z" fill="#C62453"/><path fill-rule="evenodd" clip-rule="evenodd" d="M74.554 30.827l-2.713 2.144 1.033-4.889 1.68 2.745z" fill="#DB3F81"/><path fill-rule="evenodd" clip-rule="evenodd" d="M102.604 33.51l-1.075 1.211 2.208-.33-1.133-.882z" fill="#296BA7"/><path fill-rule="evenodd" clip-rule="evenodd" d="M100.385 34.63l.774 2.2 1.445-3.321-2.219 1.122zm-.537-1.541l-1.094 2.474-1.178-3.416 2.272.942zm-2.553 5.691l-1.336-1.345 2.879-.071-1.543 1.417z" fill="#223F6F"/><path fill-rule="evenodd" clip-rule="evenodd" d="M101.159 36.83l-3.864 1.951 2.55-5.693 1.314 3.743z" fill="#296BA7"/><path fill-rule="evenodd" clip-rule="evenodd" d="M49.662 30.66l-.298.525.787-.282-.489-.242z" fill="#DB3F81"/><path fill-rule="evenodd" clip-rule="evenodd" d="M48.934 31.237l.463.752.265-1.329-.728.577zm-.323-.53l-.204.99-.71-1.17.914.18zm-.483 2.284l-.601-.398 1.055-.237-.454.635z" fill="#C62453"/><path fill-rule="evenodd" clip-rule="evenodd" d="M49.396 31.989l-1.268 1.002.483-2.284.785 1.282z" fill="#DB3F81"/><path fill-rule="evenodd" clip-rule="evenodd" d="M107.047 16.769l-.014-.025.025-.008.007.025a.201.201 0 00-.018.008z" fill="#296BA7"/><path fill-rule="evenodd" clip-rule="evenodd" d="M102.205 8.355a.26.26 0 01.101.125l.003.012a40.69 40.69 0 01-.108-.118l.004-.019zm14.655 15.326c-.258-.564-.422-1.133-1.22-2.24-.444-.618-1.854-1.41-3.014-1.988l.013-.008c-.583-.282-1.148-.803-1.311-.875l-.018-.062-.047-.162-.045-.145a2.957 2.957 0 00-.125-.316 19.772 19.772 0 00-1.018-1.83 2.526 2.526 0 01-.262-.518 1.192 1.192 0 01-.054-.566c.07-.453.158-.905.262-1.352a.773.773 0 00-.041-.515c-.109-.243-.36-.383-.7-.34-.207.027-.379.05-.485-.21-.051-.13-.325-.11-.423.015-.032.041-.054.094-.105.178-.075-.1-.146-.178-.196-.265-.123-.212-.223-.248-.436-.147-.238.112-.275.097-.378-.176-.174-.453-.478-.53-.81-.21a1.147 1.147 0 01-.214.16c-.163.093-.333.18-.5.27a.838.838 0 01-.082.04c-.016-.022-.036-.043-.052-.065-.075-.099-.649-.919-.746-1.047-.623-.914-2.943-3.676-3.648-4.52-.927-1.115-1.369-2.283-1.375-3.686-.002-.618-.227-1.25-.351-1.876-.007-.109-.098-.192-.171-.173-.064-.014-.129.034-.132.2-.012.324.06 1.843.045 2.135a.45.45 0 01-.014.104c-.023-.036-.051-.103-.07-.102-.353-1.064-.924-2.814-1.058-3.195-.06-.167-.13-.208-.19-.19-.097-.02-.18.131-.16.256.131.843.352 2.12.392 2.528.01.105.007.158-.007.178-.048-.034-.118-.145-.155-.138L96.81.088l-.023.038a.316.316 0 01-.016-.036c-.483.642-.012 1.3-.019 2.081-.195-.48-.332-.823-.469-1.161-.013 0-.025.003-.039.006v-.004l-.24.03c.03.377 0 .77.104 1.131.28.968.65 1.915.922 2.884.194.688.102.947-.395.98a3.17 3.17 0 01-.389-.018 2.536 2.536 0 00-.395-.012c-.367.01-.673.113-.803.432 1.165.39 2.287.837 3.44 1.13.857.22 2.923 2.574 3.414 3.35.086.077.277.269.47.583.259.423.434.873.434.873-1.517.683-2.495 2.889-2.495 2.889l-.362-.197c-1.434-.996-4.62-3.776-6.085-4.722-.856-.551-1.53-1.141-1.705-2.244-.193-1.212-.538-2.409-.823-3.64-.013.003-.024.01-.038.016.001-.005-.002-.01-.003-.016-.434.138-.529.62-.525 1.155.002.559-.08.842-.342.898-.159.02-.37-.027-.66-.14-.95-.368-1.867-.834-2.812-1.21-.353-.14-.749-.214-1.127-.281-.014-.007-.033-.005-.052 0-.096-.021-.316.17-.04.317.284.148 1.21.617 1.733.888-.713-.039-2.09-.529-2.527-.511-.115-.003-.183.02-.18.081-.014.372 1.792.966 2.648 1.43.086.057.255.205.096.217a1.003 1.003 0 01-.117-.015c-.407-.078-1.668-.422-2.502-.633a.302.302 0 00-.095-.005c-.18-.005-.376.161-.04.318.372.173 2.878 1.189 2.984 1.234.102.042.189.265-.06.274-.307-.015-1.601-.225-1.925-.244a.443.443 0 00-.102.004c-.245.02-.155.241.013.266.616.186 1.23.474 1.85.532 1.409.134 2.542.694 3.576 1.75 1.088 1.113 4.104 3.845 5.242 4.91 1.006.94 1.898 2.01 2.898 2.957 0 0 2.424 1.846 2.548 1.939.124.093.431.293.431.293l1.96 1.42c.83.61 1.586 1.206 2.379 1.864.642.532 1.108 1.278 1.637 1.957.355 1.017 1.002 1.963 1.676 2.92.52.74 1.006 1.311 1.364 1.876.986 1.62.352 3.412.132 3.902-.437.973-2.455 2.864-2.729 4.867-.237 1.73.962 4.496.962 4.496s-.347.949-.698 2.042a4.08 4.08 0 00-.042.149c-.454 1.292-1.176 4.623-1.428 5.325-.271.756-.503 2.015-1.228 2.567-.722.55-2.475 2.206-3.012 4.81-.332 1.622-1.047 6.542-1.038 7.326 0 .104-.006.21-.012.316-.016.232-.036.461-.049.695a2.778 2.778 0 01-.404 1.317.986.986 0 01-.313.296c-.144.096-.309.163-.467.232-.405.176-.814.345-1.129.666a.682.682 0 00-.204.473c-.035.713.167 1.356.572 1.944.219.318.396.653.435 1.042a3.922 3.922 0 01-.136 1.499c-.107.36-.241.715-.303 1.088-.012.068-.071.129-.101.195-.042.097-.09.194-.111.294-.052.234-.043.49-.14.701-.18.39-.022.712.144 1.037.088.17.274.172.446.177.149.005.156-.127.204-.214.036-.063.052-.138.08-.207.172-.415.48-.731.789-1.05.205-.212.138-.666.316-.9.149-.194.238-.428.374-.633.129-.194.267-.469.406-.76.205.266.376.553.443.89a4.08 4.08 0 01.015 1.568c-.074.385-.177.763-.202 1.156-.005.073-.06.14-.084.213-.035.103-.074.209-.085.316-.029.246.006.511-.072.739-.146.423.05.741.256 1.062.108.168.303.15.481.138.156-.01.148-.146.19-.24.03-.07.039-.148.061-.224.134-.447.421-.805.709-1.164.19-.24.073-.703.233-.963.134-.217.203-.469.323-.695.278-.52.564-1.554.814-2.086.18-.38.294-.789.411-1.19.306-1.053.53-2.124.591-3.219.015-.284.045-.565.073-.846.01-.106.146-1.051.17-1.186 0 0 .025-.17.113-.486.361-.885.751-1.723.875-2.173.465-1.69 2.29-6.197 2.704-6.9.416-.7 1.275-1.207 1.506-1.95.233-.744.581-.837 2.527-4.014 3.018-5.341 2.622-8.76 2.651-10.309.029-1.55 1.719-7.096 1.914-9.035.193-1.924-.015-5.001-.482-6.52h-.005c-.014-.051-.031-.115-.045-.159-.467-1.518-1.51-3.092-1.766-3.656z" fill="#296BA7"/></svg>