<svg width="120" height="81" fill="none" xmlns="http://www.w3.org/2000/svg"><path fill-rule="evenodd" clip-rule="evenodd" d="M3.901 59.216c0 1.01.197 1.961.591 2.86a7.587 7.587 0 001.584 2.34A7.54 7.54 0 008.415 66a7.03 7.03 0 002.86.59 7.56 7.56 0 002.86-.543 7.196 7.196 0 002.363-1.536 7.094 7.094 0 001.584-2.34c.377-.9.567-1.884.567-2.955a7.052 7.052 0 00-.592-2.86 7.58 7.58 0 00-1.583-2.34 7.609 7.609 0 00-2.338-1.583 7.052 7.052 0 00-2.861-.59 7.044 7.044 0 00-2.86.59 7.581 7.581 0 00-2.339 1.583 7.565 7.565 0 00-1.584 2.34 7.04 7.04 0 00-.59 2.86zm-3.629-.059c0-1.517.29-2.935.872-4.254a10.827 10.827 0 012.368-3.435c1-.972 2.167-1.743 3.504-2.316 1.337-.572 2.775-.859 4.312-.859 1.54 0 2.977.287 4.314.86a11.175 11.175 0 013.483 2.315 11.012 11.012 0 012.348 3.435c.581 1.319.872 2.737.872 4.254v10.548h-3.696v-2.363c-1.579 1.47-3.695 2.679-7.32 2.679-1.675 0-3.193-.278-4.557-.838-1.364-.56-2.525-1.331-3.483-2.318a10.449 10.449 0 01-2.227-3.455c-.526-1.316-.79-2.736-.79-4.253zm47.941.093c0 1.015.195 1.976.588 2.88a7.55 7.55 0 001.577 2.358 7.508 7.508 0 002.328 1.596 6.925 6.925 0 002.848.594 6.915 6.915 0 002.846-.594 7.502 7.502 0 002.329-1.596 7.613 7.613 0 001.578-2.357c.39-.905.587-1.866.587-2.88a7.198 7.198 0 00-.587-2.883 7.655 7.655 0 00-1.578-2.356 7.509 7.509 0 00-2.329-1.595 6.916 6.916 0 00-2.846-.595 6.926 6.926 0 00-2.848.595 7.515 7.515 0 00-2.328 1.595 7.59 7.59 0 00-1.577 2.356 7.166 7.166 0 00-.588 2.883zm-3.643 0c0-1.53.29-2.959.867-4.287a10.935 10.935 0 012.361-3.463 11.375 11.375 0 013.49-2.334c1.33-.577 2.763-.866 4.296-.866 1.533 0 2.965.29 4.296.866a11.145 11.145 0 013.468 2.334c.983.98 1.762 2.134 2.341 3.463.578 1.328.867 2.757.867 4.288 0 1.53-.29 2.958-.867 4.288a11.084 11.084 0 01-2.34 3.46c-.982.98-2.139 1.76-3.47 2.335-1.33.577-2.762.866-4.295.866-1.534 0-2.967-.289-4.296-.866a11.31 11.31 0 01-3.49-2.335 10.93 10.93 0 01-2.361-3.46c-.577-1.33-.867-2.758-.867-4.288zm23.608-10.246h3.418v1.769c.537-.52 1.445-1.303 2.552-1.763.943-.387 1.859-.555 3.192-.555V52c-2.234 0-4.332.985-5.107 3.155-.407 1.14-.234 2.26-.234 3.435v11.104h-3.82v-20.69zm28.619 13.322a7.58 7.58 0 01-1.578 2.358 7.535 7.535 0 01-2.327 1.596 6.944 6.944 0 01-2.847.595 6.932 6.932 0 01-2.847-.595 7.533 7.533 0 01-2.33-1.596 7.592 7.592 0 01-1.576-2.358 7.154 7.154 0 01-.588-2.88 7.17 7.17 0 01.588-2.882 7.634 7.634 0 011.576-2.357 7.533 7.533 0 012.33-1.595 6.927 6.927 0 012.847-.595 6.94 6.94 0 012.847.595c.893.398 1.67.928 2.327 1.595a7.622 7.622 0 011.578 2.357c.393.906.589 1.866.589 2.882a7.148 7.148 0 01-.589 2.88zm4.094-4.694V43.729h-3.495v7.566a11.23 11.23 0 00-3.025-1.934c-1.332-.577-2.764-.865-4.297-.865s-2.965.288-4.296.865a11.387 11.387 0 00-3.49 2.335 10.912 10.912 0 00-2.36 3.462c-.579 1.329-.868 2.758-.868 4.288 0 1.53.29 2.958.868 4.287a10.899 10.899 0 002.36 3.462c.995.98 2.158 1.76 3.49 2.335 1.33.578 2.763.865 4.296.865 1.533 0 2.965-.287 4.297-.865a11.099 11.099 0 003.469-2.335 11.072 11.072 0 002.34-3.462c.577-1.329.867-2.758.867-4.287 0-.624-.061-1.224-.156-1.814zm-67.93-15.776v3.17s-2.352-.067-3.427.652c-1.075.72-1.612 1.765-1.612 3.072v.132h5.04v3.266h-5.04v17.415h-3.596v-20.42c0-1.406.235-4.314 2.924-6.078 2.116-1.34 4.468-1.274 5.711-1.209zm10.146 0v3.17s-2.351-.067-3.427.652c-1.075.72-1.613 1.765-1.613 3.072v.132h5.04v3.266h-5.04v17.415h-3.595v-20.42c0-1.406.235-4.314 2.923-6.078 2.117-1.34 4.47-1.274 5.712-1.209z" fill="#296BA7"/><path fill-rule="evenodd" clip-rule="evenodd" d="M85.403 35.75l.854-1.863.605.325.085.021.118.154s.017.056.017.073l.006.134-.02.031-1.665 1.125z" fill="#DB3F81"/><path fill-rule="evenodd" clip-rule="evenodd" d="M94.05 28.976l1.387 1.148-2.06.25.674-1.398z" fill="#C62453"/><path fill-rule="evenodd" clip-rule="evenodd" d="M92.349 33.108l1.702-4.132-2.703 1.423 1.001 2.709zm-4.64 2.37l-1.451-1.591 2.388-.112-.112.375-.825 1.328zm.306-8.261l1.492 4.505 1.218-3.196-2.71-1.31z" fill="#C62453"/><path fill-rule="evenodd" clip-rule="evenodd" d="M87.709 35.478l4.64-2.37-1.624-4.582-3.016 6.952z" fill="#DB3F81"/><path fill-rule="evenodd" clip-rule="evenodd" d="M77.546 26.199l.114-.616.257.107.035.005.056.058s.008.021.008.027a.813.813 0 01.009.055l-.007.012-.472.352zm3.047-2.905l.61.408-.823.182.213-.59z" fill="#296BA7"/><path fill-rule="evenodd" clip-rule="evenodd" d="M80.085 25.028l.508-1.734-1.03.68.522 1.054zm-1.77 1.137l-.655-.581.958-.142-.03.157-.273.566zm.069-2.903l.494 1.32.352-1.34-.846.02z" fill="#223F6F"/><path fill-rule="evenodd" clip-rule="evenodd" d="M78.315 26.165l1.77-1.137-.855-1.786-.915 2.923z" fill="#296BA7"/><path fill-rule="evenodd" clip-rule="evenodd" d="M93.062 28.387l1.247-2.13.633.341.088.022.125.161s.017.058.018.076l.004.14-.02.032-2.095 1.358zm9.398-7.266l1.449 1.201-2.157.26.708-1.46z" fill="#DB3F81"/><path fill-rule="evenodd" clip-rule="evenodd" d="M100.679 25.442l1.781-4.32-2.827 1.487 1.046 2.833zm-4.852 2.478l-1.518-1.663 2.5-.115-.12.392-.862 1.386zm1.045-8.759l1.248 3.902.894-3.031-2.142-.87z" fill="#C62453"/><path fill-rule="evenodd" clip-rule="evenodd" d="M95.827 27.92l4.852-2.478-1.665-5.41-3.187 7.888z" fill="#DB3F81"/><path fill-rule="evenodd" clip-rule="evenodd" d="M56.233 33.898l.343 1.64.749-.387-1.092-1.253zm2.493.812l.108.527-.333-.21.225-.317z" fill="#DF5531"/><path fill-rule="evenodd" clip-rule="evenodd" d="M58.275 34.628l-2.12 1.13.497.456.01.001 1.25.233.814-1.737-.45-.083z" fill="#E98B32"/><path fill-rule="evenodd" clip-rule="evenodd" d="M57.694 34.938L56.532 33.5l.13 2.715 1.032-1.277z" fill="#EFAA36"/><path fill-rule="evenodd" clip-rule="evenodd" d="M56.661 36.215l-1.026 1.5.52-1.957" fill="#E98B32"/><path fill-rule="evenodd" clip-rule="evenodd" d="M62.805 29.869l.428 2.055.939-.487-1.367-1.568zm3.121 1.016l.136.661-.417-.263.281-.398z" fill="#DF5531"/><path fill-rule="evenodd" clip-rule="evenodd" d="M65.361 30.783l-2.654 1.415.622.57.01.002 1.567.293 1.02-2.178-.565-.102z" fill="#E98B32"/><path fill-rule="evenodd" clip-rule="evenodd" d="M64.634 31.172l-1.457-1.8.163 3.398 1.294-1.598z" fill="#EFAA36"/><path fill-rule="evenodd" clip-rule="evenodd" d="M63.34 32.77l-1.284 1.879.65-2.45" fill="#E98B32"/><path fill-rule="evenodd" clip-rule="evenodd" d="M79.197 43.97l-.228 1.079.555-.054-.327-1.025zm1.293 1.096l-.074.347-.147-.208.22-.139z" fill="#DF5531"/><path fill-rule="evenodd" clip-rule="evenodd" d="M80.238 44.908l-1.585.172.18.397.006.002.694.445.957-.858-.252-.158z" fill="#E98B32"/><path fill-rule="evenodd" clip-rule="evenodd" d="M79.804 44.956l-.32-1.156-.645 1.68.965-.524z" fill="#EFAA36"/><path fill-rule="evenodd" clip-rule="evenodd" d="M78.84 45.479l-1.022.661.835-1.06" fill="#E98B32"/><path fill-rule="evenodd" clip-rule="evenodd" d="M73.96 25.338l.356 1.706.778-.405-1.134-1.301zm2.592.842l.112.55-.347-.217.235-.332z" fill="#DF5531"/><path fill-rule="evenodd" clip-rule="evenodd" d="M76.082 26.095l-2.205 1.177.518.473.007.002 1.301.242.849-1.809-.47-.085z" fill="#E98B32"/><path fill-rule="evenodd" clip-rule="evenodd" d="M75.478 26.419l-1.208-1.495.132 2.822 1.076-1.327z" fill="#EFAA36"/><path fill-rule="evenodd" clip-rule="evenodd" d="M74.402 27.747l-1.065 1.559.54-2.035" fill="#E98B32"/><path fill-rule="evenodd" clip-rule="evenodd" d="M77.919 33.548l.887 4.248 1.937-1.006-2.824-3.242zm6.455 2.103l.278 1.365-.862-.544.584-.82z" fill="#DF5531"/><path fill-rule="evenodd" clip-rule="evenodd" d="M83.204 35.438l-5.49 2.927 1.29 1.177.022.005 3.238.605 2.11-4.5-1.17-.214z" fill="#E98B32"/><path fill-rule="evenodd" clip-rule="evenodd" d="M81.7 36.242l-3.01-3.724.336 7.029 2.674-3.305z" fill="#EFAA36"/><path fill-rule="evenodd" clip-rule="evenodd" d="M79.025 39.547l-2.656 3.884 1.345-5.066" fill="#E98B32"/><path fill-rule="evenodd" clip-rule="evenodd" d="M88.999 20.92l.846 4.048 1.847-.959-2.693-3.088zm6.153 2.004l.266 1.3-.821-.519.555-.78z" fill="#DF5531"/><path fill-rule="evenodd" clip-rule="evenodd" d="M94.037 22.719l-5.233 2.79 1.229 1.123.021.004 3.088.576 2.01-4.288-1.115-.205z" fill="#E98B32"/><path fill-rule="evenodd" clip-rule="evenodd" d="M92.602 23.488l-2.865-3.551.317 6.699 2.548-3.148z" fill="#EFAA36"/><path fill-rule="evenodd" clip-rule="evenodd" d="M90.054 26.636l-2.53 3.703 1.28-4.83" fill="#E98B32"/><path fill-rule="evenodd" clip-rule="evenodd" d="M67.187 31.252l-1.292 1.031 1.07.09.485-1.122-.263.001zm3.741-2.468l-.893-.277.506-.6.358.852" fill="#81B741"/><path fill-rule="evenodd" clip-rule="evenodd" d="M66.964 32.374l1.602-1.36-1.248-.528-.354 1.888zm2.841-2.923l.735-1.543-1.159.523.005.842.419.178z" fill="#198B44"/><path fill-rule="evenodd" clip-rule="evenodd" d="M71.244 32.635l-3.926-2.149 2.077-2.076 1.85 4.225zm18.165 3.867l-1.46.898 1.08.221.65-1.088-.27-.031zm4.154-2.065l-.878-.392.6-.551.25.913" fill="#81B741"/><path fill-rule="evenodd" clip-rule="evenodd" d="M89.03 37.621l1.819-1.195-1.204-.69-.615 1.885zm3.293-2.64l.961-1.487-1.255.391-.107.86.401.236z" fill="#198B44"/><path fill-rule="evenodd" clip-rule="evenodd" d="M93.365 38.413l-3.72-2.677 2.4-1.87 1.32 4.547zm2.842-6.957l-2.466 1.977 2.046.093.925-2.09-.505.02zm7.146-4.774l-1.713-.447.963-1.136.692 1.538" fill="#81B741"/><path fill-rule="evenodd" clip-rule="evenodd" d="M95.787 33.525l3.055-2.598-2.392-.886-.663 3.484z" fill="#4CAE48"/><path fill-rule="evenodd" clip-rule="evenodd" d="M101.203 27.979l1.4-2.88-2.216 1.035.018 1.544.798.3z" fill="#198B44"/><path fill-rule="evenodd" clip-rule="evenodd" d="M103.982 33.729L96.45 30.04l3.964-3.946 3.568 7.634z" fill="#91C140"/><path fill-rule="evenodd" clip-rule="evenodd" d="M78.158 43.392l-1.655.82 1.142.298.8-1.07-.287-.048zm4.663-1.841l-.907-.458.694-.526.188.953" fill="#81B741"/><path fill-rule="evenodd" clip-rule="evenodd" d="M77.645 44.51l2.069-1.101-1.234-.787-.835 1.888z" fill="#4CAE48"/><path fill-rule="evenodd" clip-rule="evenodd" d="M81.438 42.026l1.17-1.46-1.388.319-.194.875.412.266z" fill="#198B44"/><path fill-rule="evenodd" clip-rule="evenodd" d="M82.247 45.611l-3.767-2.99 2.76-1.754 1.007 4.744z" fill="#91C140"/><path fill-rule="evenodd" clip-rule="evenodd" d="M55.635 32.9l-.852.622.676.089.342-.705-.166-.007zm2.452-1.474l-.562-.203.338-.37.205.555" fill="#1F9C8E"/><path fill-rule="evenodd" clip-rule="evenodd" d="M55.46 33.61l1.06-.824-.782-.374-.279 1.198zm1.892-1.79l.511-.968-.755.301-.018.54.262.127z" fill="#5FBDB5"/><path fill-rule="evenodd" clip-rule="evenodd" d="M58.18 33.908l-2.442-1.496 1.381-1.27 1.062 2.766zm23.266.324l-.908.664.725.094.363-.752-.18-.006zm2.617-1.571l-.6-.218.36-.395.22.595" fill="#1F9C8E"/><path fill-rule="evenodd" clip-rule="evenodd" d="M81.263 34.99l1.126-.878-.831-.4-.295 1.278zm2.015-1.909l.545-1.034-.802.323-.022.576.279.135z" fill="#5FBDB5"/><path fill-rule="evenodd" clip-rule="evenodd" d="M84.165 35.308l-2.608-1.596 1.473-1.356 1.135 2.952zM72.264 45.526l-.658.416.493.097.287-.5-.122-.013zm1.876-.963l-.401-.176.268-.257.121.419" fill="#1F9C8E"/><path fill-rule="evenodd" clip-rule="evenodd" d="M72.1 46.04l.818-.554-.553-.313-.266.866zm1.48-1.223l.427-.687-.569.186-.044.396.186.105z" fill="#5FBDB5"/><path fill-rule="evenodd" clip-rule="evenodd" d="M74.079 46.39l-1.713-1.217 1.082-.867.631 2.083z" fill="#1F9C8E"/><path fill-rule="evenodd" clip-rule="evenodd" d="M104.934 29.842l-1.246-3.398 2.775-4.573-1.529 7.97z" fill="#4CAE48"/><path fill-rule="evenodd" clip-rule="evenodd" d="M107.783 27.808l-2.98 2.71 1.66-8.648 1.32 5.938z" fill="#198B44"/><path fill-rule="evenodd" clip-rule="evenodd" d="M105.912 31.044l-1.215 3.997-.632-3.855 1.847-.142z" fill="#91C140"/><path fill-rule="evenodd" clip-rule="evenodd" d="M104.403 22.37l-3.346-2.95 2.999 6.417.347-3.468zm1.533 8.593l-.469 1.559 2.968-1.667-2.499.108z" fill="#198B44"/><path fill-rule="evenodd" clip-rule="evenodd" d="M108.435 30.855l-4.371.331 3.735-3.399.636 3.068z" fill="#6FB444"/><path fill-rule="evenodd" clip-rule="evenodd" d="M109.591 25.46l1.485 1.235-1.264.093-.221-1.327zm-2.042 1.28l2.387.774-1.501 3.341-.886-4.115z" fill="#198B44"/><path fill-rule="evenodd" clip-rule="evenodd" d="M107.547 26.74l2.046-1.28.343 2.054-2.389-.775zm-2.693-8.915l-.798 8.012 2.407-3.966-1.609-4.046z" fill="#83BE43"/><path fill-rule="evenodd" clip-rule="evenodd" d="M77.277 31.59l-.208-1.972 2.103-2.104-1.895 4.077z" fill="#4CAE48"/><path fill-rule="evenodd" clip-rule="evenodd" d="M79.073 30.854l-1.958 1.082 2.057-4.422-.099 3.34z" fill="#198B44"/><path fill-rule="evenodd" clip-rule="evenodd" d="M76.629 32.204l-.892 1.866.592 1.654.3-3.52z" fill="#83BE43"/><path fill-rule="evenodd" clip-rule="evenodd" d="M77.636 32.357l-1.19 1.988.183-2.14 1.007.152z" fill="#4CAE48"/><path fill-rule="evenodd" clip-rule="evenodd" d="M78.006 27.527l-1.39-1.992.733 3.804.657-1.812zm-.346 4.788l-.463.775 1.813-.524-1.35-.25z" fill="#198B44"/><path fill-rule="evenodd" clip-rule="evenodd" d="M79.01 32.566l-2.382-.362 2.457-1.36-.075 1.722z" fill="#83BE43"/><path fill-rule="evenodd" clip-rule="evenodd" d="M80.36 29.821l.625.844-.686-.107.06-.737zm-1.265.431l1.17.71-1.255 1.604.085-2.314z" fill="#198B44"/><path fill-rule="evenodd" clip-rule="evenodd" d="M79.094 30.253l1.267-.432-.096 1.142-1.17-.71zm-.232-5.103l-1.512 4.19 1.822-1.826-.31-2.365z" fill="#83BE43"/><path fill-rule="evenodd" clip-rule="evenodd" d="M66.265 35.799l.2-.415-.585.262.385.153z" fill="#9E9F9E"/><path fill-rule="evenodd" clip-rule="evenodd" d="M64.528 36.51l1.737-.711-2.745-1.107 1.008 1.817zm-3.148.027l-.046.417.44-.422-.394.005z" fill="#4D4E4C"/><path fill-rule="evenodd" clip-rule="evenodd" d="M63.538 34.72l.584-.313-.863-.254.279.567z" fill="#4D4E4C"/><path fill-rule="evenodd" clip-rule="evenodd" d="M62.022 36.542l-.642-.005.73-.659-.088.664z" fill="#9E9F9E"/><path fill-rule="evenodd" clip-rule="evenodd" d="M62.132 35.445l-.111 1.098 1.148-1.127-1.037.029z" fill="#4D4E4C"/><path fill-rule="evenodd" clip-rule="evenodd" d="M63.259 34.153l-1.128 1.29 2.397 1.068-1.27-2.358zm-13.823.385l.14-.193-.322.084.182.11z" fill="#9E9F9E"/><path fill-rule="evenodd" clip-rule="evenodd" d="M48.49 34.758l.946-.22-1.297-.788.35 1.008zm-1.606-.245l-.061.21.263-.18-.202-.03z" fill="#4D4E4C"/><path fill-rule="evenodd" clip-rule="evenodd" d="M48.146 33.764l.327-.11-.416-.202.09.312z" fill="#4D4E4C"/><path fill-rule="evenodd" clip-rule="evenodd" d="M47.211 34.569l-.326-.054.431-.278-.105.332z" fill="#9E9F9E"/><path fill-rule="evenodd" clip-rule="evenodd" d="M47.366 34.019l-.155.55.684-.479-.529-.071z" fill="#4D4E4C"/><path fill-rule="evenodd" clip-rule="evenodd" d="M48.057 33.452l-.69.565 1.123.741-.433-1.306zm48.337-10.507l.8-.143-1-.39.2.533z" fill="#9E9F9E"/><path fill-rule="evenodd" clip-rule="evenodd" d="M93.518 21.734l2.877 1.211-1.406-3.813-1.471 2.602zm-3.438-3.265l-.638.306 1.072.1-.434-.406z" fill="#4D4E4C"/><path fill-rule="evenodd" clip-rule="evenodd" d="M94.971 19.174l1.072.346-.574-1.118-.498.772z" fill="#4D4E4C"/><path fill-rule="evenodd" clip-rule="evenodd" d="M90.763 19.143l-.684-.674 1.716.2-1.032.474z" fill="#9E9F9E"/><path fill-rule="evenodd" clip-rule="evenodd" d="M92.43 18.324l-1.666.819 2.826.241-1.16-1.06z" fill="#4D4E4C"/><path fill-rule="evenodd" clip-rule="evenodd" d="M95.469 18.402l-3.039-.08 1.087 3.413 1.952-3.333zm-7.032 6.725l.372-.737-1.06.445.688.292z" fill="#9E9F9E"/><path fill-rule="evenodd" clip-rule="evenodd" d="M85.296 26.337l3.14-1.21-4.883-2.099 1.743 3.309zm-5.643-.073l-.1.747.804-.74-.704-.007z" fill="#4D4E4C"/><path fill-rule="evenodd" clip-rule="evenodd" d="M83.584 23.078l1.06-.54-1.538-.49.478 1.03z" fill="#4D4E4C"/><path fill-rule="evenodd" clip-rule="evenodd" d="M80.802 26.3l-1.15-.036 1.33-1.156-.18 1.191z" fill="#9E9F9E"/><path fill-rule="evenodd" clip-rule="evenodd" d="M81.038 24.329l-.238 1.97 2.099-1.981-1.861.01z" fill="#4D4E4C"/><path fill-rule="evenodd" clip-rule="evenodd" d="M83.106 22.048l-2.068 2.28 4.257 2.011-2.189-4.291zm9.932 17.246l.325-.942-1.21.725.885.217z" fill="#9E9F9E"/><path fill-rule="evenodd" clip-rule="evenodd" d="M89.426 41.318l3.612-2.024-6.298-1.578 2.686 3.602zm-6.873.968l.007.904.85-1.028-.857.124z" fill="#4D4E4C"/><path fill-rule="evenodd" clip-rule="evenodd" d="M86.788 37.769l1.196-.837-1.954-.294.758 1.131z" fill="#4D4E4C"/><path fill-rule="evenodd" clip-rule="evenodd" d="M83.954 42.113l-1.4.173 1.419-1.62-.019 1.447z" fill="#9E9F9E"/><path fill-rule="evenodd" clip-rule="evenodd" d="M83.907 39.73l.047 2.382 2.212-2.743-2.26.36z" fill="#4D4E4C"/><path fill-rule="evenodd" clip-rule="evenodd" d="M86.03 36.638l-2.125 3.093 5.524 1.59-3.4-4.683z" fill="#9E9F9E"/><path fill-rule="evenodd" clip-rule="evenodd" d="M53.261 33.847l-.808 1.806 3.062.207-2.254-2.013z" fill="#8C1D46"/><path fill-rule="evenodd" clip-rule="evenodd" d="M53.83 32.75l-.513.556 1.024-.095-.51-.462z" fill="#BA2059"/><path fill-rule="evenodd" clip-rule="evenodd" d="M51.76 36.99l.105.504.377-.675-.482.172zm1.383-3.553l.688-.687-.128 1.379-.56-.692z" fill="#8C1D46"/><path fill-rule="evenodd" clip-rule="evenodd" d="M52.549 36.727l-.789.264.639-1.07.15.806z" fill="#BA2059"/><path fill-rule="evenodd" clip-rule="evenodd" d="M52.26 35.409l.289 1.319.969-1.788-1.258.469z" fill="#8C1D46"/><path fill-rule="evenodd" clip-rule="evenodd" d="M53.143 33.437l-.883 1.972 3.345.225-2.462-2.197z" fill="#BA2059"/><path fill-rule="evenodd" clip-rule="evenodd" d="M59.806 33.307l-.192 1.043-.773-1.21.965.167zm1.584.936l.177.409-.588-.212.41-.197z" fill="#223F6F"/><path fill-rule="evenodd" clip-rule="evenodd" d="M59.991 33.336l-.385 1.121-.628-1.486 1.013.365zm.011 1.314l1.131-.51.256.103-.37.792-1.017-.385z" fill="#296BA7"/><path fill-rule="evenodd" clip-rule="evenodd" d="M59.568 34.444l.423-1.108.574 1.513-.997-.405zm.472 1.204l-.882.485.537-1.384.345.9z" fill="#223F6F"/><path fill-rule="evenodd" clip-rule="evenodd" d="M59.976 35.49l-.408-1.046 1.452.59-1.044.456z" fill="#296BA7"/><path fill-rule="evenodd" clip-rule="evenodd" d="M43.424 29.418l-.14.76-.562-.88.702.12zm1.151.682l.13.298-.428-.156.298-.141z" fill="#223F6F"/><path fill-rule="evenodd" clip-rule="evenodd" d="M43.56 29.44l-.28.816-.458-1.082.738.266zm.007.957l.824-.372.184.076-.267.574-.74-.278z" fill="#296BA7"/><path fill-rule="evenodd" clip-rule="evenodd" d="M43.252 30.246l.308-.806.416 1.1-.724-.294zm.342.876l-.642.353.392-1.006.25.653z" fill="#223F6F"/><path fill-rule="evenodd" clip-rule="evenodd" d="M43.549 31.007l-.297-.76 1.056.428-.759.332z" fill="#296BA7"/><path fill-rule="evenodd" clip-rule="evenodd" d="M71.115 45.403l-.47.481.03-.88.44.399zm.488 1l-.053.267-.228-.298.28.03z" fill="#223F6F"/><path fill-rule="evenodd" clip-rule="evenodd" d="M71.2 45.478l-.597.458.203-.975.395.517zm-.46.686l.767.101.096.137-.472.292-.39-.53z" fill="#296BA7"/><path fill-rule="evenodd" clip-rule="evenodd" d="M70.589 45.919l.611-.441-.24.972-.371-.531zm-.183.778l-.632-.034.77-.546-.138.58z" fill="#223F6F"/><path fill-rule="evenodd" clip-rule="evenodd" d="M70.428 46.594l.161-.675.543.774-.704-.1z" fill="#296BA7"/><path fill-rule="evenodd" clip-rule="evenodd" d="M49.985 33.254l.052 1.343-1.33-1.249 1.278-.094zm2.29.662l.342.448-.81-.08.468-.367z" fill="#223F6F"/><path fill-rule="evenodd" clip-rule="evenodd" d="M50.234 33.232l-.176 1.498-1.224-1.634 1.4.136zm.384 1.613l1.302-.977.355.048-.247 1.087-1.41-.158z" fill="#296BA7"/><path fill-rule="evenodd" clip-rule="evenodd" d="M50.006 34.727l.228-1.495 1.16 1.684-1.388-.19zm.943 1.335l-.991.869.295-1.87.696 1z" fill="#223F6F"/><path fill-rule="evenodd" clip-rule="evenodd" d="M50.824 35.885l-.818-1.158 2.023.275-1.205.883z" fill="#296BA7"/><path fill-rule="evenodd" clip-rule="evenodd" d="M73.68 33.545L71.406 35.6l3.996 2.495-1.722-4.55z" fill="#8B7836"/><path fill-rule="evenodd" clip-rule="evenodd" d="M75.167 32.352l-1.055.442 1.443.595-.388-1.037z" fill="#BCA948"/><path fill-rule="evenodd" clip-rule="evenodd" d="M69.597 37.055l-.191.807.95-.714-.76-.093zm4.193-4.195l1.376-.508-1.074 1.918-.303-1.41z" fill="#8B7836"/><path fill-rule="evenodd" clip-rule="evenodd" d="M70.83 37.236l-1.234-.18 1.564-1.105-.33 1.285z" fill="#BCA948"/><path fill-rule="evenodd" clip-rule="evenodd" d="M71.307 35.102l-.477 2.134 2.481-1.915-2.004-.218z" fill="#A68D40"/><path fill-rule="evenodd" clip-rule="evenodd" d="M73.79 32.86l-2.484 2.243 4.362 2.727-1.877-4.97z" fill="#BCA948"/><path fill-rule="evenodd" clip-rule="evenodd" d="M46.818 31.505l-.866.783 1.52.948-.654-1.731z" fill="#8B7836"/><path fill-rule="evenodd" clip-rule="evenodd" d="M47.385 31.05l-.404.168.55.226-.146-.395z" fill="#BCA948"/><path fill-rule="evenodd" clip-rule="evenodd" d="M45.264 32.84l-.072.308.361-.272-.289-.035zm1.594-1.598l.527-.193-.41.73-.117-.537z" fill="#8B7836"/><path fill-rule="evenodd" clip-rule="evenodd" d="M45.733 32.909l-.47-.069.596-.42-.126.489z" fill="#BCA948"/><path fill-rule="evenodd" clip-rule="evenodd" d="M45.914 32.097l-.181.811.945-.728-.764-.083z" fill="#A68D40"/><path fill-rule="evenodd" clip-rule="evenodd" d="M46.86 31.243l-.946.854 1.66 1.038-.713-1.892z" fill="#BCA948"/><path fill-rule="evenodd" clip-rule="evenodd" d="M84.84 28.074l-2.8 2.528 4.915 3.073-2.116-5.601z" fill="#8B7836"/><path fill-rule="evenodd" clip-rule="evenodd" d="M86.67 26.606l-1.303.543 1.778.732-.476-1.275z" fill="#BCA948"/><path fill-rule="evenodd" clip-rule="evenodd" d="M79.811 32.394l-.235.993 1.169-.88-.934-.113zm5.159-5.164l1.7-.624-1.325 2.36-.374-1.736z" fill="#8B7836"/><path fill-rule="evenodd" clip-rule="evenodd" d="M81.33 32.616l-1.519-.222 1.925-1.36-.405 1.582z" fill="#BCA948"/><path fill-rule="evenodd" clip-rule="evenodd" d="M81.916 29.99l-.585 2.626 3.054-2.357-2.47-.268z" fill="#A68D40"/><path fill-rule="evenodd" clip-rule="evenodd" d="M84.973 27.23l-3.059 2.762 5.37 3.355-2.311-6.117z" fill="#BCA948"/><path fill-rule="evenodd" clip-rule="evenodd" d="M46.653 30.184l-.285.31.577-.078-.292-.232z" fill="#E5765B"/><path fill-rule="evenodd" clip-rule="evenodd" d="M46.07 30.47l.195.577.389-.863-.584.286z" fill="#C1544C"/><path fill-rule="evenodd" clip-rule="evenodd" d="M44.907 31.19l.34.06-.455.285.115-.345z" fill="#E5765B"/><path fill-rule="evenodd" clip-rule="evenodd" d="M45.933 30.066l-.291.643-.298-.895.589.252zm-.682 1.479l-.344-.355.752-.011-.408.366z" fill="#C1544C"/><path fill-rule="evenodd" clip-rule="evenodd" d="M46.266 31.047l-1.015.498.682-1.48.333.982zm7.436-.357l-.359.633.95-.342-.591-.292z" fill="#E5765B"/><path fill-rule="evenodd" clip-rule="evenodd" d="M52.825 31.385l.557.908.32-1.604-.877.696z" fill="#C1544C"/><path fill-rule="evenodd" clip-rule="evenodd" d="M51.126 33.02l.604-.019-.664.646.06-.626z" fill="#E5765B"/><path fill-rule="evenodd" clip-rule="evenodd" d="M52.435 30.745l-.245 1.197-.858-1.415 1.103.218zm-.585 2.757l-.724-.481 1.274-.284-.55.765z" fill="#C1544C"/><path fill-rule="evenodd" clip-rule="evenodd" d="M53.382 32.294l-1.531 1.209.584-2.757.947 1.548zm45.674 6.667l-1.632 1.145 2.185-.035-.553-1.11z" fill="#E5765B"/><path fill-rule="evenodd" clip-rule="evenodd" d="M95.83 39.627l.084 2.447 3.142-3.113-3.225.666z" fill="#C1544C"/><path fill-rule="evenodd" clip-rule="evenodd" d="M90.1 41.51l1.452.756-2.359.771.907-1.528z" fill="#E5765B"/><path fill-rule="evenodd" clip-rule="evenodd" d="M95.983 37.407l-2.046 2.748-.293-4.782 2.34 2.034zm-4.757 6.308L90.1 41.508l3.365.97-2.239 1.236z" fill="#C1544C"/><path fill-rule="evenodd" clip-rule="evenodd" d="M95.914 42.076l-4.687 1.64 4.756-6.31-.07 4.67z" fill="#E5765B"/><path fill-rule="evenodd" clip-rule="evenodd" d="M62.304 31.193l-.557.424.944.097-.387-.521z" fill="#DB3F81"/><path fill-rule="evenodd" clip-rule="evenodd" d="M61.282 31.45l.114 1.075.908-1.333-1.022.258zm-.079-.755l-.683.992-.17-1.668.853.676zm-1.587 2.278l-.426-.755 1.196.289-.77.466z" fill="#C62453"/><path fill-rule="evenodd" clip-rule="evenodd" d="M61.397 32.525l-1.781.448 1.587-2.278.194 1.83z" fill="#DB3F81"/><path fill-rule="evenodd" clip-rule="evenodd" d="M88.53 42.519l-.97.627 1.528.246-.558-.873z" fill="#296BA7"/><path fill-rule="evenodd" clip-rule="evenodd" d="M86.823 42.83l.038 1.732 1.667-2.043-1.705.312zm-.026-1.214l-1.251 1.519-.047-2.685 1.298 1.166zM83.891 45.1l-.596-1.247 1.918.582-1.322.666z" fill="#223F6F"/><path fill-rule="evenodd" clip-rule="evenodd" d="M86.861 44.562l-2.97.542 2.906-3.488.064 2.946z" fill="#296BA7"/><path fill-rule="evenodd" clip-rule="evenodd" d="M77.278 44.837l-.617.281.875.242-.258-.523z" fill="#DB3F81"/><path fill-rule="evenodd" clip-rule="evenodd" d="M76.252 44.894l-.11.962 1.136-1.02-1.026.058zm.082-.673l-.853.757.184-1.492.669.735zm-1.978 1.732l-.25-.731 1.079.451-.829.28z" fill="#C62453"/><path fill-rule="evenodd" clip-rule="evenodd" d="M76.142 45.856l-1.786.098 1.978-1.734-.192 1.636zm-6.418-12.662l-.612 1.072 1.613-.578-1.001-.494z" fill="#DB3F81"/><path fill-rule="evenodd" clip-rule="evenodd" d="M68.234 34.372l.945 1.54.545-2.72-1.49 1.18zm-.66-1.082l-.418 2.027-1.453-2.398 1.87.37zm-.99 4.672l-1.23-.814 2.162-.484-.932 1.298z" fill="#C62453"/><path fill-rule="evenodd" clip-rule="evenodd" d="M69.178 35.912l-2.593 2.05.988-4.673 1.606 2.623zm18.756-16.91l.039 1.116.99-1.171-1.03.055z" fill="#DB3F81"/><path fill-rule="evenodd" clip-rule="evenodd" d="M87.33 20.59l1.5.793L87.934 19l-.603 1.59zm-1.049-.559l.66 1.782-2.626-.66 1.966-1.122zm1.5 4.119l-1.369-.096 1.47-1.34-.101 1.435z" fill="#C62453"/><path fill-rule="evenodd" clip-rule="evenodd" d="M88.83 21.384l-1.049 2.765-1.5-4.117 2.549 1.352zm-5.103 4.856l-.418.718 1.084-.379-.666-.338z" fill="#DB3F81"/><path fill-rule="evenodd" clip-rule="evenodd" d="M82.718 27.022l.625 1.04.385-1.823-1.01.783zm-.437-.731l-.292 1.359-.96-1.618 1.252.26zm-.693 3.131l-.821-.555 1.453-.31-.632.866z" fill="#C62453"/><path fill-rule="evenodd" clip-rule="evenodd" d="M83.344 28.062l-1.756 1.36.693-3.13 1.063 1.77zm-7.947.155l-.64 1.123 1.683-.605-1.043-.518z" fill="#DB3F81"/><path fill-rule="evenodd" clip-rule="evenodd" d="M73.837 29.45l.99 1.613.57-2.846-1.56 1.233zm-.69-1.132l-.437 2.122-1.518-2.507 1.955.385zm-1.035 4.886l-1.285-.851 2.259-.507-.974 1.358z" fill="#C62453"/><path fill-rule="evenodd" clip-rule="evenodd" d="M74.827 31.063l-2.713 2.143 1.032-4.889 1.68 2.745z" fill="#DB3F81"/><path fill-rule="evenodd" clip-rule="evenodd" d="M102.877 33.744l-1.075 1.212 2.207-.33-1.132-.882z" fill="#296BA7"/><path fill-rule="evenodd" clip-rule="evenodd" d="M100.657 34.865l.774 2.2 1.446-3.321-2.22 1.121zm-.537-1.541l-1.094 2.474-1.177-3.416 2.271.942zm-2.552 5.692L96.23 37.67l2.879-.071-1.542 1.417z" fill="#223F6F"/><path fill-rule="evenodd" clip-rule="evenodd" d="M101.431 37.065l-3.864 1.951 2.55-5.694 1.314 3.743z" fill="#296BA7"/><path fill-rule="evenodd" clip-rule="evenodd" d="M49.934 30.895l-.298.525.788-.282-.49-.243z" fill="#DB3F81"/><path fill-rule="evenodd" clip-rule="evenodd" d="M49.206 31.472l.463.752.266-1.328-.729.576zm-.322-.531l-.204.992-.71-1.171.914.18zm-.484 2.285l-.6-.398 1.055-.237-.454.635z" fill="#C62453"/><path fill-rule="evenodd" clip-rule="evenodd" d="M49.669 32.224L48.4 33.226l.482-2.285.786 1.283z" fill="#DB3F81"/><path fill-rule="evenodd" clip-rule="evenodd" d="M107.319 17.004l-.014-.025.025-.008.008.025a.218.218 0 00-.019.008z" fill="#296BA7"/><path fill-rule="evenodd" clip-rule="evenodd" d="M102.478 8.59a.262.262 0 01.1.125l.003.012-.108-.118.005-.019zm14.654 15.326c-.258-.564-.422-1.134-1.22-2.24-.444-.618-1.854-1.41-3.013-1.988l.013-.008c-.583-.282-1.148-.803-1.311-.875l-.019-.062a8.248 8.248 0 00-.047-.162l-.044-.145a3.199 3.199 0 00-.126-.316 19.75 19.75 0 00-1.017-1.83 2.583 2.583 0 01-.263-.518 1.192 1.192 0 01-.053-.566c.069-.454.158-.905.261-1.352a.779.779 0 00-.04-.515c-.11-.243-.361-.383-.7-.34-.207.026-.379.05-.485-.21-.052-.13-.325-.11-.424.015-.032.041-.054.094-.104.178-.076-.1-.146-.178-.197-.265-.123-.212-.223-.248-.436-.147-.238.112-.275.097-.378-.176-.173-.453-.478-.53-.809-.21a1.152 1.152 0 01-.214.16c-.163.093-.334.18-.501.27a.742.742 0 01-.082.04c-.016-.022-.035-.043-.052-.065-.075-.099-.648-.919-.745-1.047-.624-.914-2.944-3.676-3.649-4.521-.927-1.114-1.368-2.282-1.374-3.685-.003-.618-.228-1.25-.352-1.876-.007-.109-.097-.193-.17-.173-.064-.014-.13.034-.133.2-.011.324.06 1.843.045 2.135a.455.455 0 01-.014.104c-.023-.036-.05-.104-.07-.103C99.057 2.56 98.486.81 98.35.43c-.06-.167-.13-.208-.19-.19-.097-.02-.18.131-.16.256.132.843.353 2.12.392 2.528.01.105.007.158-.007.178-.048-.034-.118-.145-.155-.139L97.084.323l-.024.038a.316.316 0 01-.016-.036c-.483.642-.011 1.3-.019 2.081-.194-.48-.331-.823-.469-1.161-.013 0-.025.003-.039.005v-.003l-.24.03c.03.377.001.77.105 1.131.28.968.649 1.915.921 2.884.195.688.103.946-.394.979-.11.003-.24-.002-.39-.017a2.536 2.536 0 00-.395-.012c-.367.01-.673.113-.803.432 1.166.39 2.287.837 3.44 1.13.858.22 2.923 2.573 3.414 3.35.086.077.277.269.47.582.259.424.434.874.434.874-1.517.683-2.494 2.888-2.494 2.888l-.363-.196c-1.434-.996-4.62-3.776-6.085-4.722-.856-.552-1.53-1.141-1.704-2.244-.193-1.212-.539-2.409-.824-3.64-.013.003-.023.01-.038.016.001-.005-.002-.01-.002-.016-.435.138-.53.62-.526 1.155.003.559-.08.842-.342.898-.158.02-.369-.027-.66-.14-.95-.368-1.867-.834-2.812-1.21-.353-.14-.748-.214-1.127-.281-.014-.007-.032-.005-.052 0-.095-.021-.315.17-.04.316.285.149 1.21.618 1.733.89-.712-.04-2.09-.53-2.526-.512-.115-.003-.183.02-.18.08-.015.373 1.791.967 2.647 1.43.086.057.255.206.096.218a.996.996 0 01-.117-.015c-.406-.079-1.667-.422-2.502-.633a.301.301 0 00-.095-.005c-.18-.006-.375.161-.04.318.372.172 2.878 1.188 2.985 1.234.102.042.188.264-.06.274-.307-.015-1.602-.226-1.926-.244a.443.443 0 00-.102.004c-.244.02-.155.241.013.266.616.186 1.23.474 1.851.532 1.408.134 2.542.694 3.575 1.75 1.089 1.113 4.104 3.844 5.243 4.91 1.006.94 1.897 2.009 2.897 2.957l2.548 1.939c.125.093.431.293.431.293l1.96 1.42a49.49 49.49 0 012.379 1.864c.643.532 1.109 1.277 1.638 1.957.354 1.017 1.002 1.963 1.676 2.92.52.74 1.005 1.311 1.363 1.876.986 1.62.353 3.412.133 3.902-.438.973-2.456 2.864-2.73 4.867-.237 1.73.962 4.496.962 4.496s-.347.949-.697 2.042a2.701 2.701 0 00-.043.148c-.454 1.293-1.175 4.624-1.427 5.326-.272.756-.503 2.015-1.229 2.566-.722.551-2.475 2.207-3.011 4.81-.333 1.623-1.047 6.542-1.039 7.326.001.104-.006.21-.011.316-.017.232-.036.462-.05.695a2.767 2.767 0 01-.404 1.318.974.974 0 01-.313.296c-.143.096-.308.162-.467.232-.405.176-.813.345-1.128.666a.681.681 0 00-.205.473c-.035.713.167 1.356.573 1.944.218.318.395.653.435 1.042a3.922 3.922 0 01-.136 1.499c-.108.36-.242.714-.304 1.088-.012.068-.071.129-.101.195-.041.097-.09.193-.111.294-.052.234-.042.49-.14.701-.18.39-.022.712.144 1.037.088.17.275.172.446.177.15.005.156-.127.205-.214.036-.063.051-.138.08-.207.171-.416.479-.731.788-1.05.205-.212.138-.666.316-.9.149-.194.239-.428.374-.633.129-.194.267-.469.406-.76.206.266.376.552.444.89.107.52.11 1.056.014 1.568-.074.385-.176.763-.202 1.156-.005.073-.06.14-.084.213-.035.103-.074.209-.085.315-.028.247.007.512-.071.74-.147.423.049.74.255 1.062.109.168.303.15.481.138.156-.01.149-.146.19-.24.031-.07.04-.149.061-.224.134-.447.422-.805.709-1.164.19-.24.074-.704.234-.963.134-.217.202-.469.322-.695.278-.52.564-1.555.814-2.086.18-.38.295-.789.412-1.19.305-1.053.529-2.124.59-3.219.015-.284.045-.565.073-.846.01-.106.146-1.051.17-1.186 0 0 .026-.17.113-.487.362-.884.751-1.722.875-2.172.465-1.69 2.29-6.198 2.705-6.9.416-.7 1.274-1.207 1.506-1.95.232-.744.58-.837 2.526-4.015 3.019-5.34 2.623-8.76 2.652-10.308.028-1.55 1.718-7.097 1.913-9.035.193-1.924-.014-5.002-.482-6.521l-.005.002c-.014-.052-.031-.116-.045-.16-.467-1.518-1.51-3.092-1.766-3.656z" fill="#296BA7"/><path d="M3.72 11.7V18h.63v-2.34h1.62c.567 0 1.035-.189 1.413-.567.378-.378.567-.846.567-1.413 0-.567-.189-1.035-.567-1.413-.378-.378-.846-.567-1.413-.567H3.72zm.63 3.366v-2.772h1.62c.387 0 .711.135.963.396.261.261.387.585.387.99s-.126.738-.387.999c-.252.261-.576.387-.963.387H4.35zm9.846 2.097c.63-.639.945-1.404.945-2.313 0-.909-.315-1.674-.945-2.304-.63-.639-1.404-.954-2.313-.954-.91 0-1.683.315-2.313.954-.63.63-.945 1.395-.945 2.304 0 .909.315 1.674.945 2.313.63.63 1.404.945 2.313.945.909 0 1.683-.315 2.313-.945zm-4.185-.432c-.504-.513-.756-1.143-.756-1.881s.252-1.359.756-1.872c.504-.513 1.125-.774 1.872-.774.747 0 1.368.261 1.872.774s.756 1.134.756 1.872c0 .738-.252 1.368-.756 1.881-.504.513-1.125.765-1.872.765-.747 0-1.368-.252-1.872-.765zM18.079 18l1.647-5.472L21.373 18h.756l1.827-6.3h-.666l-1.557 5.445-1.638-5.445h-.738l-1.638 5.445-1.557-5.445h-.666l1.827 6.3h.756zm7.497-2.88h2.79v-.594h-2.79v-2.232h3.015V11.7h-3.645V18h3.69v-.594h-3.06V15.12zM34.308 18l-1.539-2.601c.396-.117.72-.333.972-.666a1.81 1.81 0 00.387-1.143c0-.522-.189-.963-.558-1.332a1.815 1.815 0 00-1.332-.558h-2.52V18h.63v-2.52h1.764L33.588 18h.72zm-2.07-5.706c.351 0 .648.126.891.378s.369.558.369.918c0 .351-.126.657-.369.918a1.19 1.19 0 01-.891.378h-1.89v-2.592h1.89zm3.603 2.826h2.79v-.594h-2.79v-2.232h3.015V11.7h-3.645V18h3.69v-.594h-3.06V15.12zm4.143-3.42V18h2.43c.855 0 1.566-.306 2.124-.909.567-.612.846-1.359.846-2.241 0-.882-.28-1.629-.846-2.232-.558-.612-1.27-.918-2.124-.918h-2.43zm.63 5.706v-5.112h1.8c.693 0 1.25.243 1.692.738.44.495.666 1.098.666 1.818s-.225 1.323-.666 1.818c-.441.495-1 .738-1.692.738h-1.8zm11.59-2.673c.494-.306.737-.756.737-1.341 0-.459-.162-.855-.495-1.188a1.632 1.632 0 00-1.197-.504h-2.538V18h2.745c.486 0 .9-.171 1.242-.513.342-.342.513-.756.513-1.242a1.62 1.62 0 00-1.008-1.512zm-.955-2.439c.297 0 .54.108.747.324.207.216.315.477.315.774 0 .306-.108.567-.315.783-.207.207-.45.315-.747.315h-1.908v-2.196h1.908zm-1.908 5.112v-2.322h2.115c.315 0 .576.117.792.342.225.225.333.504.333.819 0 .324-.108.603-.333.828a1.047 1.047 0 01-.792.333h-2.115zm8.557-5.706l-1.872 3.087-1.881-3.087h-.711l2.268 3.699V18h.63v-2.583l2.277-3.717h-.711z" fill="#1D1E1F"/></svg>