<svg width="131" height="27" fill="none" xmlns="http://www.w3.org/2000/svg"><g clip-path="url(#clip0)" fill="#007FFF"><path fill-rule="evenodd" clip-rule="evenodd" d="M14.13 21.459c-.286 0-.569-.011-.848-.033v-1.722c.278.025.561.038.847.038.286 0 .569-.014.848-.043v1.724c-.28.024-.563.036-.848.036zm-8.361-3.943l-4.94 4.751C.284 22.803 0 23.51 0 24.32c0 1.38 1.177 2.575 2.543 2.575h9.89c1.367 0 2.544-1.194 2.544-2.575v-2.897c5.325-.446 9.608-5.057 9.608-10.55C24.585 4.852 19.888 0 14.129 0 8.135 0 3.391 4.804 3.391 10.872c0 2.512.89 4.825 2.378 6.644zm1.182 1.23a10.763 10.763 0 006.33 2.68v2.894c0 .434-.418.858-.847.858h-9.89c-.43 0-.848-.424-.848-.858 0-.355.104-.615.308-.815l4.947-4.759zm0 0l.698-.67L6.48 16.83l-.712.685c.36.44.756.852 1.182 1.23zm6.33.958c-4.615-.42-8.194-4.235-8.194-8.832 0-5.12 3.985-9.155 9.042-9.155 4.815 0 8.76 4.076 8.76 9.155 0 4.546-3.522 8.384-7.912 8.827v-4.08c2.648-1.232 4.089-3.136 4.224-5.257.131-2.057-1.089-3.947-2.752-4.065a.844.844 0 00-.123 0 1.28 1.28 0 00-1.349 1.285c0 .711.57 1.288 1.272 1.288.321 0 .615-.121.839-.32.28.412.464 1.024.42 1.701-.096 1.52-1.226 2.955-3.52 3.933-2.294-.978-3.424-2.413-3.52-3.933-.044-.677.14-1.289.42-1.702.224.2.518.32.84.32a1.28 1.28 0 001.271-1.287 1.28 1.28 0 00-1.349-1.285.845.845 0 00-.123 0c-1.663.118-2.883 2.008-2.752 4.065.139 2.17 1.644 4.114 4.412 5.342.03.036.06.07.095.1v3.9z"/><path d="M45.38 21.62L40.426 8.338h-1.993L33.482 21.62h1.878l1.082-2.979h5.977l1.082 2.98h1.878zm-5.96-11.176l2.392 6.546h-4.763l2.372-6.546zm12.922 1.442c-1.575 0-2.77.626-3.586 1.879V8.338h-1.65V21.62h1.65v-1.632c.816 1.253 2.011 1.879 3.586 1.879 1.329 0 2.467-.475 3.397-1.442.93-.968 1.404-2.163 1.404-3.549 0-1.385-.474-2.561-1.404-3.529-.93-.968-2.068-1.461-3.397-1.461zm-.208 8.387c-.968 0-1.765-.323-2.41-.968-.645-.664-.968-1.46-.968-2.429 0-.967.323-1.764.968-2.41.645-.664 1.442-.986 2.41-.986.948 0 1.745.322 2.39.986.646.646.968 1.443.968 2.41 0 .968-.322 1.765-.967 2.43-.646.644-1.443.967-2.391.967zm8.96 1.347V7.768h-1.651V21.62h1.65zm11.956-3.985c.038-.246.057-.493.057-.74 0-1.385-.436-2.561-1.328-3.529-.873-.987-2.011-1.48-3.397-1.48-1.46 0-2.656.474-3.586 1.423-.93.949-1.385 2.144-1.385 3.567 0 1.442.474 2.638 1.404 3.587.949.93 2.182 1.404 3.681 1.404 1.86 0 3.245-.721 4.175-2.144l-1.405-.797c-.569.93-1.48 1.385-2.732 1.385-1.803 0-3.112-.987-3.434-2.676h7.95zm-4.668-4.193c1.518 0 2.77.949 3.055 2.751H65.1c.284-1.67 1.518-2.751 3.282-2.751zm14.77-5.104h-7.647V21.62h1.765v-5.636h5.636v-1.67H77.27v-4.307h5.882v-1.67zm3.132 2.068a1.1 1.1 0 001.1-1.1c0-.608-.493-1.12-1.1-1.12-.627 0-1.12.512-1.12 1.12 0 .607.493 1.1 1.12 1.1zM87.1 21.62v-9.487h-1.651v9.487h1.65zm7.573-9.734c-1.385 0-2.41.531-3.074 1.613v-1.366h-1.651v9.487h1.65v-5.028c0-2.125 1.101-3.131 2.752-3.131 1.461 0 2.353.892 2.353 2.429v5.73h1.651v-5.825c0-2.41-1.461-3.91-3.681-3.91zm14.171 1.879c-.816-1.253-2.011-1.88-3.586-1.88-1.328 0-2.467.494-3.397 1.462-.929.968-1.404 2.144-1.404 3.53 0 1.385.475 2.58 1.404 3.548.93.967 2.069 1.442 3.397 1.442 1.575 0 2.77-.626 3.586-1.879v1.632h1.651V8.338h-1.651v5.427zm-3.377 6.508c-.949 0-1.746-.323-2.391-.968-.645-.664-.968-1.46-.968-2.429 0-.967.323-1.764.968-2.41.645-.664 1.442-.986 2.391-.986.967 0 1.764.322 2.409.986.646.646.968 1.443.968 2.41 0 .968-.322 1.765-.968 2.43-.645.644-1.442.967-2.409.967zm16.967-2.638c.038-.246.057-.493.057-.74 0-1.385-.436-2.561-1.328-3.529-.873-.987-2.012-1.48-3.397-1.48-1.461 0-2.656.474-3.586 1.423-.93.949-1.385 2.144-1.385 3.567 0 1.442.474 2.638 1.404 3.587.949.93 2.182 1.404 3.681 1.404 1.86 0 3.245-.721 4.175-2.144l-1.405-.797c-.569.93-1.48 1.385-2.732 1.385-1.803 0-3.112-.987-3.434-2.676h7.95zm-4.668-4.193c1.518 0 2.771.949 3.055 2.751h-6.337c.284-1.67 1.518-2.751 3.282-2.751zm8.604-1.31h-1.651v9.488h1.651v-5.028c0-1.044.284-1.784.872-2.258.589-.475 1.272-.683 2.088-.645v-1.727c-1.423 0-2.41.588-2.96 1.764v-1.593z"/></g><defs><clipPath id="clip0"><path fill="#fff" d="M0 0h131v27H0z"/></clipPath></defs></svg>