<svg width="131" height="27" viewBox="0 0 131 27" fill="none" xmlns="http://www.w3.org/2000/svg">
<g clip-path="url(#clip0)">
<path fill-rule="evenodd" clip-rule="evenodd" d="M14.1293 21.4588C13.8439 21.4588 13.5612 21.4478 13.2816 21.4263V19.7037C13.5605 19.7291 13.8433 19.7421 14.1293 19.7421C14.415 19.7421 14.6978 19.7276 14.9771 19.6994V21.4233C14.6972 21.4468 14.4145 21.4588 14.1293 21.4588ZM5.7688 17.5156L0.829038 22.2671C0.28431 22.8027 0 23.5089 0 24.3199C0 25.7008 1.17687 26.895 2.54328 26.895H12.4338C13.8002 26.895 14.9771 25.7008 14.9771 24.3199V21.4233C20.3025 20.9767 24.585 16.3664 24.585 10.8724C24.585 4.8522 19.8877 0 14.1293 0C8.13547 0 3.39103 4.80371 3.39103 10.8724C3.39103 13.3844 4.28063 15.697 5.7688 17.5156ZM6.95136 18.746C8.65502 20.2573 10.8529 21.2396 13.2816 21.4263V24.3199C13.2816 24.7536 12.863 25.1783 12.4338 25.1783H2.54328C2.1141 25.1783 1.69552 24.7536 1.69552 24.3199C1.69552 23.9651 1.8002 23.7051 2.0036 23.5051L6.95136 18.746ZM6.95136 18.746L7.64855 18.0754L6.48076 16.8308L5.7688 17.5156C6.12925 17.9561 6.52482 18.3677 6.95136 18.746ZM13.2816 19.7037C8.66637 19.2837 5.08655 15.469 5.08655 10.8724C5.08655 5.75182 9.07187 1.7167 14.1293 1.7167C18.9436 1.7167 22.8895 5.7927 22.8895 10.8724C22.8895 15.4177 19.3667 19.2564 14.9771 19.6994V15.6184C17.6252 14.3872 19.0656 12.4828 19.2009 10.3618C19.3321 8.3049 18.1122 6.41502 16.4494 6.29669C16.4077 6.29372 16.3665 6.29386 16.326 6.29691C16.3004 6.29536 16.2747 6.29457 16.2487 6.29457C15.5464 6.29457 14.9771 6.87102 14.9771 7.5821C14.9771 8.29318 15.5464 8.86963 16.2487 8.86963C16.5703 8.86963 16.864 8.74874 17.088 8.54941C17.3672 8.96237 17.5521 9.57401 17.5089 10.2512C17.412 11.7707 16.2822 13.2056 13.988 14.1843C11.6938 13.2056 10.564 11.7707 10.4671 10.2512C10.4239 9.57401 10.6089 8.96237 10.8881 8.54941C11.112 8.74874 11.4057 8.86963 11.7273 8.86963C12.4296 8.86963 12.999 8.29318 12.999 7.5821C12.999 6.87102 12.4296 6.29457 11.7273 6.29457C11.7014 6.29457 11.6756 6.29536 11.6501 6.29691C11.6095 6.29386 11.5683 6.29372 11.5266 6.29669C9.86388 6.41502 8.6439 8.3049 8.7751 10.3618C8.91356 12.5325 10.4191 14.4763 13.1872 15.7039C13.2161 15.7401 13.2477 15.7736 13.2816 15.8042V19.7037Z" fill="#007FFF"/>
<path d="M45.3791 21.6201L40.4266 8.33762H38.4342L33.4818 21.6201H35.3603L36.4419 18.641H42.419L43.5006 21.6201H45.3791ZM39.4209 10.4438L41.8118 16.9902H37.0491L39.4209 10.4438ZM52.3423 11.8859C50.7674 11.8859 49.572 12.5121 48.7561 13.7645V8.33762H47.1052V21.6201H48.7561V19.9883C49.572 21.2406 50.7674 21.8668 52.3423 21.8668C53.6706 21.8668 54.8091 21.3924 55.7389 20.4247C56.6686 19.457 57.143 18.2615 57.143 16.8764C57.143 15.4912 56.6686 14.3147 55.7389 13.347C54.8091 12.3793 53.6706 11.8859 52.3423 11.8859ZM52.1336 20.2729C51.1659 20.2729 50.3689 19.9503 49.7238 19.3052C49.0786 18.641 48.7561 17.8441 48.7561 16.8764C48.7561 15.9086 49.0786 15.1117 49.7238 14.4665C50.3689 13.8024 51.1659 13.4798 52.1336 13.4798C53.0824 13.4798 53.8793 13.8024 54.5245 14.4665C55.1696 15.1117 55.4922 15.9086 55.4922 16.8764C55.4922 17.8441 55.1696 18.641 54.5245 19.3052C53.8793 19.9503 53.0824 20.2729 52.1336 20.2729ZM61.0937 21.6201V7.76837H59.4428V21.6201H61.0937ZM73.0502 17.6354C73.0881 17.3887 73.1071 17.142 73.1071 16.8953C73.1071 15.5102 72.6707 14.3337 71.7788 13.366C70.906 12.3793 69.7675 11.8859 68.3823 11.8859C66.9212 11.8859 65.7258 12.3603 64.796 13.3091C63.8663 14.2578 63.4109 15.4532 63.4109 16.8764C63.4109 18.3185 63.8852 19.5139 64.815 20.4626C65.7638 21.3924 66.9971 21.8668 68.4962 21.8668C70.3557 21.8668 71.7409 21.1457 72.6707 19.7226L71.2665 18.9257C70.6973 19.8554 69.7865 20.3108 68.5341 20.3108C66.7315 20.3108 65.4222 19.3241 65.0996 17.6354H73.0502ZM68.3823 13.4419C69.9003 13.4419 71.1527 14.3906 71.4373 16.1933H65.0996C65.3843 14.5235 66.6176 13.4419 68.3823 13.4419ZM83.1524 8.33762H75.5055V21.6201H77.2702V15.9845H82.9058V14.3147H77.2702V10.0074H83.1524V8.33762ZM86.2836 10.4059C86.8908 10.4059 87.3842 9.91254 87.3842 9.30534C87.3842 8.69814 86.8908 8.18582 86.2836 8.18582C85.6574 8.18582 85.1641 8.69814 85.1641 9.30534C85.1641 9.91254 85.6574 10.4059 86.2836 10.4059ZM87.0995 21.6201V12.1326H85.4487V21.6201H87.0995ZM94.6728 11.8859C93.2876 11.8859 92.263 12.4172 91.5989 13.4988V12.1326H89.948V21.6201H91.5989V16.5917C91.5989 14.4665 92.6994 13.4609 94.3502 13.4609C95.8113 13.4609 96.7031 14.3527 96.7031 15.8897V21.6201H98.354V15.7948C98.354 13.385 96.8929 11.8859 94.6728 11.8859ZM108.844 13.7645C108.028 12.5121 106.833 11.8859 105.258 11.8859C103.93 11.8859 102.791 12.3793 101.861 13.347C100.932 14.3147 100.457 15.4912 100.457 16.8764C100.457 18.2615 100.932 19.457 101.861 20.4247C102.791 21.3924 103.93 21.8668 105.258 21.8668C106.833 21.8668 108.028 21.2406 108.844 19.9883V21.6201H110.495V8.33762H108.844V13.7645ZM105.467 20.2729C104.518 20.2729 103.721 19.9503 103.076 19.3052C102.431 18.641 102.108 17.8441 102.108 16.8764C102.108 15.9086 102.431 15.1117 103.076 14.4665C103.721 13.8024 104.518 13.4798 105.467 13.4798C106.434 13.4798 107.231 13.8024 107.876 14.4665C108.522 15.1117 108.844 15.9086 108.844 16.8764C108.844 17.8441 108.522 18.641 107.876 19.3052C107.231 19.9503 106.434 20.2729 105.467 20.2729ZM122.434 17.6354C122.472 17.3887 122.491 17.142 122.491 16.8953C122.491 15.5102 122.055 14.3337 121.163 13.366C120.29 12.3793 119.151 11.8859 117.766 11.8859C116.305 11.8859 115.11 12.3603 114.18 13.3091C113.25 14.2578 112.795 15.4532 112.795 16.8764C112.795 18.3185 113.269 19.5139 114.199 20.4626C115.148 21.3924 116.381 21.8668 117.88 21.8668C119.74 21.8668 121.125 21.1457 122.055 19.7226L120.65 18.9257C120.081 19.8554 119.17 20.3108 117.918 20.3108C116.115 20.3108 114.806 19.3241 114.484 17.6354H122.434ZM117.766 13.4419C119.284 13.4419 120.537 14.3906 120.821 16.1933H114.484C114.768 14.5235 116.002 13.4419 117.766 13.4419ZM126.37 12.1326H124.719V21.6201H126.37V16.5917C126.37 15.5481 126.654 14.8081 127.242 14.3337C127.831 13.8593 128.514 13.6506 129.33 13.6886V11.9618C127.907 11.9618 126.92 12.5501 126.37 13.7265V12.1326Z" fill="#007FFF"/>
</g>
<defs>
<clipPath id="clip0">
<rect width="131" height="27" fill="white"/>
</clipPath>
</defs>
</svg>
