<?xml version="1.0" encoding="UTF-8"?>
<svg width="132px" height="44px" viewBox="0 0 132 44" version="1.1" xmlns="http://www.w3.org/2000/svg" xmlns:xlink="http://www.w3.org/1999/xlink">
    <!-- Generator: Sketch 52.6 (67491) - http://www.bohemiancoding.com/sketch -->
    <title>App Store Badge US Black</title>
    <desc>Created with Sketch.</desc>
    <g id="Page-1" stroke="none" stroke-width="1" fill="none" fill-rule="evenodd">
        <g id="Af-Landin-messager-1200" transform="translate(-60.000000, -581.000000)" fill-rule="nonzero">
            <g id="Group-5">
                <g id="Group-22" transform="translate(30.000000, 228.000000)">
                    <g id="Group-9" transform="translate(30.000000, 353.000000)">
                        <g id="App-Store-Badge-US-Black">
                            <path d="M121.064175,-1.10588622e-16 L10.4808696,-1.10588622e-16 C10.0777795,-1.10588622e-16 9.67952611,-1.10588622e-16 9.27750229,0.0022 C8.94097099,0.0044 8.60712183,0.010791 8.26735878,0.01617 C7.52923641,0.024861984 6.79284986,0.0898438859 6.06459847,0.210551 C5.33736998,0.333885891 4.63292246,0.566407314 3.97508153,0.900251 C3.31804515,1.23691888 2.71769223,1.67438428 2.19580214,2.196777 C1.67117221,2.71770069 1.23385266,3.31981802 0.900659542,3.979976 C0.566546831,4.63882003 0.334871998,5.34483213 0.213636641,6.073628 C0.0912486682,6.8015034 0.0253905864,7.5377726 0.0166534351,8.275828 C0.00645251908,8.613088 0.00537526718,8.95147 0,9.288774 L0,34.71446 C0.00537526718,35.05601 0.00645251908,35.38689 0.0166534351,35.72855 C0.0253932656,36.4665688 0.0912513485,37.2028012 0.213636641,37.93064 C0.334537231,38.6598619 0.566225761,39.3662793 0.900659542,40.02537 C1.23370137,40.6833932 1.67108242,41.2830728 2.19580214,41.8011 C2.71571339,42.3258155 3.31645437,42.7635785 3.97508153,43.09767 C4.63291747,43.4324072 5.33728904,43.6663126 6.06459847,43.79155 C6.79297366,43.9112902 7.52928448,43.9762985 8.26735878,43.98603 C8.60712183,43.99351 8.94097099,43.9978 9.27750229,43.9978 C9.67951511,44 10.0778015,44 10.4808696,44 L121.064175,44 C121.45924,44 121.860682,44 122.255747,43.9978 C122.590685,43.9978 122.934196,43.99351 123.269133,43.98603 C124.005812,43.9768161 124.740737,43.9118036 125.467607,43.79155 C126.197262,43.665431 126.904159,43.4315875 127.56517,43.09767 C128.223203,42.7633851 128.82339,42.325634 129.342856,41.8011 C129.866221,41.281044 130.304536,40.681803 130.641714,40.02537 C130.973638,39.3657998 131.203121,38.6594389 131.322251,37.93064 C131.444832,37.2027014 131.513027,36.4666327 131.526269,35.72855 C131.530556,35.38689 131.530556,35.05601 131.530556,34.71446 C131.53913,34.31483 131.53913,33.9174 131.53913,33.51128 L131.53913,10.489743 C131.53913,10.086912 131.53913,9.687304 131.530556,9.288774 C131.530556,8.95147 131.530556,8.613088 131.526269,8.275784 C131.51303,7.53766469 131.444835,6.80155924 131.322251,6.073584 C131.202789,5.34520976 130.973319,4.6392536 130.641714,3.979932 C129.963182,2.65671569 128.887226,1.57962794 127.56517,0.900152 C126.904157,0.567124118 126.197185,0.334664451 125.467607,0.210452 C124.740863,0.0892130615 124.005862,0.0242085414 123.269133,0.016016 C122.934196,0.010648 122.590685,0.004202 122.255747,0.002057 C121.860682,-0.000143 121.45924,-0.000143 121.064175,-0.000143 L121.064175,-1.10588622e-16 Z" id="Background-Gray" fill="#A6A6A6"></path>
                            <path d="M9.28286656,43.0375 C8.94795115,43.0375 8.62112611,43.03321 8.28883786,43.02573 C7.60047584,43.0167548 6.91372269,42.9567875 6.23421069,42.84632 C5.60060003,42.737121 4.98680161,42.5339909 4.41306137,42.24363 C3.84458203,41.9556749 3.32608316,41.5781001 2.87742779,41.12537 C2.42227822,40.6779728 2.04334542,40.1590684 1.7556458,39.58922 C1.46477598,39.0156681 1.26347676,38.4008895 1.15876031,37.7663 C1.04567563,37.0844264 0.984492136,36.3949446 0.975737405,35.7038 C0.968768244,35.47181 0.95964458,34.69939 0.95964458,34.69939 L0.95964458,9.288774 C0.95964458,9.288774 0.969361832,8.528223 0.975792366,8.30478 C0.984174955,7.61473025 1.04500267,6.92631841 1.15774901,6.245503 C1.26265875,5.60917509 1.46411381,4.99262375 1.75514015,4.417193 C2.0417824,3.84773823 2.41861145,3.32844632 2.87101924,2.879448 C3.32291853,2.42618356 3.84307597,2.04666453 4.41252275,1.754731 C4.98494437,1.46530296 5.59758278,1.2636058 6.22991267,1.156397 C6.91165631,1.04481975 7.60079359,0.984495693 8.29154198,0.975931 L9.28340519,0.9625 L122.250361,0.9625 L123.254074,0.97647 C123.938539,0.984609117 124.621416,1.04439501 125.296895,1.155319 C125.935626,1.26387257 126.55465,1.46697709 127.13361,1.757954 C128.274418,2.34628465 129.202672,3.27707924 129.788266,4.419877 C130.074647,4.99133532 130.272995,5.60285743 130.376578,6.233689 C130.490667,6.92009052 130.554519,7.61391217 130.567625,8.30962 C130.570813,8.62114 130.570813,8.95576 130.570813,9.288774 C130.579497,9.701274 130.579497,10.093897 130.579497,10.489743 L130.579497,33.51128 C130.579497,33.91091 130.579497,34.30086 130.570813,34.694 C130.570813,35.05172 130.570813,35.37941 130.566526,35.71667 C130.553703,36.3999632 130.490916,37.0814007 130.378666,37.75552 C130.276096,38.3946873 130.075893,39.0142644 129.785078,39.59252 C129.495345,40.1561832 129.118588,40.6705928 128.668694,41.11679 C128.219635,41.5719531 127.700221,41.951737 127.130422,42.24154 C126.553066,42.534133 125.934954,42.7380143 125.296895,42.84632 C124.617435,42.9573771 123.930616,43.0173482 123.242202,43.02573 C122.920236,43.03321 122.5831,43.0375 122.255747,43.0375 L121.064175,43.0397 L9.28286656,43.0375 Z" id="Background-Black" fill="#000000"></path>
                            <path d="M46.5002052,29.853615 L41.2970785,29.853615 L40.0475542,33.54571 L37.8437166,33.54571 L42.7720342,19.88591 L45.0617441,19.88591 L49.9900617,33.54571 L47.7486412,33.54571 L46.5002052,29.853615 Z M41.8359573,28.149902 L45.9602931,28.149902 L43.927134,22.157905 L43.8702376,22.157905 L41.8359573,28.149902 Z M60.6335524,28.566703 C60.6335524,31.661531 58.9782559,33.649902 56.4802846,33.649902 C55.189105,33.7174911 53.9728845,33.0407338 53.3489661,31.907502 L53.3016989,31.907502 L53.3016989,36.84032 L51.2588776,36.84032 L51.2588776,23.586618 L53.2362504,23.586618 L53.2362504,25.243064 L53.2738223,25.243064 C53.9254589,24.1169367 55.1429909,23.4404707 56.4427127,23.482415 C58.9685496,23.482426 60.6335524,25.480466 60.6335524,28.566703 Z M58.5338345,28.566703 C58.5338345,26.550403 57.4925606,25.224804 55.9038229,25.224804 C54.3429948,25.224804 53.2931359,26.578321 53.2931359,28.566703 C53.2931359,30.573345 54.3429948,31.917193 55.9038229,31.917193 C57.4925716,31.917193 58.5338345,30.601274 58.5338345,28.566703 Z M71.5872696,28.566703 C71.5872696,31.661531 69.9319731,33.649902 67.4340018,33.649902 C66.1428223,33.7174911 64.9266017,33.0407338 64.3026834,31.907502 L64.2554162,31.907502 L64.2554162,36.84032 L62.2125948,36.84032 L62.2125948,23.586618 L64.1899237,23.586618 L64.1899237,25.243064 L64.2274956,25.243064 C64.8791369,24.1169374 66.0966736,23.4404754 67.3963969,23.482426 C69.9223108,23.482426 71.5872696,25.480466 71.5872696,28.566703 Z M69.4875518,28.566703 C69.4875518,26.550403 68.4462779,25.224804 66.8575402,25.224804 C65.2967121,25.224804 64.2468531,26.578321 64.2468531,28.566703 C64.2468531,30.573345 65.2967121,31.917193 66.8575402,31.917193 C68.4462889,31.917193 69.4875627,30.601274 69.4875627,28.566703 L69.4875518,28.566703 Z M78.8267762,29.739743 C78.9781411,31.094338 80.2931579,31.983743 82.090135,31.983743 C83.8119902,31.983743 85.050775,31.094294 85.050775,29.872898 C85.050775,28.812641 84.3036348,28.177798 82.5345563,27.742726 L80.7654779,27.316256 C78.2589215,26.710398 77.0952696,25.537347 77.0952696,23.63383 C77.0952696,21.276992 79.1477533,19.658144 82.0622253,19.658144 C84.9466223,19.658144 86.9239841,21.276992 86.9905429,23.63383 L84.928375,23.63383 C84.8049307,22.270644 83.6788507,21.4478 82.0332165,21.4478 C80.3875823,21.4478 79.2615133,22.280324 79.2615133,23.49204 C79.2615133,24.457763 79.9807438,25.026023 81.74016,25.46104 L83.2440916,25.830574 C86.0447817,26.493368 87.2084336,27.619174 87.2084336,29.617192 C87.2084336,32.172756 85.1741973,33.773344 81.9387481,33.773344 C78.9115493,33.773344 76.8676617,32.210354 76.7356214,29.739644 L78.8267762,29.739743 Z M91.6172079,21.22978 L91.6172079,23.586618 L93.5097417,23.586618 L93.5097417,25.205466 L91.6172079,25.205466 L91.6172079,30.695797 C91.6172079,31.548726 91.9961478,31.946189 92.8280831,31.946189 C93.0527576,31.9422685 93.2770686,31.9264799 93.5000794,31.898889 L93.5000794,33.508068 C93.1260403,33.5780055 92.745861,33.6096799 92.3654144,33.602602 C90.3505136,33.602602 89.5647243,32.845274 89.5647243,30.913828 L89.5647243,25.205466 L88.1176892,25.205466 L88.1176892,23.586618 L89.5647023,23.586618 L89.5647023,21.22978 L91.6172079,21.22978 Z M94.6058015,28.566703 C94.6058015,25.43321 96.4500238,23.464166 99.3258687,23.464166 C102.211365,23.464166 104.047002,25.433166 104.047002,28.566703 C104.047002,31.708798 102.221027,33.66924 99.3258687,33.66924 C96.4317325,33.66924 94.6058015,31.708787 94.6058015,28.566703 Z M101.965532,28.566703 C101.965532,26.417193 100.981154,25.148541 99.3258577,25.148541 C97.6705612,25.148541 96.6872611,26.426862 96.6872611,28.566703 C96.6872611,30.724804 97.6705612,31.983798 99.3258577,31.983798 C100.981154,31.983798 101.965488,30.724804 101.965488,28.566703 L101.965532,28.566703 Z M105.731242,23.586618 L107.679595,23.586618 L107.679595,25.281718 L107.726862,25.281718 C107.998567,24.1905052 108.997725,23.4394947 110.120702,23.482404 C110.356119,23.4815815 110.590887,23.5071658 110.820608,23.558678 L110.820608,25.470786 C110.523409,25.3799077 110.213379,25.3381824 109.902746,25.347256 C109.302176,25.322875 108.720957,25.5623882 108.311701,26.0029066 C107.902445,26.4434249 107.706038,27.0409378 107.774052,27.638556 L107.774052,33.545688 L105.731231,33.545688 L105.731242,23.586618 Z M120.239231,30.620601 C119.964421,32.428506 118.204994,33.669229 115.953922,33.669229 C113.058764,33.669229 111.261776,31.728114 111.261776,28.613959 C111.261776,25.490135 113.068426,23.464155 115.86805,23.464155 C118.621506,23.464155 120.353024,25.356925 120.353024,28.376557 L120.353024,29.076949 L113.323922,29.076949 L113.323922,29.200479 C113.258295,29.9419138 113.514135,30.6758314 114.026367,31.2155469 C114.538598,31.7552625 115.25785,32.0487566 116.001168,32.021374 C116.992506,32.1143236 117.927144,31.5446754 118.299474,30.62059 L120.239231,30.620601 Z M113.333565,27.648247 L118.309125,27.648236 C118.346197,26.9820072 118.10385,26.3305054 117.64047,25.8506947 C117.177091,25.370884 116.534694,25.1062685 115.86805,25.120601 C115.196133,25.1165885 114.550451,25.3813281 114.07452,25.8559766 C113.598588,26.330625 113.331843,26.9758532 113.333565,27.648247 Z" id="App-Store" fill="#FFFFFF"></path>
                            <path d="M41.579934,9.6041 C42.447173,9.5418226 43.2966144,9.87200217 43.8944552,10.503759 C44.4922959,11.1355158 44.7755204,12.0022593 44.6661728,12.865424 C44.6661728,14.962299 43.5336623,16.167624 41.579934,16.167624 L39.2107823,16.167624 L39.2107823,9.6041 L41.579934,9.6041 Z M40.2294998,15.2394 L41.4661411,15.2394 C42.0859148,15.2764722 42.6893898,15.0321149 43.1090036,14.574177 C43.5286173,14.116239 43.7196967,13.4934739 43.629186,12.8788 C43.7131116,12.266677 43.5192805,11.6490508 43.1007071,11.1948474 C42.6821338,10.7406439 42.0826212,10.4973949 41.4661411,10.531631 L40.2294998,10.531631 L40.2294998,15.2394 Z M45.8169307,13.688774 C45.7320555,12.8009476 46.1574782,11.9417231 46.9147778,11.4714571 C47.6720774,11.0011911 48.6303189,11.0011911 49.3876185,11.4714571 C50.1449181,11.9417231 50.5703409,12.8009476 50.4854656,13.688774 C50.5719557,14.5775545 50.1469213,15.4384454 49.3889502,15.9097238 C48.6309792,16.3810022 47.6714172,16.3810022 46.9134461,15.9097238 C46.1554751,15.4384454 45.7304406,14.5775545 45.8169307,13.688774 Z M49.4806864,13.688774 C49.4806864,12.615097 48.9986931,11.987217 48.1528085,11.987217 C47.3036922,11.987217 46.8260299,12.615097 46.8260299,13.688785 C46.8260299,14.771064 47.3037252,15.394104 48.1528085,15.394104 C48.9987151,15.394093 49.4806974,14.766752 49.4806974,13.688774 L49.4806864,13.688774 Z M56.6912171,16.167525 L55.6778638,16.167525 L54.6548482,12.519474 L54.5775609,12.519474 L53.5588324,16.167525 L52.5551304,16.167525 L51.1907469,11.214302 L52.1815658,11.214302 L53.068254,14.993902 L53.1412544,14.993902 L54.1589056,11.214302 L55.0960489,11.214302 L56.1137002,14.993902 L56.1909875,14.993902 L57.0733777,11.214302 L58.0502363,11.214302 L56.6912171,16.167525 Z M59.1977844,11.214302 L60.1381374,11.214302 L60.1381374,12.001165 L60.2111377,12.001165 C60.4649898,11.4218257 61.0581686,11.0674382 61.6882369,11.11869 C62.1760966,11.0819849 62.6541646,11.2692689 62.9874586,11.6276623 C63.3207525,11.9860557 63.4731038,12.4766661 63.4014962,12.96097 L63.4014962,16.16747 L62.4246376,16.16747 L62.4246376,13.206446 C62.4246376,12.410453 62.0789826,12.014596 61.3565313,12.014596 C61.0256235,11.999173 60.7044863,12.1291308 60.4773119,12.3703985 C60.2501376,12.6116661 60.1395829,12.9401811 60.1746321,13.269817 L60.1746321,16.167525 L59.1977734,16.167525 L59.1977844,11.214302 Z M64.9580373,9.2807 L65.9348959,9.2807 L65.9348959,16.167514 L64.9580373,16.167514 L64.9580373,9.2807 Z M67.2928379,13.688774 C67.2080278,12.8008895 67.6335177,11.9416433 68.3908735,11.47137 C69.1482293,11.0010967 70.1065201,11.0010967 70.8638758,11.47137 C71.6212316,11.9416433 72.0467215,12.8008895 71.9619115,13.688774 C72.0482917,14.5775863 71.6231793,15.4384529 70.8651707,15.9097106 C70.107162,16.3809682 69.1475873,16.3809682 68.3895786,15.9097106 C67.63157,15.4384529 67.2064576,14.5775863 67.2928379,13.688774 Z M70.9565936,13.688774 C70.9565936,12.615097 70.4746003,11.987217 69.6287157,11.987217 C68.7795994,11.987217 68.3019371,12.615097 68.3019371,13.688785 C68.3019371,14.771064 68.7796324,15.394104 69.6287157,15.394104 C70.4746113,15.394093 70.9566046,14.766752 70.9566046,13.688774 L70.9565936,13.688774 Z M72.9903023,14.766752 C72.9903023,13.875147 73.6537136,13.361139 74.8313038,13.288088 L76.1720757,13.210747 L76.1720757,12.78321 C76.1720757,12.260061 75.8264208,11.964656 75.1587224,11.964656 C74.6134021,11.964656 74.2355395,12.164999 74.1271108,12.515195 L73.1813826,12.515195 C73.2812153,11.664411 74.0809539,11.118712 75.2038021,11.118712 C76.4447414,11.118712 77.1446473,11.736912 77.1446473,12.78321 L77.1446473,16.167536 L76.2042834,16.167536 L76.2042834,15.471445 L76.126996,15.471445 C75.8076113,15.979784 75.2396413,16.2768796 74.6402345,16.249145 C74.220036,16.292883 73.8009576,16.1567017 73.486603,15.8742677 C73.1722485,15.5918337 72.9919578,15.1895076 72.9903023,14.766752 Z M76.1720757,14.343505 L76.1720757,13.929399 L74.9633441,14.00674 C74.2816855,14.05239 73.9725252,14.284424 73.9725252,14.721091 C73.9725252,15.166888 74.3589728,15.426312 74.8903878,15.426312 C75.204974,15.4581788 75.5190153,15.3609226 75.7606209,15.1568071 C76.0022265,14.9526917 76.1507083,14.6591952 76.1720757,14.343505 Z M78.4285118,13.688774 C78.4285118,12.123639 79.2325484,11.132132 80.4831389,11.132132 C81.1146249,11.1030151 81.70607,11.4416202 82.0010308,12.001132 L82.0740311,12.001132 L82.0740311,9.2807 L83.0508898,9.2807 L83.0508898,16.167514 L82.1148238,16.167514 L82.1148238,15.384941 L82.0375365,15.384941 C81.7202794,15.9398107 81.1215476,16.2726921 80.4831499,16.249145 C79.2239634,16.2492 78.4285118,15.257671 78.4285118,13.688774 Z M79.437611,13.688774 C79.437611,14.739362 79.9324873,15.371543 80.7601356,15.371543 C81.5834638,15.371543 82.0923115,14.730243 82.0923115,13.693075 C82.0923115,12.660747 81.5781215,12.010306 80.7601356,12.010306 C79.9378186,12.010306 79.437578,12.646777 79.437578,13.688774 L79.437611,13.688774 Z M87.0925191,13.688774 C87.0076439,12.8009476 87.4330666,11.9417231 88.1903662,11.4714571 C88.9476658,11.0011911 89.9059073,11.0011911 90.6632069,11.4714571 C91.4205065,11.9417231 91.8459293,12.8009476 91.761054,13.688774 C91.8475441,14.5775545 91.4225097,15.4384454 90.6645386,15.9097238 C89.9065676,16.3810022 88.9470056,16.3810022 88.1890345,15.9097238 C87.4310635,15.4384454 87.006029,14.5775545 87.0925191,13.688774 Z M90.7562748,13.688774 C90.7562748,12.615097 90.2742815,11.987217 89.4283969,11.987217 C88.5792806,11.987217 88.1016183,12.615097 88.1016183,13.688785 C88.1016183,14.771064 88.5793136,15.394104 89.4283969,15.394104 C90.2742925,15.394093 90.7562748,14.766752 90.7562748,13.688774 Z M93.0717618,11.214302 L94.0121258,11.214302 L94.0121258,12.001165 L94.0851261,12.001165 C94.3389782,11.4218257 94.932157,11.0674382 95.5622253,11.11869 C96.050085,11.0819849 96.528153,11.2692689 96.861447,11.6276623 C97.1947409,11.9860557 97.3470922,12.4766661 97.2754846,12.96097 L97.2754846,16.16747 L96.298626,16.16747 L96.298626,13.206446 C96.298626,12.410453 95.952971,12.014596 95.2305197,12.014596 C94.8996119,11.999173 94.5784747,12.1291308 94.3513003,12.3703985 C94.124126,12.6116661 94.0135713,12.9401811 94.0486205,13.269817 L94.0486205,16.167525 L93.0717618,16.167525 L93.0717618,11.214302 Z M102.79529,9.981103 L102.79529,11.236863 L103.867695,11.236863 L103.867695,12.060257 L102.79529,12.060257 L102.79529,14.60723 C102.79529,15.126078 103.008916,15.353272 103.495196,15.353272 C103.619691,15.3528733 103.744061,15.3453406 103.867695,15.330711 L103.867695,16.144964 C103.692267,16.1763698 103.514527,16.193078 103.336324,16.194915 C102.24997,16.194915 101.817355,15.812489 101.817355,14.857513 L101.817355,12.060213 L101.031576,12.060213 L101.031576,11.236819 L101.817355,11.236819 L101.817355,9.981103 L102.79529,9.981103 Z M105.202014,9.2807 L106.170288,9.2807 L106.170288,12.010295 L106.247575,12.010295 C106.513621,11.4258854 107.117181,11.0710463 107.756827,11.122991 C108.241916,11.096577 108.713513,11.2879841 109.043164,11.6450772 C109.372815,12.0021704 109.526186,12.4877562 109.461501,12.969572 L109.461501,16.167525 L108.483664,16.167525 L108.483664,13.210725 C108.483664,12.419561 108.11542,12.018875 107.42522,12.018875 C107.085368,11.990983 106.750541,12.1146201 106.510251,12.3567329 C106.269962,12.5988457 106.148712,12.9347463 106.178917,13.274635 L106.178917,16.167503 L105.202058,16.167503 L105.202014,9.2807 Z M115.157405,14.830123 C114.883483,15.7644404 113.979956,16.3681133 113.012607,16.263126 C112.352586,16.2805612 111.718268,16.0067938 111.277955,15.5144607 C110.837641,15.0221276 110.635845,14.3610015 110.726107,13.706495 C110.638242,13.0501695 110.839282,12.3879841 111.277144,11.8914917 C111.715006,11.3949992 112.346604,11.1130544 113.008309,11.118701 C114.385576,11.118701 115.216445,12.060301 115.216445,13.615701 L115.216445,13.9568 L111.721213,13.9568 L111.721213,14.01158 C111.690283,14.3791342 111.815726,14.7426925 112.066693,15.0128448 C112.31766,15.282997 112.670863,15.4346763 113.039439,15.43058 C113.517357,15.4879942 113.982576,15.2507663 114.217041,14.83009 L115.157405,14.830123 Z M111.721191,13.233836 L114.221306,13.233836 C114.246207,12.8976765 114.128089,12.5666256 113.89606,12.322265 C113.664032,12.0779044 113.339671,11.9429598 113.002912,11.950686 C112.66159,11.9463948 112.333002,12.0802234 112.091685,12.3218138 C111.850367,12.5634042 111.716775,12.8922791 111.721213,13.233836 L111.721191,13.233836 Z" id="Download-on-the" fill="#FFFFFF"></path>
                            <path d="M27.2268605,22.330748 C27.2508865,20.46463 28.2285321,18.7409047 29.8172776,17.763482 C28.8104566,16.324564 27.1845531,15.4449662 25.4300482,15.390034 C23.5841661,15.196148 21.7946638,16.495347 20.854036,16.495347 C19.8952049,16.495347 18.4469606,15.409284 16.8874406,15.441393 C14.8355189,15.5077323 12.9689447,16.646878 11.9706431,18.44205 C9.84471939,22.125312 11.4304672,27.538467 13.466924,30.515738 C14.4858064,31.973623 15.6765875,33.602118 17.2347005,33.544368 C18.7594076,33.481085 19.3288562,32.57144 21.1693081,32.57144 C22.9926779,32.57144 23.5269398,33.544368 25.1166669,33.50765 C26.7527487,33.481074 27.7835579,32.043286 28.7666931,30.571596 C29.4987585,29.5327997 30.0620816,28.3847035 30.435796,27.169835 C28.4926277,26.3473994 27.2291285,24.4420378 27.2268605,22.330748 Z M24.2241527,13.431979 C25.1162124,12.3603501 25.5556964,10.9829527 25.4492739,9.592297 C24.0864049,9.73553954 22.8274958,10.3873546 21.9233844,11.417868 C21.030616,12.4346079 20.5783416,13.7647759 20.6661765,15.115397 C22.0473199,15.1296274 23.3586864,14.5091685 24.2241527,13.431979 Z" id="Icon" fill="#FFFFFF"></path>
                        </g>
                    </g>
                </g>
            </g>
        </g>
    </g>
</svg>