<?xml version="1.0" encoding="UTF-8"?>
<svg width="149px" height="44px" viewBox="0 0 149 44" version="1.1" xmlns="http://www.w3.org/2000/svg" xmlns:xlink="http://www.w3.org/1999/xlink">
    <!-- Generator: Sketch 52.6 (67491) - http://www.bohemiancoding.com/sketch -->
    <title>Google Play Badge US</title>
    <desc>Created with Sketch.</desc>
    <defs>
        <linearGradient x1="91.488428%" y1="4.9481245%" x2="-38.3517333%" y2="71.9074222%" id="linearGradient-1">
            <stop stop-color="#00A0FF" offset="0%"></stop>
            <stop stop-color="#00A1FF" offset="1%"></stop>
            <stop stop-color="#00BEFF" offset="26%"></stop>
            <stop stop-color="#00D2FF" offset="51%"></stop>
            <stop stop-color="#00DFFF" offset="76%"></stop>
            <stop stop-color="#00E3FF" offset="100%"></stop>
        </linearGradient>
        <linearGradient x1="107.684729%" y1="50%" x2="-130.640394%" y2="50%" id="linearGradient-2">
            <stop stop-color="#FFE000" offset="0%"></stop>
            <stop stop-color="#FFBD00" offset="41%"></stop>
            <stop stop-color="#FFA500" offset="78%"></stop>
            <stop stop-color="#FF9C00" offset="100%"></stop>
        </linearGradient>
        <linearGradient x1="86.219293%" y1="17.8768889%" x2="-50.1497903%" y2="194.702638%" id="linearGradient-3">
            <stop stop-color="#FF3A44" offset="0%"></stop>
            <stop stop-color="#C31162" offset="100%"></stop>
        </linearGradient>
        <linearGradient x1="-18.7537448%" y1="-54.0521474%" x2="42.1210306%" y2="24.9170664%" id="linearGradient-4">
            <stop stop-color="#32A071" offset="0%"></stop>
            <stop stop-color="#2DA771" offset="7%"></stop>
            <stop stop-color="#15CF74" offset="48%"></stop>
            <stop stop-color="#06E775" offset="80%"></stop>
            <stop stop-color="#00F076" offset="100%"></stop>
        </linearGradient>
    </defs>
    <g id="Page-1" stroke="none" stroke-width="1" fill="none" fill-rule="evenodd">
        <g id="Af-Landin-messager-1200" transform="translate(-216.000000, -581.000000)" fill-rule="nonzero">
            <g id="Group-5">
                <g id="Group-22" transform="translate(30.000000, 228.000000)">
                    <g id="Group-9" transform="translate(30.000000, 353.000000)">
                        <g id="Google-Play-Badge-US" transform="translate(156.603053, 0.000000)">
                            <rect id="Background-Black" fill="#000000" x="0" y="0" width="148.396947" height="44" rx="5.5"></rect>
                            <path d="M142.900763,0.88 C145.450548,0.88 147.517557,2.94844446 147.517557,5.5 L147.517557,38.5 C147.517557,41.0515555 145.450548,43.12 142.900763,43.12 L5.49618321,43.12 C2.94639835,43.12 0.879389313,41.0515555 0.879389313,38.5 L0.879389313,5.5 C0.879389313,2.94844446 2.94639835,0.88 5.49618321,0.88 L142.900763,0.88 Z M142.900763,0 L5.49618321,0 C2.46072504,1.95399252e-15 0,2.46243388 0,5.5 L0,38.5 C0,41.5375661 2.46072504,44 5.49618321,44 L142.900763,44 C145.936222,44 148.396947,41.5375661 148.396947,38.5 L148.396947,5.5 C148.396947,2.46243388 145.936222,1.95399252e-15 142.900763,0 Z" id="Border-Gray" fill="#A6A6A6"></path>
                            <path d="M74.9019847,23.925 C72.324742,23.9371368 70.2441606,26.0355493 70.2522367,28.6145977 C70.2603127,31.1936461 72.3539951,33.2789691 74.9312632,33.2749425 C77.5085314,33.270916 79.5956967,31.1790611 79.5957252,28.6 C79.6138329,27.3508112 79.1244073,26.1477807 78.2395476,25.266454 C77.354688,24.3851273 76.1502079,23.9010152 74.9019847,23.925 Z M74.9019847,31.438 C73.7403415,31.5192958 72.6470909,30.8817448 72.1451227,29.8302808 C71.6431544,28.7788167 71.8344944,27.5271511 72.6276266,26.6739418 C73.4207589,25.8207326 74.6544783,25.5393956 75.7387103,25.9644914 C76.8229423,26.3895871 77.5373154,27.4347143 77.5401527,28.6 C77.5759249,29.3289391 77.3159443,30.041432 76.8192077,30.5757948 C76.3224711,31.1101575 75.6310997,31.421078 74.9019847,31.438 Z M64.6680916,23.925 C62.0893918,23.9310718 60.0032913,26.0268215 60.007334,28.6073161 C60.0113766,31.1878106 62.1040333,33.2770048 64.6827395,33.2749856 C67.2614456,33.2729665 69.3508326,31.1804977 69.3508397,28.6 C69.3689474,27.3508112 68.8795218,26.1477807 67.9946621,25.266454 C67.1098025,24.3851273 65.9053224,23.9010152 64.6570992,23.925 L64.6680916,23.925 Z M64.6680916,31.438 C63.505842,31.5238803 62.4094038,30.8895084 61.9038981,29.8387063 C61.3983923,28.7879041 61.5867365,27.5346077 62.3787262,26.6790627 C63.1707158,25.8235178 64.4051075,25.5399073 65.4907096,25.9640619 C66.5763116,26.3882165 67.292103,27.4337812 67.2952672,28.6 C67.3310394,29.3289391 67.0710588,30.041432 66.5743222,30.5757948 C66.0775856,31.1101575 65.3862142,31.421078 64.6570992,31.438 L64.6680916,31.438 Z M52.4775573,25.366 L52.4775573,27.346 L57.2262595,27.346 C57.151801,28.2785842 56.7644094,29.1585739 56.1270229,29.843 C55.1663152,30.8222471 53.8368109,31.3496238 52.4665649,31.295 C49.552525,31.295 47.190229,28.9310635 47.190229,26.015 C47.190229,23.0989365 49.552525,20.735 52.4665649,20.735 C53.8052106,20.7131527 55.0978757,21.2234573 56.0610687,22.154 L57.4570992,20.757 C56.143423,19.4258439 54.3470493,18.6837795 52.4775573,18.7 C49.8162622,18.5963569 47.3115776,19.958039 45.9501296,22.2486628 C44.5886816,24.5392866 44.5886816,27.3917134 45.9501296,29.6823372 C47.3115776,31.972961 49.8162622,33.3346431 52.4775573,33.231 C54.3811768,33.3170798 56.2289669,32.5750439 57.5450382,31.196 C58.6966817,29.9298137 59.3115588,28.2653373 59.2598473,26.554 C59.2633944,26.137087 59.2265813,25.7208103 59.1499237,25.311 L52.4775573,25.366 Z M102.283969,26.906 C101.697065,25.1781311 100.105203,23.9921583 98.2827481,23.925 C97.067392,23.9226221 95.9052587,24.4237483 95.0722949,25.3093869 C94.2393312,26.1950255 93.8098393,27.3861754 93.8858015,28.6 C93.8588053,29.8422257 94.3377685,31.0420312 95.2126375,31.9237315 C96.0875065,32.8054318 97.2830564,33.2932147 98.5245802,33.275 C100.08644,33.2834249 101.548188,32.5065901 102.415878,31.207 L100.821985,30.107 C100.338041,30.9143364 99.4653687,31.4073837 98.5245802,31.405 C97.5502074,31.4421636 96.6521858,30.8794198 96.2601527,29.986 L102.514809,27.401 L102.283969,26.906 Z M95.9083969,28.468 C95.8633853,27.7806807 96.0967245,27.1041595 96.5558107,26.5909502 C97.0148969,26.077741 97.6610861,25.7710438 98.3487023,25.74 C99.0735058,25.6922068 99.7568974,26.0817508 100.085496,26.73 L95.9083969,28.468 Z M90.8299237,33 L92.8854962,33 L92.8854962,19.25 L90.8299237,19.25 L90.8299237,33 Z M87.4662595,24.97 L87.389313,24.97 C86.7627064,24.2689445 85.8669331,23.8687679 84.9270229,23.87 C82.4319172,23.9910788 80.4710881,26.0507276 80.4710881,28.5505 C80.4710881,31.0502724 82.4319172,33.1099212 84.9270229,33.231 C85.8699799,33.2468661 86.7715595,32.8440957 87.389313,32.131 L87.4552672,32.131 L87.4552672,32.802 C87.4552672,34.595 86.4989313,35.552 84.96,35.552 C83.9116613,35.5274452 82.9821744,34.8711368 82.6076336,33.891 L80.8158779,34.639 C81.5058485,36.3184921 83.1454141,37.4108442 84.96,37.4 C87.3673282,37.4 89.3569466,35.981 89.3569466,32.527 L89.3569466,24.2 L87.4662595,24.2 L87.4662595,24.97 Z M85.1138931,31.438 C83.6440902,31.3083758 82.5168106,30.0765245 82.5168106,28.6 C82.5168106,27.1234755 83.6440902,25.8916242 85.1138931,25.762 C85.8241315,25.7984733 86.4895723,26.1203472 86.9593464,26.6546461 C87.4291204,27.1889451 87.6634329,27.8904085 87.6091603,28.6 C87.6697665,29.3128544 87.4362037,30.0194743 86.9627765,30.5555665 C86.4893494,31.0916587 85.8173061,31.4105152 85.1029008,31.438 L85.1138931,31.438 Z M111.913282,19.25 L106.999695,19.25 L106.999695,33 L109.055267,33 L109.055267,27.786 L111.924275,27.786 C113.521118,27.9008002 115.048277,27.1133599 115.88167,25.7454703 C116.715063,24.3775807 116.715063,22.6584193 115.88167,21.2905297 C115.048277,19.9226401 113.521118,19.1351998 111.924275,19.25 L111.913282,19.25 Z M111.913282,25.85 L109.044275,25.85 L109.044275,21.164 L111.957252,21.164 C113.259463,21.164 114.315115,22.2203841 114.315115,23.5235 C114.315115,24.8266159 113.259463,25.883 111.957252,25.883 L111.913282,25.85 Z M124.587481,23.87 C123.058127,23.7785228 121.620297,24.6037968 120.927023,25.971 L122.751756,26.73 C123.119347,26.052035 123.852229,25.6551411 124.620458,25.718 C125.147573,25.6563941 125.677323,25.8092671 126.090718,26.1422812 C126.504113,26.4752953 126.766496,26.9605324 126.818931,27.489 L126.818931,27.632 C126.158722,27.282199 125.422453,27.1008377 124.67542,27.104 C122.707786,27.104 120.718168,28.204 120.718168,30.195 C120.757397,31.0526797 121.141638,31.8580125 121.783473,32.4277771 C122.425307,32.9975417 123.270154,33.2832859 124.125802,33.22 C125.180221,33.2957714 126.191893,32.7895845 126.763969,31.9 L126.829924,31.9 L126.829924,33 L128.80855,33 L128.80855,27.709 C128.80855,25.3 126.983817,23.903 124.642443,23.903 L124.587481,23.87 Z M124.334656,31.405 C123.664122,31.405 122.729771,31.064 122.729771,30.239 C122.729771,29.139 123.894962,28.776 124.928244,28.776 C125.581237,28.7598761 126.226587,28.9194261 126.796947,29.238 C126.654811,30.4693565 125.627934,31.4077946 124.389618,31.438 L124.334656,31.405 Z M136.019542,24.2 L133.667176,30.162 L133.601221,30.162 L131.160916,24.2 L128.962443,24.2 L132.622901,32.538 L130.534351,37.169 L132.677863,37.169 L138.305954,24.2 L136.019542,24.2 Z M117.541374,33 L119.596947,33 L119.596947,19.25 L117.541374,19.25 L117.541374,33 Z" id="Google-Play" fill="#FFFFFF"></path>
                            <path d="M52.1258015,11.264 C52.1635642,12.0793542 51.8655766,12.8745396 51.301374,13.464 C50.6709066,14.1193835 49.7915547,14.4753684 48.8830534,14.443 C47.4895954,14.4320866 46.238453,13.5863378 45.7081193,12.2968039 C45.1777855,11.0072701 45.4716116,9.5252547 46.4537405,8.536 C47.0918836,7.88405856 47.9713233,7.52566697 48.8830534,7.546 C49.3477641,7.54445058 49.8078807,7.63803515 50.2351145,7.821 C50.6328782,7.98154892 50.9869748,8.23411221 51.2683969,8.558 L50.6858015,9.141 C50.2409919,8.61154409 49.5732475,8.32225885 48.8830534,8.36 C48.1892695,8.35659426 47.5240445,8.63619643 47.0407724,9.13433306 C46.5575004,9.63246969 46.2978998,10.3061391 46.3218321,11 C46.3071044,12.0485087 46.9241879,13.0029235 47.8859725,13.4191841 C48.847757,13.8354448 49.9653536,13.6318002 50.7187786,12.903 C51.0570242,12.5361903 51.2521095,12.0598514 51.2683969,11.561 L48.8830534,11.561 L48.8830534,10.769 L52.0818321,10.769 C52.1111522,10.9323655 52.1258668,11.0980206 52.1258015,11.264 Z M57.1603053,8.514 L54.1923664,8.514 L54.1923664,10.604 L56.8964885,10.604 L56.8964885,11.396 L54.1923664,11.396 L54.1923664,13.486 L57.1603053,13.486 L57.1603053,14.3 L53.3129771,14.3 L53.3129771,7.7 L57.1603053,7.7 L57.1603053,8.514 Z M60.7658015,14.3 L59.9193893,14.3 L59.9193893,8.514 L58.0726718,8.514 L58.0726718,7.7 L62.6564885,7.7 L62.6564885,8.514 L60.7658015,8.514 L60.7658015,14.3 Z M65.8882443,14.3 L65.8882443,7.7 L66.7346565,7.7 L66.7346565,14.3 L65.8882443,14.3 Z M70.4940458,14.3 L69.6476336,14.3 L69.6476336,8.514 L67.800916,8.514 L67.800916,7.7 L72.329771,7.7 L72.329771,8.514 L70.4940458,8.514 L70.4940458,14.3 Z M80.9148092,13.442 C79.577027,14.7732507 77.4159501,14.7732507 76.0781679,13.442 C74.7813643,12.0683573 74.7813643,9.92064274 76.0781679,8.547 C76.7179219,7.90212136 77.5884265,7.53943626 78.4964885,7.53943626 C79.4045506,7.53943626 80.2750552,7.90212136 80.9148092,8.547 C82.2171468,9.91843583 82.2171468,12.0705642 80.9148092,13.442 Z M76.7047328,12.892 C77.6955011,13.8793216 79.297476,13.8793216 80.2882443,12.892 C81.2612867,11.8185883 81.2612867,10.1814117 80.2882443,9.108 C79.297476,8.12067842 77.6955011,8.12067842 76.7047328,9.108 C75.7316904,10.1814117 75.7316904,11.8185883 76.7047328,12.892 Z M83.0803053,14.3 L83.0803053,7.7 L84.1135878,7.7 L87.3233588,12.837 L87.3233588,7.7 L88.169771,7.7 L88.169771,14.3 L87.2903817,14.3 L83.9377099,8.921 L83.9377099,14.3 L83.0803053,14.3 Z" id="GET-IT-ON" stroke="#FFFFFF" stroke-width="0.733333333" fill="#FFFFFF"></path>
                            <g id="Icon" transform="translate(9.893130, 7.700000)">
                                <path d="M1.58290076,0.594 C1.22462102,1.02421917 1.04378416,1.57497441 1.07725191,2.134 L1.07725191,26.466 C1.04378416,27.0250256 1.22462102,27.5757808 1.58290076,28.006 L1.65984733,28.083 L15.2793893,14.465 L15.2793893,14.146 L1.65984733,0.517 L1.58290076,0.594 Z" id="Shape" fill="url(#linearGradient-1)"></path>
                                <path d="M19.7862595,19.008 L15.2793893,14.465 L15.2793893,14.146 L19.7862595,9.592 L19.8851908,9.647 L25.2824427,12.716 C26.821374,13.585 26.821374,15.015 25.2824427,15.895 L19.9071756,18.953 L19.7862595,19.008 Z" id="Shape" fill="url(#linearGradient-2)"></path>
                                <path d="M19.9181679,18.942 L15.2793893,14.3 L1.58290076,28.006 C2.23004086,28.5752746 3.19045626,28.6029982 3.86931298,28.072 L19.9291603,18.942" id="Shape" fill="url(#linearGradient-3)"></path>
                                <path d="M19.9181679,9.658 L3.85832061,0.528 C3.1794639,-0.00299817001 2.2190485,0.0247253595 1.5719084,0.594 L15.2793893,14.3 L19.9181679,9.658 Z" id="Shape" fill="url(#linearGradient-4)"></path>
                                <path d="M19.7862595,18.843 L3.85832061,27.918 C3.20651564,28.4056701 2.3116523,28.4056701 1.65984733,27.918 L1.58290076,27.995 L1.65984733,28.072 C2.3104259,28.5633472 3.20774204,28.5633472 3.85832061,28.072 L19.9181679,18.942 L19.7862595,18.843 Z" id="Shape" fill="#000000" opacity="0.2"></path>
                                <path d="M1.58290076,27.852 C1.22462102,27.4217808 1.04378416,26.8710256 1.07725191,26.312 L1.07725191,26.477 C1.04378416,27.0360256 1.22462102,27.5867808 1.58290076,28.017 L1.65984733,27.94 L1.58290076,27.852 Z M25.2824427,15.73 L19.7862595,18.843 L19.8851908,18.942 L25.2824427,15.884 C25.905787,15.5909745 26.325034,14.9868396 26.3816794,14.3 C26.2563988,14.9213217 25.8504249,15.4494544 25.2824427,15.73 Z" id="Shape" fill="#000000" opacity="0.12"></path>
                                <path d="M3.85832061,0.682 L25.2824427,12.87 C25.8504249,13.1505456 26.2563988,13.6786783 26.3816794,14.3 C26.325034,13.6131604 25.905787,13.0090255 25.2824427,12.716 L3.85832061,0.528 C2.31938931,-0.341 1.06625954,0.385 1.06625954,2.145 L1.06625954,2.31 C1.09923664,0.539 2.33038168,-0.187 3.85832061,0.682 Z" id="Shape" fill="#FFFFFF" opacity="0.25"></path>
                            </g>
                        </g>
                    </g>
                </g>
            </g>
        </g>
    </g>
</svg>