<svg width="106" height="25" viewBox="0 0 106 25" fill="none" xmlns="http://www.w3.org/2000/svg">
<path fill-rule="evenodd" clip-rule="evenodd" d="M81.8917 9.15241C82.7578 8.69834 83.6342 8.37044 84.6301 8.38112C85.6804 8.39239 86.6259 8.70648 87.4545 9.33993C88.6607 10.2622 89.3063 11.4934 89.3355 13.015C89.3536 13.959 89.3501 14.903 89.3466 15.847C89.3451 16.2606 89.3435 16.6742 89.3438 17.0877V18.3303L89.3439 18.3805C89.3442 18.4558 89.3445 18.5311 89.3392 18.6064C89.3236 18.8252 89.2573 18.8912 89.0456 18.9097L89.0391 18.9098L89.0284 18.9105L89.0284 18.9105C89.0226 18.9109 89.0168 18.9113 89.0111 18.9113C88.8754 18.9113 88.7397 18.9117 88.6041 18.9122H88.6039C88.2795 18.9133 87.955 18.9144 87.6305 18.9092C87.3774 18.9051 87.3111 18.8305 87.2957 18.5735C87.2903 18.4828 87.2907 18.3921 87.2911 18.3014L87.2914 18.2283L87.2916 17.1092C87.292 15.9061 87.2923 14.703 87.2888 13.4999C87.2888 13.2467 87.2826 12.9906 87.2361 12.7442C87.029 11.6437 86.4112 10.8682 85.322 10.562C83.6692 10.0974 82.1876 11.1455 81.9085 12.7019C81.8732 12.8985 81.873 13.1029 81.8729 13.3047L81.8728 13.3554C81.87 15.012 81.8694 16.6687 81.8707 18.3254C81.8736 18.4406 81.8704 18.5558 81.8613 18.6706C81.8447 18.8275 81.7745 18.8903 81.6162 18.9083C81.5704 18.9125 81.5243 18.9142 81.4782 18.9133H80.1666C80.1205 18.9141 80.0744 18.9118 80.0286 18.9064C79.8769 18.8862 79.8056 18.8167 79.7925 18.6591C79.7841 18.5574 79.7846 18.4548 79.7851 18.3525V18.3524L79.7854 18.2797V9.75457V3.6455L79.7851 3.57073C79.7846 3.4806 79.7841 3.39048 79.7902 3.30035C79.8035 3.10868 79.874 3.04287 80.0725 3.02424C80.1128 3.02061 80.1531 3.02069 80.1933 3.02076L80.2106 3.02078H81.4531C81.5106 3.01957 81.5681 3.02234 81.6252 3.02907C81.7759 3.05047 81.847 3.1211 81.8624 3.27803C81.8624 5.19474 81.8917 9.15241 81.8917 9.15241ZM63.9943 18.9261C64.6354 18.7215 65.8167 18.1263 65.8167 18.1263C65.8167 18.1263 65.8146 18.4806 65.8365 18.6592C65.8561 18.8166 65.9239 18.8847 66.0772 18.904C66.146 18.911 66.2151 18.9138 66.2843 18.9123H67.423L67.4402 18.9123C67.4919 18.9124 67.544 18.9124 67.5954 18.9075C67.7735 18.8902 67.8469 18.8237 67.8618 18.6525C67.87 18.5598 67.8695 18.4671 67.869 18.3745L67.8687 18.3074V3.60764L67.869 3.54343C67.8694 3.4728 67.8698 3.40216 67.8657 3.33153C67.8531 3.10948 67.7896 3.02895 67.5797 3.02527C67.2361 3.01905 66.8925 3.02028 66.5489 3.02151C66.4093 3.02201 66.2697 3.02251 66.1301 3.02251C66.1069 3.02278 66.0838 3.02509 66.0611 3.02941C65.9253 3.05357 65.854 3.11823 65.8397 3.25421C65.829 3.38024 65.8248 3.50673 65.8271 3.63318C65.8271 5.303 65.8167 9.44014 65.8167 9.44014C65.8167 9.44014 64.4152 8.34864 62.397 8.37893C61.4771 8.39273 60.6227 8.61271 59.8284 9.06922C57.5505 10.3785 56.6678 12.8299 57.2403 15.1143C57.7608 17.1972 59.7649 19.1532 62.3255 19.1394C62.8917 19.1364 63.4506 19.1014 63.9943 18.9261ZM62.417 17.0764C60.4633 17.0352 59.128 15.517 59.1497 13.7238C59.1487 11.8541 60.7376 10.4353 62.4752 10.4549C64.345 10.476 65.8043 12.0059 65.7698 13.8711C65.7376 15.6065 64.2677 17.1155 62.417 17.0764ZM100.118 8.38266C99.0212 8.48188 97.2817 9.42845 97.2817 9.42845V8.78395C97.2638 8.62909 97.1927 8.55868 97.0415 8.53706C96.9844 8.52999 96.9269 8.52691 96.8694 8.52785C96.4667 8.52662 96.0641 8.52662 95.6616 8.52785C95.5923 8.52671 95.5231 8.53133 95.4545 8.54166C95.3404 8.56167 95.2665 8.63369 95.2548 8.74874C95.2435 8.87466 95.2386 9.00107 95.2401 9.12748V23.7582L95.2399 23.8167C95.2396 23.9007 95.2392 23.9849 95.2454 24.0686C95.2613 24.2837 95.3289 24.3638 95.5422 24.3677C96.0257 24.3771 96.5089 24.3771 96.9918 24.3677C97.1994 24.3636 97.2702 24.2789 97.2861 24.0631C97.2936 23.9604 97.2932 23.8576 97.2927 23.7547L97.2925 23.6836C97.2913 22.0042 97.2913 20.3249 97.2925 18.6457C97.2914 18.5078 97.2979 18.37 97.3121 18.2329C97.3257 18.1158 97.4097 18.0755 97.5098 18.1296C97.5585 18.1559 97.6049 18.1858 97.6517 18.216L97.6519 18.2161C97.6728 18.2296 97.6937 18.2431 97.715 18.2563C98.9242 19.0223 100.238 19.3007 101.644 19.0366C102.92 18.7968 103.993 18.1793 104.809 17.1567C105.67 16.0779 106.064 14.8472 105.992 13.4646C105.909 11.908 105.273 10.6192 104.092 9.62058C102.95 8.65601 101.614 8.24759 100.118 8.38266ZM103.936 13.7522C103.932 15.6049 102.391 17.0909 100.641 17.0285L100.263 17.0151C98.4958 16.8479 97.3145 15.285 97.3218 13.7421C97.3303 11.9411 98.7684 10.4321 100.63 10.4287C102.587 10.425 103.94 12.0509 103.936 13.7522ZM100.272 17.0159C100.393 17.027 100.516 17.0316 100.641 17.0292L100.272 17.0159ZM35.8721 8.78319C34.9864 9.64836 32.9593 11.2936 32.9593 11.2936C32.9216 9.55089 32.9314 7.80601 32.9412 6.06179V6.06178V6.06178V6.06177V6.06176V6.06176V6.06175V6.06172V6.06169V6.06166V6.06163V6.0616V6.06156C32.9456 5.26966 32.9501 4.4779 32.9501 3.68655L32.9503 3.60967C32.9508 3.50887 32.9513 3.40767 32.9443 3.30735C32.9308 3.11222 32.862 3.04734 32.6652 3.02801C32.6309 3.02456 32.5964 3.02456 32.5619 3.02456H31.2856C31.2394 3.02385 31.1933 3.02662 31.1475 3.03284C30.9954 3.05608 30.9225 3.12419 30.9084 3.28019C30.8964 3.4146 30.8965 3.54975 30.8967 3.68464L30.8967 3.72819V18.1822L30.8966 18.2496C30.8964 18.3306 30.8962 18.4117 30.8985 18.4926C30.8994 18.5615 30.9049 18.6303 30.9151 18.6985C30.9211 18.7506 30.9445 18.7992 30.9816 18.8363C31.0187 18.8733 31.0673 18.8967 31.1194 18.9026C31.1992 18.9133 31.2797 18.9177 31.3601 18.9157H32.4984L32.5199 18.9158C32.5702 18.9159 32.6208 18.916 32.6707 18.9111C32.862 18.893 32.9291 18.8248 32.9443 18.626C32.9593 17.3451 32.9593 14.837 32.9593 14.837C32.9593 14.837 35.4246 17.3836 36.6022 18.6562C36.7713 18.8391 36.9565 18.9224 37.2071 18.9185C37.692 18.9108 38.1778 18.9122 38.6634 18.9137H38.6634H38.6635H38.6635H38.6636H38.6636H38.6637C38.8566 18.9142 39.0495 18.9148 39.2423 18.9148C39.2997 18.9184 39.3573 18.9161 39.4142 18.9079C39.4475 18.9008 39.4788 18.8845 39.5124 18.8669C39.528 18.8588 39.544 18.8504 39.561 18.8426C39.5184 18.7236 39.4438 18.6492 39.3719 18.5776L39.3719 18.5776L39.3719 18.5775C39.3545 18.5602 39.3373 18.5431 39.3208 18.5255C37.6613 16.7641 34.2501 13.0538 34.2501 13.0538C34.2501 13.0538 37.4384 10.1888 39.023 8.75075L39.0283 8.74594L39.0382 8.73722C39.0832 8.69779 39.1333 8.65385 39.0921 8.55976C39.0725 8.55755 39.0521 8.55467 39.0311 8.5517C38.98 8.54449 38.9252 8.53675 38.8702 8.53675C38.6804 8.53434 38.4906 8.53464 38.3008 8.53494L38.1109 8.53514C37.9552 8.53514 37.7994 8.536 37.6436 8.53686L37.6433 8.53686C37.27 8.53892 36.8966 8.54097 36.5233 8.53123C36.2632 8.52433 36.0506 8.59911 35.8721 8.78319ZM70.8233 15.7156C70.8992 15.7156 70.9752 15.7152 71.0511 15.7148C71.2283 15.7138 71.4054 15.7127 71.5826 15.7173C71.7849 15.7225 71.8389 15.7601 71.8541 15.9499C71.875 16.2131 72.0117 16.4002 72.1993 16.5631C72.3627 16.7093 72.5529 16.8226 72.7593 16.8967C73.6199 17.1959 74.4572 17.1369 75.26 16.7057C75.4102 16.622 75.5448 16.513 75.6581 16.3836C75.8652 16.1496 75.8721 15.8832 75.6976 15.6222C75.5467 15.3965 75.3343 15.24 75.0941 15.1208C74.8759 15.0158 74.6432 14.9437 74.4038 14.9071C74.1983 14.8723 73.9928 14.8384 73.7873 14.8044L73.7871 14.8044L73.7869 14.8043L73.7866 14.8043L73.7864 14.8043L73.7862 14.8042L73.7862 14.8042L73.7862 14.8042L73.7861 14.8042L73.7861 14.8042L73.7861 14.8042C73.4477 14.7483 73.1095 14.6924 72.7717 14.633C72.0055 14.4984 71.3283 14.1745 70.7513 13.6512C70.3074 13.2485 69.9724 12.7706 69.8382 12.1786C69.671 11.4404 69.7722 10.7389 70.1806 10.0921C70.4174 9.71702 70.7294 9.41352 71.0883 9.15742C71.7216 8.70598 72.431 8.46829 73.2025 8.38821C73.9687 8.3086 74.7174 8.3698 75.4501 8.60749C76.1173 8.82424 76.7103 9.16525 77.1831 9.69401C77.6033 10.1639 77.8566 10.7064 77.882 11.3424C77.8978 11.7421 77.8392 11.8026 77.4344 11.8049C77.1584 11.8072 76.8824 11.8065 76.6063 11.8057H76.6061C76.468 11.8053 76.33 11.8049 76.1919 11.8049C76.1344 11.8049 76.0768 11.8026 76.0196 11.7996C75.9158 11.7941 75.8461 11.7462 75.8253 11.6386C75.8245 11.6339 75.8233 11.6291 75.8221 11.6244L75.822 11.6243L75.822 11.6242C75.8203 11.6176 75.8187 11.6111 75.818 11.605C75.766 11.1045 75.4296 10.8369 75.0106 10.6588C74.521 10.4493 73.9834 10.3777 73.456 10.4517C73.0649 10.5046 72.6924 10.6218 72.3596 10.8401C72.2433 10.9139 72.1361 11.0014 72.0405 11.1006C71.7839 11.3767 71.7752 11.6758 72.0076 11.9724C72.228 12.2529 72.5196 12.4354 72.8589 12.5309C73.0773 12.5924 73.3029 12.6309 73.5272 12.6692L73.5336 12.6703C73.7209 12.7024 73.9086 12.7318 74.0964 12.7611L74.0965 12.7611L74.0965 12.7612L74.0966 12.7612L74.0967 12.7612L74.0968 12.7612C74.3405 12.7993 74.5841 12.8374 74.8267 12.8815C75.6848 13.038 76.439 13.3988 77.0713 14.0125C78.1926 15.1004 78.1845 16.9908 76.9494 18.0654C76.4724 18.4796 75.9369 18.7861 75.3283 18.9503C74.3773 19.2071 73.4185 19.2198 72.4639 18.9734C71.7156 18.7796 71.0513 18.4234 70.5195 17.8482C70.1868 17.4883 69.9213 17.0866 69.8217 16.599C69.7846 16.4075 69.767 16.2128 69.7692 16.0178C69.7692 15.8045 69.8516 15.726 70.0635 15.7186C70.2397 15.7122 70.4159 15.7137 70.5921 15.7152C70.669 15.7159 70.7459 15.7166 70.8228 15.7166L70.8233 15.7156ZM48.2968 8.87015C48.0948 8.9576 47.8935 9.04471 47.6909 9.11799C47.6909 9.11799 47.7109 8.84003 47.6909 8.72774C47.6841 8.68156 47.6625 8.63884 47.6293 8.60607C47.5961 8.5733 47.5531 8.55228 47.5068 8.5462C47.4382 8.53623 47.3689 8.53215 47.2997 8.534C46.874 8.53293 46.4483 8.53293 46.0227 8.534C45.9534 8.53209 45.8841 8.53648 45.8156 8.54711C45.7164 8.56667 45.6464 8.63156 45.6333 8.73119C45.6207 8.84578 45.6155 8.96108 45.6179 9.07634V12.4588V18.3262L45.6179 18.3869C45.6176 18.4817 45.6174 18.5765 45.6267 18.6714C45.643 18.8244 45.7152 18.8904 45.8731 18.9081C45.9304 18.9132 45.9879 18.9152 46.0454 18.9139H47.288L47.2966 18.9139C47.3282 18.9139 47.3601 18.9139 47.3915 18.9118C47.623 18.8959 47.6879 18.8304 47.7008 18.5897C47.7048 18.5131 47.7043 18.4364 47.7037 18.3598L47.7034 18.3232L47.7033 18.2791C47.7022 16.6339 47.7027 14.9888 47.7047 13.3437L47.7046 13.2724C47.7043 13.1003 47.7039 12.9268 47.7318 12.7586C47.9978 11.1592 49.4663 10.1385 51.0682 10.5379C52.1807 10.8152 52.8282 11.5766 53.0611 12.6872C53.1147 12.9436 53.123 13.213 53.123 13.4765C53.1273 14.712 53.1268 15.9476 53.1264 17.1833L53.1262 18.2738L53.1261 18.3256C53.1258 18.4347 53.1256 18.5445 53.1361 18.653C53.1517 18.823 53.2286 18.8909 53.4049 18.9079C53.4638 18.9136 53.5227 18.9134 53.5816 18.9133L53.6119 18.9132C53.7499 18.9137 53.8878 18.9133 54.0257 18.9128C54.2445 18.9121 54.4632 18.9113 54.6819 18.9146C55.1071 18.921 55.1787 18.8672 55.1787 18.4233C55.175 16.6514 55.1744 14.8797 55.1771 13.1081C55.1784 12.1343 54.9141 11.2376 54.3501 10.4491C53.1899 8.82691 51.5901 8.19392 49.6308 8.43575C49.1686 8.49289 48.7309 8.68229 48.2968 8.87015ZM41.6726 13.703V9.25635L41.6724 9.17882C41.6722 9.10121 41.6719 9.0235 41.674 8.94618C41.6832 8.5946 41.7322 8.54421 42.0721 8.53523C42.1256 8.53385 42.1794 8.53431 42.2331 8.53477H42.2331H42.2332C42.26 8.535 42.2867 8.53523 42.3134 8.53523H43.2442C43.3245 8.53335 43.4049 8.53658 43.4849 8.54489C43.6204 8.56284 43.6959 8.63003 43.7115 8.76441C43.7251 8.90149 43.7307 9.03924 43.7283 9.17697C43.7292 11.4979 43.7292 13.8189 43.7283 16.1399V18.2771L43.7284 18.3329C43.7287 18.4177 43.7291 18.5027 43.723 18.5872C43.7062 18.824 43.637 18.8928 43.4094 18.9094C43.3864 18.9112 43.3634 18.9114 43.3404 18.9114H42.0649C42.0188 18.9123 41.9727 18.9102 41.9269 18.9052C41.7727 18.8857 41.6968 18.8178 41.6825 18.6655C41.6716 18.5532 41.6717 18.439 41.6719 18.3261L41.6719 18.2867L41.6726 13.703ZM93.3438 18.3051V13.755L93.3441 9.20388L93.3443 9.12654C93.3447 9.04899 93.3451 8.97122 93.342 8.89371C93.3307 8.60839 93.272 8.54811 92.9984 8.53545C92.9444 8.53311 92.8904 8.53331 92.8363 8.5335L92.7914 8.53361H91.9296C91.2884 8.53407 91.2872 8.5343 91.2872 9.19307V10.7442V18.1896L91.2871 18.2725C91.2867 18.3829 91.2863 18.4933 91.2948 18.6038C91.3111 18.8178 91.3857 18.8898 91.5912 18.9087C91.6255 18.9121 91.66 18.9121 91.6945 18.9121H92.9699C93.0161 18.9128 93.0622 18.9101 93.108 18.9041C93.2449 18.8836 93.3176 18.8192 93.3319 18.6836C93.3424 18.5578 93.3464 18.4314 93.3438 18.3051ZM42.6746 5.36604C42.7477 5.36604 42.8207 5.36546 42.8938 5.36489C43.0616 5.36358 43.2294 5.36227 43.3969 5.36788C43.6174 5.37524 43.696 5.4445 43.6983 5.65573C43.7057 6.1601 43.7057 6.66447 43.6983 7.16884C43.6954 7.36351 43.616 7.44312 43.4222 7.44496C42.9179 7.45232 42.4135 7.45232 41.9091 7.44496C41.702 7.44197 41.6266 7.36213 41.6233 7.14031C41.616 6.64745 41.616 6.1545 41.6233 5.66148C41.6268 5.4445 41.7016 5.37386 41.9179 5.36672C42.0931 5.36096 42.2686 5.36233 42.4441 5.36369C42.5209 5.36429 42.5977 5.36489 42.6744 5.36489L42.6746 5.36604ZM91.2414 6.18212C91.2419 6.25537 91.2425 6.3286 91.2425 6.40175C91.2424 6.45774 91.2422 6.51358 91.242 6.56937C91.2413 6.75389 91.2406 6.9379 91.2457 7.12518C91.2524 7.36908 91.32 7.44363 91.5515 7.44731C92.0226 7.45437 92.4936 7.45437 92.9645 7.44731C93.1965 7.44386 93.2818 7.36563 93.2867 7.13691C93.2957 6.65432 93.2957 6.17189 93.2867 5.6896C93.2823 5.45237 93.2027 5.37276 92.9742 5.36862C92.5031 5.36095 92.0321 5.36049 91.5612 5.36724C91.324 5.37069 91.2522 5.44455 91.2443 5.6781C91.2387 5.84561 91.24 6.0139 91.2414 6.18212Z" fill="white"/>
<path fill-rule="evenodd" clip-rule="evenodd" d="M11.8802 1.41185C10.6075 1.41185 9.32599 1.80354 8.20528 2.22291C6.07856 3.01873 4.48306 4.73274 3.2631 6.63869C2.34845 8.06766 1.45731 9.51244 1.45731 11.2648C1.45731 16.5859 6.38161 21.358 11.8802 21.358C13.8617 21.358 16.5663 20.6977 18.1213 19.7358C18.9904 19.1983 19.4548 18.3659 19.9487 17.4806L19.9487 17.4805C20.1032 17.2036 20.2605 16.9216 20.434 16.6418C21.468 14.9742 22.4932 13.1415 22.4932 11.1446C22.4932 7.79326 20.0823 4.97054 17.3927 3.25097C15.8118 2.24025 13.9158 1.41185 11.8802 1.41185ZM0 11.2648C0 8.73788 1.11613 6.69996 2.56613 4.80629C4.72671 1.98463 6.93249 0 10.8665 0C12.1548 0 14.0167 0.0132234 15.4285 0.420551C16.7816 0.810962 17.7699 1.53451 18.6958 2.21237C18.8113 2.29695 18.9259 2.38081 19.0401 2.46323C21.9278 4.54784 24.204 7.41493 24.204 11.1446C24.204 14.9916 22.2447 18.623 19.0717 20.7271C17.0551 22.0645 14.4349 22.6797 11.8802 22.6797C5.30612 22.6797 0 17.5568 0 11.2648ZM11.9649 4.34672C11.1475 4.34672 9.61279 4.83361 8.89297 5.10391C7.52699 5.61683 6.82556 6.79662 6.17533 7.9941C5.52511 9.19159 5.27037 10.2067 5.27037 11.3361C5.27037 14.7658 8.1255 16.5725 9.96647 17.4618C11.3832 18.1462 13.6033 18.0818 14.6021 17.4618C14.7508 17.3695 14.9334 17.264 15.1341 17.1481C15.9224 16.6927 16.9884 16.0769 17.3614 15.4734C18.0255 14.3986 18.7816 12.5458 18.7816 11.2587C18.7816 9.09865 17.6922 6.93477 15.9647 5.82646C14.9493 5.17502 13.2723 4.34672 11.9649 4.34672ZM3.89603 11.2587C3.89603 9.63004 4.51346 7.76953 5.44479 6.54901C6.83251 4.73036 8.79163 3.01963 11.3184 3.01963C12.1459 3.01963 14.1228 3.45185 15.0296 3.71439C15.7075 3.91069 16.4062 4.54012 16.9914 5.06721C17.2498 5.30008 17.4862 5.51297 17.6887 5.65971C19.5435 7.00331 20.231 9.25856 20.231 11.6624C20.231 14.1419 18.7624 17.1149 16.7244 18.4711C15.4291 19.333 13.6058 19.5549 11.9649 19.5549C10.5513 19.5549 8.73171 19.0889 7.51954 18.3043C5.62012 16.2756 3.89603 13.9564 3.89603 11.2587ZM9.24236 9.48923C9.7533 8.64072 10.05 8.14791 11.5031 8.14791C12.2845 8.14791 13.3441 8.35763 13.951 8.74476C14.9835 9.4034 15.4497 9.93487 15.4497 11.2185C15.4497 11.9834 15.4485 12.6393 15.0515 13.2781C14.9849 13.3853 14.9245 13.4933 14.8652 13.5993C14.6755 13.9385 14.4973 14.2573 14.1636 14.4632C13.5666 14.8316 12.433 14.9555 11.5031 14.6937C11.3405 14.648 11.1825 14.6067 11.0296 14.5667C9.89005 14.269 9.03287 14.0451 8.68045 12.5928C8.44326 11.6154 8.6215 10.4743 8.97264 9.92702C9.07195 9.77222 9.15994 9.6261 9.24236 9.48923ZM8.19185 8.74476C7.63519 9.47008 7.20669 10.2507 7.20669 11.2185C7.20669 13.6285 9.17087 16.303 11.9027 15.9684C12.1643 15.9364 12.4181 15.9124 12.663 15.8892C13.5488 15.8053 14.3186 15.7324 14.9252 15.3311C16.1433 14.5251 16.6987 12.5083 16.6987 11.0348C16.6987 9.60627 16.0338 8.43406 14.9252 7.6356C14.6419 7.43157 14.1423 7.3132 13.6668 7.20056C13.4791 7.15609 13.2952 7.11251 13.1298 7.0649C10.7525 6.38056 9.55398 6.96995 8.19185 8.74476Z" fill="white"/>
</svg>
