<svg width="106" height="25" viewBox="0 0 106 25" fill="none" xmlns="http://www.w3.org/2000/svg">
<path fill-rule="evenodd" clip-rule="evenodd" d="M81.8917 9.15247C82.7578 8.6984 83.6342 8.37051 84.6301 8.38118C85.6804 8.39246 86.6259 8.70654 87.4545 9.34C88.6607 10.2622 89.3063 11.4935 89.3355 13.0151C89.3536 13.9591 89.3501 14.9031 89.3466 15.8471C89.3451 16.2606 89.3435 16.6742 89.3438 17.0878V18.3303L89.3439 18.3806C89.3442 18.4559 89.3445 18.5312 89.3392 18.6065C89.3236 18.8253 89.2573 18.8913 89.0456 18.9097L89.0391 18.9099L89.0284 18.9105L89.0284 18.9105C89.0226 18.9109 89.0168 18.9113 89.0111 18.9113C88.8754 18.9113 88.7397 18.9118 88.6041 18.9123H88.6039C88.2795 18.9134 87.955 18.9144 87.6305 18.9093C87.3774 18.9051 87.3111 18.8306 87.2957 18.5736C87.2903 18.4829 87.2907 18.3922 87.2911 18.3015L87.2914 18.2284L87.2916 17.1093C87.292 15.9061 87.2923 14.703 87.2888 13.4999C87.2888 13.2468 87.2826 12.9907 87.2361 12.7443C87.029 11.6437 86.4112 10.8683 85.322 10.562C83.6692 10.0975 82.1876 11.1456 81.9085 12.7019C81.8732 12.8985 81.873 13.103 81.8729 13.3047L81.8728 13.3554C81.87 15.0121 81.8694 16.6688 81.8707 18.3255C81.8736 18.4406 81.8704 18.5558 81.8613 18.6707C81.8447 18.8276 81.7745 18.8904 81.6162 18.9083C81.5704 18.9126 81.5243 18.9143 81.4782 18.9134H80.1666C80.1205 18.9141 80.0744 18.9118 80.0286 18.9065C79.8769 18.8863 79.8056 18.8168 79.7925 18.6591C79.7841 18.5574 79.7846 18.4548 79.7851 18.3525V18.3524L79.7854 18.2797V9.75463V3.64556L79.7851 3.57079C79.7846 3.48067 79.7841 3.39054 79.7902 3.30042C79.8035 3.10875 79.874 3.04294 80.0725 3.0243C80.1128 3.02068 80.1531 3.02075 80.1933 3.02083L80.2106 3.02085H81.4531C81.5106 3.01964 81.5681 3.02241 81.6252 3.02913C81.7759 3.05053 81.847 3.12117 81.8624 3.2781C81.8624 5.19481 81.8917 9.15247 81.8917 9.15247ZM63.9943 18.9262C64.6354 18.7216 65.8167 18.1264 65.8167 18.1264C65.8167 18.1264 65.8146 18.4807 65.8365 18.6593C65.8561 18.8166 65.9239 18.8848 66.0772 18.9041C66.146 18.9111 66.2151 18.9139 66.2843 18.9124H67.423L67.4402 18.9124C67.4919 18.9124 67.544 18.9125 67.5954 18.9075C67.7735 18.8903 67.8469 18.8238 67.8618 18.6526C67.87 18.5599 67.8695 18.4672 67.869 18.3745L67.8687 18.3074V3.60771L67.869 3.5435C67.8694 3.47286 67.8698 3.40223 67.8657 3.33159C67.8531 3.10955 67.7896 3.02901 67.5797 3.02533C67.2361 3.01911 66.8925 3.02034 66.5489 3.02157C66.4093 3.02207 66.2697 3.02257 66.1301 3.02257C66.1069 3.02285 66.0838 3.02516 66.0611 3.02948C65.9253 3.05364 65.854 3.11829 65.8397 3.25428C65.829 3.3803 65.8248 3.50679 65.8271 3.63325C65.8271 5.30307 65.8167 9.44021 65.8167 9.44021C65.8167 9.44021 64.4152 8.34871 62.397 8.37899C61.4771 8.3928 60.6227 8.61277 59.8284 9.06928C57.5505 10.3785 56.6678 12.83 57.2403 15.1144C57.7608 17.1972 59.7649 19.1533 62.3255 19.1395C62.8917 19.1365 63.4506 19.1015 63.9943 18.9262ZM62.417 17.0764C60.4633 17.0352 59.128 15.5171 59.1497 13.7239C59.1487 11.8541 60.7376 10.4354 62.4752 10.4549C64.345 10.4761 65.8043 12.006 65.7698 13.8712C65.7376 15.6066 64.2677 17.1155 62.417 17.0764ZM100.118 8.38273C99.0212 8.48194 97.2817 9.42851 97.2817 9.42851V8.78401C97.2638 8.62916 97.1927 8.55875 97.0415 8.53712C96.9844 8.53005 96.9269 8.52698 96.8694 8.52792C96.4667 8.52669 96.0641 8.52669 95.6616 8.52792C95.5923 8.52677 95.5231 8.53139 95.4545 8.54172C95.3404 8.56174 95.2665 8.63376 95.2548 8.74881C95.2435 8.87473 95.2386 9.00114 95.2401 9.12755V23.7583L95.2399 23.8168C95.2396 23.9008 95.2392 23.985 95.2454 24.0687C95.2613 24.2838 95.3289 24.3639 95.5422 24.3678C96.0257 24.3771 96.5089 24.3771 96.9918 24.3678C97.1994 24.3636 97.2702 24.279 97.2861 24.0631C97.2936 23.9605 97.2932 23.8576 97.2927 23.7548L97.2925 23.6837C97.2913 22.0043 97.2913 20.325 97.2925 18.6457C97.2914 18.5079 97.2979 18.3701 97.3121 18.2329C97.3257 18.1158 97.4097 18.0756 97.5098 18.1296C97.5585 18.156 97.6049 18.1859 97.6517 18.2161L97.6519 18.2162C97.6728 18.2296 97.6937 18.2431 97.715 18.2564C98.9242 19.0224 100.238 19.3008 101.644 19.0367C102.92 18.7969 103.993 18.1793 104.809 17.1568C105.67 16.0779 106.064 14.8472 105.992 13.4646C105.909 11.908 105.273 10.6193 104.092 9.62065C102.95 8.65608 101.614 8.24766 100.118 8.38273ZM103.936 13.7523C103.932 15.605 102.391 17.091 100.641 17.0286L100.263 17.0152C98.4958 16.848 97.3145 15.2851 97.3218 13.7421C97.3303 11.9412 98.7684 10.4322 100.63 10.4287C102.587 10.4251 103.94 12.0509 103.936 13.7523ZM100.272 17.016C100.393 17.027 100.516 17.0316 100.641 17.0293L100.272 17.016ZM35.8721 8.78326C34.9864 9.64843 32.9593 11.2936 32.9593 11.2936C32.9216 9.55096 32.9314 7.80607 32.9412 6.06186V6.06185V6.06184V6.06184V6.06183V6.06182V6.06182V6.06178V6.06175V6.06172V6.06169V6.06166V6.06163C32.9456 5.26973 32.9501 4.47797 32.9501 3.68661L32.9503 3.60973C32.9508 3.50894 32.9513 3.40774 32.9443 3.30741C32.9308 3.11229 32.862 3.0474 32.6652 3.02808C32.6309 3.02462 32.5964 3.02462 32.5619 3.02462H31.2856C31.2394 3.02392 31.1933 3.02669 31.1475 3.03291C30.9954 3.05615 30.9225 3.12425 30.9084 3.28026C30.8964 3.41466 30.8965 3.54982 30.8967 3.68471L30.8967 3.72826V18.1822L30.8966 18.2496C30.8964 18.3306 30.8962 18.4118 30.8985 18.4926C30.8994 18.5616 30.9049 18.6304 30.9151 18.6986C30.9211 18.7507 30.9445 18.7992 30.9816 18.8363C31.0187 18.8734 31.0673 18.8968 31.1194 18.9027C31.1992 18.9134 31.2797 18.9177 31.3601 18.9158H32.4984L32.5199 18.9158C32.5702 18.9159 32.6208 18.916 32.6707 18.9112C32.862 18.893 32.9291 18.8249 32.9443 18.6261C32.9593 17.3452 32.9593 14.8371 32.9593 14.8371C32.9593 14.8371 35.4246 17.3836 36.6022 18.6562C36.7713 18.8392 36.9565 18.9225 37.2071 18.9186C37.692 18.9108 38.1778 18.9123 38.6634 18.9137H38.6634H38.6635H38.6635H38.6636H38.6636H38.6637C38.8566 18.9143 39.0495 18.9149 39.2423 18.9149C39.2997 18.9185 39.3573 18.9161 39.4142 18.908C39.4475 18.9009 39.4788 18.8845 39.5124 18.867C39.528 18.8588 39.544 18.8504 39.561 18.8426C39.5184 18.7236 39.4438 18.6493 39.3719 18.5776L39.3719 18.5776L39.3719 18.5776C39.3545 18.5603 39.3373 18.5431 39.3208 18.5256C37.6613 16.7642 34.2501 13.0539 34.2501 13.0539C34.2501 13.0539 37.4384 10.1889 39.023 8.75081L39.0283 8.74601L39.0382 8.73729C39.0832 8.69786 39.1333 8.65391 39.0921 8.55983C39.0725 8.55761 39.0521 8.55473 39.0311 8.55177C38.98 8.54455 38.9252 8.53682 38.8702 8.53682C38.6804 8.5344 38.4906 8.53471 38.3008 8.53501L38.1109 8.53521C37.9552 8.53521 37.7994 8.53607 37.6436 8.53693L37.6433 8.53693C37.27 8.53898 36.8966 8.54104 36.5233 8.5313C36.2632 8.52439 36.0506 8.59918 35.8721 8.78326ZM70.8233 15.7157C70.8992 15.7157 70.9752 15.7153 71.0511 15.7148C71.2283 15.7138 71.4054 15.7128 71.5826 15.7173C71.7849 15.7226 71.8389 15.7601 71.8541 15.9499C71.875 16.2132 72.0117 16.4002 72.1993 16.5632C72.3627 16.7094 72.5529 16.8227 72.7593 16.8968C73.6199 17.1959 74.4572 17.137 75.26 16.7058C75.4102 16.6221 75.5448 16.5131 75.6581 16.3837C75.8652 16.1497 75.8721 15.8832 75.6976 15.6223C75.5467 15.3966 75.3343 15.2401 75.0941 15.1209C74.8759 15.0158 74.6432 14.9438 74.4038 14.9071C74.1983 14.8724 73.9928 14.8384 73.7873 14.8045L73.7871 14.8044L73.7869 14.8044L73.7866 14.8044L73.7864 14.8043L73.7862 14.8043L73.7862 14.8043L73.7862 14.8043L73.7861 14.8043L73.7861 14.8043L73.7861 14.8043C73.4477 14.7484 73.1095 14.6925 72.7717 14.6331C72.0055 14.4985 71.3283 14.1745 70.7513 13.6513C70.3074 13.2486 69.9724 12.7707 69.8382 12.1787C69.671 11.4405 69.7722 10.7389 70.1806 10.0921C70.4174 9.71709 70.7294 9.41359 71.0883 9.15749C71.7216 8.70604 72.431 8.46835 73.2025 8.38828C73.9687 8.30867 74.7174 8.36987 75.4501 8.60756C76.1173 8.82431 76.7103 9.16532 77.1831 9.69408C77.6033 10.1639 77.8566 10.7065 77.882 11.3425C77.8978 11.7422 77.8392 11.8027 77.4344 11.805C77.1584 11.8073 76.8824 11.8065 76.6063 11.8057H76.6061C76.468 11.8054 76.33 11.805 76.1919 11.805C76.1344 11.805 76.0768 11.8027 76.0196 11.7997C75.9158 11.7942 75.8461 11.7463 75.8253 11.6386C75.8245 11.6339 75.8233 11.6292 75.8221 11.6244L75.822 11.6244L75.822 11.6243C75.8203 11.6177 75.8187 11.6112 75.818 11.605C75.766 11.1046 75.4296 10.837 75.0106 10.6589C74.521 10.4494 73.9834 10.3778 73.456 10.4518C73.0649 10.5047 72.6924 10.6218 72.3596 10.8402C72.2433 10.914 72.1361 11.0014 72.0405 11.1007C71.7839 11.3768 71.7752 11.6759 72.0076 11.9725C72.228 12.253 72.5196 12.4354 72.8589 12.5309C73.0773 12.5925 73.3029 12.631 73.5272 12.6693L73.5336 12.6704C73.7209 12.7025 73.9086 12.7319 74.0964 12.7612L74.0965 12.7612L74.0965 12.7612L74.0966 12.7612L74.0967 12.7612L74.0968 12.7613C74.3405 12.7993 74.5841 12.8374 74.8267 12.8816C75.6848 13.0381 76.439 13.3989 77.0713 14.0125C78.1926 15.1004 78.1845 16.9909 76.9494 18.0655C76.4724 18.4796 75.9369 18.7861 75.3283 18.9504C74.3773 19.2072 73.4185 19.2199 72.4639 18.9734C71.7156 18.7797 71.0513 18.4235 70.5195 17.8482C70.1868 17.4884 69.9213 17.0866 69.8217 16.5991C69.7846 16.4076 69.767 16.2128 69.7692 16.0178C69.7692 15.8045 69.8516 15.7261 70.0635 15.7187C70.2397 15.7123 70.4159 15.7138 70.5921 15.7153C70.669 15.716 70.7459 15.7166 70.8228 15.7166L70.8233 15.7157ZM48.2968 8.87022C48.0948 8.95766 47.8935 9.04477 47.6909 9.11806C47.6909 9.11806 47.7109 8.8401 47.6909 8.72781C47.6841 8.68163 47.6625 8.6389 47.6293 8.60613C47.5961 8.57336 47.5531 8.55234 47.5068 8.54626C47.4382 8.5363 47.3689 8.53222 47.2997 8.53407C46.874 8.53299 46.4483 8.53299 46.0227 8.53407C45.9534 8.53216 45.8841 8.53654 45.8156 8.54718C45.7164 8.56674 45.6464 8.63163 45.6333 8.73126C45.6207 8.84585 45.6155 8.96114 45.6179 9.0764V12.4588V18.3263L45.6179 18.3869C45.6176 18.4818 45.6174 18.5766 45.6267 18.6714C45.643 18.8245 45.7152 18.8905 45.8731 18.9082C45.9304 18.9133 45.9879 18.9152 46.0454 18.914H47.288L47.2966 18.914C47.3282 18.914 47.3601 18.914 47.3915 18.9119C47.623 18.896 47.6879 18.8304 47.7008 18.5898C47.7048 18.5131 47.7043 18.4365 47.7037 18.3599L47.7034 18.3233L47.7033 18.2791C47.7022 16.6339 47.7027 14.9888 47.7047 13.3438L47.7046 13.2725C47.7043 13.1004 47.7039 12.9268 47.7318 12.7586C47.9978 11.1592 49.4663 10.1385 51.0682 10.538C52.1807 10.8152 52.8282 11.5766 53.0611 12.6873C53.1147 12.9436 53.123 13.2131 53.123 13.4765C53.1273 14.712 53.1268 15.9477 53.1264 17.1833L53.1262 18.2738L53.1261 18.3257C53.1258 18.4348 53.1256 18.5446 53.1361 18.653C53.1517 18.8231 53.2286 18.891 53.4049 18.908C53.4638 18.9137 53.5227 18.9135 53.5816 18.9133L53.6119 18.9133C53.7499 18.9138 53.8878 18.9133 54.0257 18.9129C54.2445 18.9121 54.4632 18.9114 54.6819 18.9146C55.1071 18.9211 55.1787 18.8673 55.1787 18.4234C55.175 16.6515 55.1744 14.8798 55.1771 13.1082C55.1784 12.1344 54.9141 11.2377 54.3501 10.4492C53.1899 8.82698 51.5901 8.19398 49.6308 8.43581C49.1686 8.49296 48.7309 8.68236 48.2968 8.87022ZM41.6726 13.703V9.25642L41.6724 9.17889C41.6722 9.10128 41.6719 9.02357 41.674 8.94625C41.6832 8.59466 41.7322 8.54427 42.0721 8.5353C42.1256 8.53392 42.1794 8.53438 42.2331 8.53484H42.2331H42.2332C42.26 8.53507 42.2867 8.5353 42.3134 8.5353H43.2442C43.3245 8.53342 43.4049 8.53664 43.4849 8.54496C43.6204 8.56291 43.6959 8.6301 43.7115 8.76447C43.7251 8.90156 43.7307 9.0393 43.7283 9.17703C43.7292 11.4979 43.7292 13.8189 43.7283 16.14V18.2771L43.7284 18.3329C43.7287 18.4178 43.7291 18.5028 43.723 18.5873C43.7062 18.8241 43.637 18.8929 43.4094 18.9094C43.3864 18.9113 43.3634 18.9115 43.3404 18.9115H42.0649C42.0188 18.9123 41.9727 18.9102 41.9269 18.9053C41.7727 18.8857 41.6968 18.8179 41.6825 18.6655C41.6716 18.5532 41.6717 18.4391 41.6719 18.3262L41.6719 18.2868L41.6726 13.703ZM93.3438 18.3052V13.755L93.3441 9.20395L93.3443 9.1266C93.3447 9.04906 93.3451 8.97129 93.342 8.89378C93.3307 8.60846 93.272 8.54818 92.9984 8.53552C92.9444 8.53318 92.8904 8.53337 92.8363 8.53357L92.7914 8.53368H91.9296C91.2884 8.53414 91.2872 8.53437 91.2872 9.19314V10.7442V18.1897L91.2871 18.2725C91.2867 18.383 91.2863 18.4934 91.2948 18.6039C91.3111 18.8179 91.3857 18.8899 91.5912 18.9087C91.6255 18.9122 91.66 18.9122 91.6945 18.9122H92.9699C93.0161 18.9129 93.0622 18.9102 93.108 18.9041C93.2449 18.8837 93.3176 18.8192 93.3319 18.6837C93.3424 18.5578 93.3464 18.4315 93.3438 18.3052ZM42.6746 5.36604C42.7477 5.36604 42.8207 5.36546 42.8938 5.36489C43.0616 5.36358 43.2294 5.36227 43.3969 5.36788C43.6174 5.37524 43.696 5.4445 43.6983 5.65573C43.7057 6.1601 43.7057 6.66447 43.6983 7.16884C43.6954 7.36351 43.616 7.44312 43.4222 7.44496C42.9179 7.45232 42.4135 7.45232 41.9091 7.44496C41.702 7.44197 41.6266 7.36213 41.6233 7.14031C41.616 6.64745 41.616 6.1545 41.6233 5.66148C41.6268 5.4445 41.7016 5.37386 41.9179 5.36672C42.0931 5.36096 42.2686 5.36233 42.4441 5.36369C42.5209 5.36429 42.5977 5.36489 42.6744 5.36489L42.6746 5.36604ZM91.2414 6.18212C91.2419 6.25537 91.2425 6.3286 91.2425 6.40175C91.2424 6.45774 91.2422 6.51358 91.242 6.56937C91.2413 6.75389 91.2406 6.9379 91.2457 7.12518C91.2524 7.36908 91.32 7.44363 91.5515 7.44731C92.0226 7.45437 92.4936 7.45437 92.9645 7.44731C93.1965 7.44386 93.2818 7.36563 93.2867 7.13691C93.2957 6.65432 93.2957 6.17189 93.2867 5.6896C93.2823 5.45237 93.2027 5.37276 92.9742 5.36862C92.5031 5.36095 92.0321 5.36049 91.5612 5.36724C91.324 5.37069 91.2522 5.44455 91.2443 5.6781C91.2387 5.84561 91.24 6.0139 91.2414 6.18212Z" fill="#2CAAB9"/>
<path fill-rule="evenodd" clip-rule="evenodd" d="M11.8802 1.41185C10.6075 1.41185 9.32599 1.80354 8.20528 2.22291C6.07856 3.01873 4.48306 4.73274 3.2631 6.63869C2.34845 8.06766 1.45731 9.51244 1.45731 11.2648C1.45731 16.5859 6.38161 21.358 11.8802 21.358C13.8617 21.358 16.5663 20.6977 18.1213 19.7358C18.9904 19.1983 19.4548 18.3659 19.9487 17.4806L19.9487 17.4805C20.1032 17.2036 20.2605 16.9216 20.434 16.6418C21.468 14.9742 22.4932 13.1415 22.4932 11.1446C22.4932 7.79326 20.0823 4.97054 17.3927 3.25097C15.8118 2.24025 13.9158 1.41185 11.8802 1.41185ZM0 11.2648C0 8.73788 1.11613 6.69996 2.56613 4.80629C4.72671 1.98463 6.93249 0 10.8665 0C12.1548 0 14.0167 0.0132234 15.4285 0.420551C16.7816 0.810962 17.7699 1.53451 18.6958 2.21237C18.8113 2.29695 18.9259 2.38081 19.0401 2.46323C21.9278 4.54784 24.204 7.41493 24.204 11.1446C24.204 14.9916 22.2447 18.623 19.0717 20.7271C17.0551 22.0645 14.4349 22.6797 11.8802 22.6797C5.30612 22.6797 0 17.5568 0 11.2648ZM11.9649 4.34672C11.1475 4.34672 9.61279 4.83361 8.89297 5.10391C7.52699 5.61683 6.82556 6.79662 6.17533 7.9941C5.52511 9.19159 5.27037 10.2067 5.27037 11.3361C5.27037 14.7658 8.1255 16.5725 9.96647 17.4618C11.3832 18.1462 13.6033 18.0818 14.6021 17.4618C14.7508 17.3695 14.9334 17.264 15.1341 17.1481C15.9224 16.6927 16.9884 16.0769 17.3614 15.4734C18.0255 14.3986 18.7816 12.5458 18.7816 11.2587C18.7816 9.09865 17.6922 6.93477 15.9647 5.82646C14.9493 5.17502 13.2723 4.34672 11.9649 4.34672ZM3.89603 11.2587C3.89603 9.63004 4.51346 7.76953 5.44479 6.54901C6.83251 4.73036 8.79163 3.01963 11.3184 3.01963C12.1459 3.01963 14.1228 3.45185 15.0296 3.71439C15.7075 3.91069 16.4062 4.54012 16.9914 5.06721C17.2498 5.30008 17.4862 5.51297 17.6887 5.65971C19.5435 7.00331 20.231 9.25856 20.231 11.6624C20.231 14.1419 18.7624 17.1149 16.7244 18.4711C15.4291 19.333 13.6058 19.5549 11.9649 19.5549C10.5513 19.5549 8.73171 19.0889 7.51954 18.3043C5.62012 16.2756 3.89603 13.9564 3.89603 11.2587ZM9.24236 9.48923C9.7533 8.64072 10.05 8.14791 11.5031 8.14791C12.2845 8.14791 13.3441 8.35763 13.951 8.74476C14.9835 9.4034 15.4497 9.93487 15.4497 11.2185C15.4497 11.9834 15.4485 12.6393 15.0515 13.2781C14.9849 13.3853 14.9245 13.4933 14.8652 13.5993C14.6755 13.9385 14.4973 14.2573 14.1636 14.4632C13.5666 14.8316 12.433 14.9555 11.5031 14.6937C11.3405 14.648 11.1825 14.6067 11.0296 14.5667C9.89005 14.269 9.03287 14.0451 8.68045 12.5928C8.44326 11.6154 8.6215 10.4743 8.97264 9.92702C9.07195 9.77222 9.15994 9.6261 9.24236 9.48923ZM8.19185 8.74476C7.63519 9.47008 7.20669 10.2507 7.20669 11.2185C7.20669 13.6285 9.17087 16.303 11.9027 15.9684C12.1643 15.9364 12.4181 15.9124 12.663 15.8892C13.5488 15.8053 14.3186 15.7324 14.9252 15.3311C16.1433 14.5251 16.6987 12.5083 16.6987 11.0348C16.6987 9.60627 16.0338 8.43406 14.9252 7.6356C14.6419 7.43157 14.1423 7.3132 13.6668 7.20056C13.4791 7.15609 13.2952 7.11251 13.1298 7.0649C10.7525 6.38056 9.55398 6.96995 8.19185 8.74476Z" fill="#FDCE30"/>
</svg>
