<?xml version="1.0" encoding="UTF-8"?>
<svg width="100px" height="100px" viewBox="0 0 100 100" version="1.1" xmlns="http://www.w3.org/2000/svg" xmlns:xlink="http://www.w3.org/1999/xlink">
    <g id="#1" stroke="none" stroke-width="1" fill="none" fill-rule="evenodd">
        <path d="M67.4699358,32.8808285 C66.6774876,33.5775159 65.638082,34 64.5,34 C62.0147186,34 60,31.9852814 60,29.5 C60,27.0147186 62.0147186,25 64.5,25 C64.591816,25 64.6829898,25.0027498 64.7734435,25.0081715 C64.9168094,24.9974955 65.0627045,24.9970059 65.2103452,25.0073833 C71.0942521,25.4209516 75.4114704,32.026237 74.9471774,39.2153043 C74.4684205,46.6283307 69.3709369,53.2841757 60,57.587402 L60,88 C60,92.826356 55.8353497,97 51,97 L16,97 C11.1646503,97 7,92.826356 7,88 C7,85.1654626 8.00609919,82.6971174 9.93375161,80.8250017 L29.9337516,61.8250017 L34.0662484,66.1749983 L14.09024,85.1519519 C13.3704312,85.8511185 13,86.7599277 13,88 C13,89.5155414 14.4812597,91 16,91 L51,91 C52.5187403,91 54,89.5155414 54,88 L54,58.2368809 C53.8801649,58.1299195 53.7683463,58.0127724 53.6660204,57.8861138 C43.8705768,53.5957933 38.5428019,46.8020963 38.0528226,39.2153043 C37.5885296,32.026237 41.9057479,25.4209516 47.7896548,25.0073833 C47.9372955,24.9970059 48.0831906,24.9974955 48.2265565,25.0081715 C48.3170102,25.0027498 48.408184,25 48.5,25 C50.9852814,25 53,27.0147186 53,29.5 C53,31.9852814 50.9852814,34 48.5,34 C47.361918,34 46.3225124,33.5775159 45.5300642,32.8808285 C44.5420862,34.3241637 43.8874967,36.4618672 44.0403486,38.8286107 C44.3833317,44.139327 48.3815178,49.1546668 56.5,52.5751083 C64.6184822,49.1546668 68.6166683,44.139327 68.9596514,38.8286107 C69.1125033,36.4618672 68.4579138,34.3241637 67.4699358,32.8808285 Z M57,78 C35.9588093,78 19,61.377367 19,41 C19,19.7893219 35.7893219,3 57,3 C77.377367,3 94,19.9588093 94,41 C94,61.2106781 77.2106781,78 57,78 Z M57,72 C73.8969696,72 88,57.8969696 88,41 C88,23.2459266 74.0364719,9 57,9 C39.1030304,9 25,23.1030304 25,41 C25,58.0364719 39.2459266,72 57,72 Z" id="Line-2" fill="#007FFF" fill-rule="nonzero"></path>
    </g>
</svg>