<svg width="294" height="589" xmlns="http://www.w3.org/2000/svg"><path d="M46.612 2h200.776C272.026 2 292 21.974 292 46.612v495.776C292 567.026 272.026 587 247.388 587H46.612C21.974 587 2 567.026 2 542.388V46.612C2 21.974 21.974 2 46.612 2zm-26.6 314.1V161.3v381.6c0 13.6 11.584 25.2 25.218 25.2h202.64c13.633 0 25.217-11.6 25.217-25.2V46.1c0-14.5-11.584-26.1-25.217-26.1h-26.566a4.056 4.056 0 0 0-4.056 4.056v.444c.05 9.3-7.19 16.55-16.21 16.2H91.16c-8.928.35-16.168-6.9-16.21-16.2v-.444A4.056 4.056 0 0 0 70.894 20H45.23c-13.634 0-25.218 11.6-25.218 26.1v270z" fill="#FFF" stroke="#F3F3F3" stroke-width="3.6" fill-rule="evenodd"/></svg>