<svg width="36" height="36" xmlns="http://www.w3.org/2000/svg" xmlns:xlink="http://www.w3.org/1999/xlink"><defs><path d="M18 36c9.941 0 18-8.059 18-18S27.941 0 18 0 0 8.059 0 18s8.059 18 18 18z" id="a"/><path d="M18 36c9.941 0 18-8.059 18-18S27.941 0 18 0 0 8.059 0 18s8.059 18 18 18z" id="b"/></defs><g fill="none" fill-rule="evenodd"><g transform="matrix(-1 0 0 1 36 0)"><use fill="#FFF" xlink:href="#a"/><path stroke="#000" d="M18 35.5c9.665 0 17.5-7.835 17.5-17.5S27.665.5 18 .5.5 8.335.5 18 8.335 35.5 18 35.5z"/></g><g transform="matrix(-1 0 0 1 36 0)"><use fill="#FFF" xlink:href="#b"/><path stroke="#0084FF" d="M18 35.5c9.665 0 17.5-7.835 17.5-17.5S27.665.5 18 .5.5 8.335.5 18 8.335 35.5 18 35.5z"/></g><path fill="#0084FF" d="M15.785 9L25 18l-9.215 9L14 25.225 21.398 18 14 10.775z"/></g></svg>