<svg width="36" height="36" xmlns="http://www.w3.org/2000/svg" xmlns:xlink="http://www.w3.org/1999/xlink"><defs><path d="M18 36c9.941 0 18-8.059 18-18S27.941 0 18 0 0 8.059 0 18s8.059 18 18 18z" id="a"/><path d="M18 36c9.941 0 18-8.059 18-18S27.941 0 18 0 0 8.059 0 18s8.059 18 18 18z" id="b"/></defs><g fill="none" fill-rule="evenodd"><use fill="#FFF" xlink:href="#a"/><path stroke="#000" d="M18 35.5c9.665 0 17.5-7.835 17.5-17.5S27.665.5 18 .5.5 8.335.5 18 8.335 35.5 18 35.5z"/><use fill="#FFF" xlink:href="#b"/><path stroke="#CDCED2" d="M18 35.5c9.665 0 17.5-7.835 17.5-17.5S27.665.5 18 .5.5 8.335.5 18 8.335 35.5 18 35.5z"/><path fill="#CDCED2" d="M20.215 9L11 18l9.215 9L22 25.225 14.602 18 22 10.775z"/></g></svg>