<svg width="132" height="44" xmlns="http://www.w3.org/2000/svg"><g fill="none"><path d="M121.064 0H10.481c-.403 0-.801 0-1.203.002-.337.002-.67.009-1.01.014a14.51 14.51 0 00-2.203.195 7.323 7.323 0 00-2.09.69A7.077 7.077 0 00.214 6.073a14.302 14.302 0 00-.197 2.202C.007 8.613.005 8.95 0 9.289v25.425c.005.342.006.673.017 1.015.008.738.074 1.474.197 2.202.12.729.352 1.435.687 2.094.333.658.77 1.258 1.295 1.776.52.525 1.12.963 1.78 1.297a7.362 7.362 0 002.089.694c.728.12 1.464.184 2.202.194.34.008.674.012 1.01.012.403.002.8.002 1.204.002h110.583c.395 0 .797 0 1.192-.002.335 0 .678-.004 1.013-.012.737-.01 1.472-.074 2.199-.194a7.476 7.476 0 002.097-.694 6.9 6.9 0 001.778-1.297c.523-.52.962-1.12 1.299-1.776.332-.66.561-1.366.68-2.094a14.78 14.78 0 00.204-2.202c.005-.342.005-.673.005-1.015.008-.4.008-.797.008-1.203V10.49c0-.403 0-.803-.008-1.201 0-.338 0-.676-.005-1.013a14.868 14.868 0 00-.204-2.202 7.283 7.283 0 00-.68-2.094A7.11 7.11 0 00127.565.9a7.436 7.436 0 00-2.097-.69 14.329 14.329 0 00-2.199-.194c-.335-.005-.678-.012-1.013-.014C121.86 0 121.459 0 121.064 0z" fill="#A6A6A6"/><path d="M9.283 43.038c-.335 0-.662-.005-.994-.012a13.937 13.937 0 01-2.055-.18 6.465 6.465 0 01-1.82-.602 5.942 5.942 0 01-1.537-1.119 5.853 5.853 0 01-1.121-1.536 6.297 6.297 0 01-.597-1.823 13.664 13.664 0 01-.183-2.062 98.808 98.808 0 01-.016-1.005V9.29s.01-.76.016-.984c.008-.69.069-1.379.182-2.06a6.334 6.334 0 01.597-1.828 6.118 6.118 0 012.657-2.662 6.398 6.398 0 011.818-.599 13.82 13.82 0 012.062-.18l.991-.013H122.25l1.004.013a13.58 13.58 0 012.043.18 6.524 6.524 0 011.837.602 6.151 6.151 0 012.654 2.662c.287.571.485 1.183.589 1.814.114.686.178 1.38.19 2.076.004.311.004.646.004.979.008.412.008.805.008 1.2v23.022c0 .4 0 .79-.008 1.183 0 .358 0 .685-.004 1.023a14.014 14.014 0 01-.188 2.039 6.316 6.316 0 01-.594 1.837 6.028 6.028 0 01-1.116 1.524 5.95 5.95 0 01-1.539 1.125 6.44 6.44 0 01-1.833.604c-.68.111-1.366.171-2.055.18-.322.007-.659.011-.986.011l-1.192.003-111.781-.002z" fill="#000"/><path d="M46.5 29.854h-5.203l-1.25 3.692h-2.203l4.928-13.66h2.29l4.928 13.66h-2.24l-1.25-3.692zm-4.664-1.704h4.124l-2.033-5.992h-.057l-2.034 5.992zm18.798.417c0 3.095-1.656 5.083-4.154 5.083a3.373 3.373 0 01-3.131-1.742h-.047v4.932h-2.043V23.587h1.977v1.656h.038a3.53 3.53 0 013.169-1.76c2.526 0 4.19 1.997 4.19 5.084zm-2.1 0c0-2.017-1.041-3.342-2.63-3.342-1.561 0-2.61 1.353-2.61 3.342 0 2.006 1.049 3.35 2.61 3.35 1.589 0 2.63-1.316 2.63-3.35zm13.053 0c0 3.095-1.655 5.083-4.153 5.083a3.373 3.373 0 01-3.131-1.742h-.048v4.932h-2.042V23.587h1.977v1.656h.037a3.53 3.53 0 013.17-1.76c2.525 0 4.19 1.997 4.19 5.084zm-2.1 0c0-2.017-1.04-3.342-2.63-3.342-1.56 0-2.61 1.353-2.61 3.342 0 2.006 1.05 3.35 2.61 3.35 1.59 0 2.63-1.316 2.63-3.35zm9.34 1.173c.151 1.354 1.466 2.244 3.263 2.244 1.722 0 2.96-.89 2.96-2.111 0-1.06-.746-1.695-2.515-2.13l-1.77-.427c-2.506-.606-3.67-1.779-3.67-3.682 0-2.357 2.053-3.976 4.967-3.976 2.885 0 4.862 1.619 4.929 3.976h-2.063c-.123-1.363-1.25-2.186-2.895-2.186s-2.771.832-2.771 2.044c0 .966.719 1.534 2.478 1.969l1.504.37c2.8.662 3.964 1.788 3.964 3.786 0 2.556-2.034 4.156-5.27 4.156-3.026 0-5.07-1.563-5.202-4.033h2.09zm12.79-8.51v2.357h1.893v1.618h-1.893v5.49c0 .854.38 1.251 1.211 1.251a6.38 6.38 0 00.672-.047v1.61c-.374.069-.754.1-1.135.094-2.014 0-2.8-.758-2.8-2.69v-5.708h-1.447v-1.618h1.447V21.23h2.052zm2.989 7.337c0-3.134 1.844-5.103 4.72-5.103 2.885 0 4.721 1.97 4.721 5.103 0 3.142-1.826 5.102-4.721 5.102-2.894 0-4.72-1.96-4.72-5.102zm7.36 0c0-2.15-.985-3.418-2.64-3.418-1.655 0-2.639 1.278-2.639 3.418 0 2.158.984 3.417 2.639 3.417 1.655 0 2.64-1.26 2.64-3.417zm3.765-4.98h1.949v1.695h.047a2.374 2.374 0 012.394-1.8c.235 0 .47.025.7.077v1.912a2.854 2.854 0 00-.918-.124 2.058 2.058 0 00-2.129 2.292v5.907h-2.043v-9.96zm14.508 7.034c-.275 1.808-2.034 3.048-4.285 3.048-2.895 0-4.692-1.94-4.692-5.055 0-3.124 1.806-5.15 4.606-5.15 2.754 0 4.485 1.893 4.485 4.913v.7h-7.03v.123a2.595 2.595 0 002.678 2.821 2.251 2.251 0 002.298-1.4h1.94zm-6.905-2.973h4.975a2.396 2.396 0 00-2.441-2.527 2.519 2.519 0 00-2.534 2.527zM41.58 9.604a2.9 2.9 0 013.086 3.261c0 2.097-1.132 3.303-3.086 3.303h-2.37V9.604h2.37zm-1.35 5.635h1.236a2.061 2.061 0 002.163-2.36 2.07 2.07 0 00-2.163-2.347H40.23v4.707zm5.587-1.55a2.347 2.347 0 013.57-2.218 2.347 2.347 0 011.098 2.218 2.347 2.347 0 01-3.572 2.22 2.347 2.347 0 01-1.096-2.22zm3.664 0c0-1.074-.482-1.702-1.328-1.702-.85 0-1.327.628-1.327 1.702 0 1.082.478 1.705 1.327 1.705.846 0 1.328-.627 1.328-1.705zm7.21 2.479h-1.013l-1.023-3.649h-.077l-1.02 3.649h-1.003l-1.364-4.954h.99l.887 3.78h.073l1.018-3.78h.937l1.018 3.78h.077l.882-3.78h.977l-1.359 4.954zm2.507-4.954h.94v.787h.073a1.48 1.48 0 011.477-.882 1.61 1.61 0 011.713 1.842v3.206h-.976v-2.96c0-.797-.346-1.192-1.068-1.192a1.135 1.135 0 00-1.182 1.255v2.898h-.977v-4.954zm5.76-1.933h.977v6.887h-.977V9.28zm2.335 4.408a2.347 2.347 0 013.57-2.218 2.347 2.347 0 011.099 2.218 2.348 2.348 0 01-3.572 2.22 2.348 2.348 0 01-1.097-2.22zm3.664 0c0-1.074-.482-1.702-1.328-1.702-.85 0-1.327.628-1.327 1.702 0 1.082.478 1.705 1.327 1.705.846 0 1.328-.627 1.328-1.705zm2.033 1.078c0-.892.664-1.406 1.841-1.479l1.341-.077v-.428c0-.523-.346-.818-1.013-.818-.546 0-.923.2-1.032.55h-.946c.1-.85.9-1.396 2.023-1.396 1.24 0 1.94.618 1.94 1.664v3.385h-.94v-.697h-.077c-.32.509-.887.806-1.487.778a1.495 1.495 0 01-1.65-1.482zm3.182-.423v-.415l-1.209.078c-.681.045-.99.277-.99.714 0 .446.386.705.917.705a1.166 1.166 0 001.282-1.082zm2.257-.655c0-1.565.804-2.557 2.054-2.557a1.63 1.63 0 011.518.87h.073V9.28h.977v6.887h-.936v-.783h-.077a1.718 1.718 0 01-1.555.864c-1.259 0-2.054-.991-2.054-2.56zm1.009 0c0 1.05.494 1.683 1.322 1.683.823 0 1.332-.642 1.332-1.679 0-1.032-.514-1.683-1.332-1.683-.822 0-1.322.637-1.322 1.679zm7.655 0a2.347 2.347 0 013.57-2.218 2.347 2.347 0 011.098 2.218 2.347 2.347 0 01-3.572 2.22 2.347 2.347 0 01-1.096-2.22zm3.663 0c0-1.074-.482-1.702-1.328-1.702-.849 0-1.326.628-1.326 1.702 0 1.082.477 1.705 1.326 1.705.846 0 1.328-.627 1.328-1.705zm2.316-2.475h.94v.787h.073a1.48 1.48 0 011.477-.882 1.61 1.61 0 011.713 1.842v3.206H96.3v-2.96c0-.797-.346-1.192-1.068-1.192a1.135 1.135 0 00-1.182 1.255v2.898h-.977v-4.954zm9.723-1.233v1.256h1.073v.823h-1.073v2.547c0 .52.214.746.7.746.125 0 .25-.008.373-.022v.814a3.203 3.203 0 01-.532.05c-1.086 0-1.519-.383-1.519-1.337V12.06h-.785v-.823h.785V9.98h.978zm2.407-.7h.968v2.73h.078c.266-.585.87-.94 1.509-.888a1.63 1.63 0 011.705 1.847v3.198h-.978V13.21c0-.791-.369-1.192-1.059-1.192a1.156 1.156 0 00-1.246 1.256v2.893h-.977V9.28zm9.955 5.55a2.01 2.01 0 01-2.144 1.432 2.248 2.248 0 01-2.287-2.557 2.286 2.286 0 012.282-2.587c1.378 0 2.208.941 2.208 2.497v.34h-3.495v.056a1.31 1.31 0 001.318 1.419c.478.057.944-.18 1.178-.6h.94zm-3.436-1.597h2.5a1.196 1.196 0 00-1.218-1.283 1.265 1.265 0 00-1.282 1.283zM27.227 22.33a5.444 5.444 0 012.59-4.567 5.567 5.567 0 00-4.387-2.373c-1.846-.194-3.635 1.105-4.576 1.105-.959 0-2.407-1.086-3.967-1.054a5.842 5.842 0 00-4.916 3.001c-2.126 3.683-.54 9.096 1.496 12.074 1.019 1.458 2.21 3.086 3.768 3.028 1.524-.063 2.094-.973 3.934-.973 1.824 0 2.358.973 3.948.937 1.636-.027 2.667-1.465 3.65-2.936a12.062 12.062 0 001.669-3.402 5.26 5.26 0 01-3.21-4.84zm-3.003-8.898a5.362 5.362 0 001.225-3.84 5.448 5.448 0 00-3.526 1.826 5.102 5.102 0 00-1.257 3.697 4.505 4.505 0 003.558-1.683z" fill="#FFF"/></g></svg>