<svg width="149" height="44" xmlns="http://www.w3.org/2000/svg"><defs><linearGradient x1="91.488%" y1="4.948%" x2="-38.352%" y2="71.907%" id="a"><stop stop-color="#00A0FF" offset="0%"/><stop stop-color="#00A1FF" offset="1%"/><stop stop-color="#00BEFF" offset="26%"/><stop stop-color="#00D2FF" offset="51%"/><stop stop-color="#00DFFF" offset="76%"/><stop stop-color="#00E3FF" offset="100%"/></linearGradient><linearGradient x1="107.685%" y1="50%" x2="-130.64%" y2="50%" id="b"><stop stop-color="#FFE000" offset="0%"/><stop stop-color="#FFBD00" offset="41%"/><stop stop-color="orange" offset="78%"/><stop stop-color="#FF9C00" offset="100%"/></linearGradient><linearGradient x1="86.219%" y1="17.877%" x2="-50.15%" y2="194.703%" id="c"><stop stop-color="#FF3A44" offset="0%"/><stop stop-color="#C31162" offset="100%"/></linearGradient><linearGradient x1="-18.754%" y1="-54.052%" x2="42.121%" y2="24.917%" id="d"><stop stop-color="#32A071" offset="0%"/><stop stop-color="#2DA771" offset="7%"/><stop stop-color="#15CF74" offset="48%"/><stop stop-color="#06E775" offset="80%"/><stop stop-color="#00F076" offset="100%"/></linearGradient></defs><g transform="translate(.603)" fill="none"><rect fill="#000" width="148.397" height="44" rx="5.5"/><path d="M142.9.88a4.618 4.618 0 0 1 4.618 4.62v33a4.618 4.618 0 0 1-4.617 4.62H5.496A4.618 4.618 0 0 1 .88 38.5v-33A4.618 4.618 0 0 1 5.496.88h137.405zm0-.88H5.497A5.498 5.498 0 0 0 0 5.5v33C0 41.538 2.46 44 5.496 44h137.405a5.498 5.498 0 0 0 5.496-5.5v-33c0-3.038-2.46-5.5-5.496-5.5z" fill="#A6A6A6"/><path d="M74.902 23.925a4.673 4.673 0 0 0-4.65 4.69 4.673 4.673 0 0 0 4.68 4.66 4.673 4.673 0 0 0 4.664-4.675 4.61 4.61 0 0 0-4.694-4.675zm0 7.513a2.84 2.84 0 0 1-2.274-4.764A2.835 2.835 0 0 1 77.54 28.6a2.707 2.707 0 0 1-2.638 2.838zm-10.234-7.513a4.673 4.673 0 0 0-4.66 4.682 4.673 4.673 0 0 0 4.675 4.668A4.673 4.673 0 0 0 69.35 28.6a4.61 4.61 0 0 0-4.694-4.675h.011zm0 7.513a2.84 2.84 0 0 1-2.29-4.759 2.835 2.835 0 0 1 4.917 1.921 2.707 2.707 0 0 1-2.638 2.838h.011zm-12.19-6.072v1.98h4.748a4.148 4.148 0 0 1-1.099 2.497 4.857 4.857 0 0 1-3.66 1.452 5.278 5.278 0 0 1-5.277-5.28 5.278 5.278 0 0 1 5.277-5.28 5.055 5.055 0 0 1 3.594 1.419l1.396-1.397a6.912 6.912 0 0 0-4.98-2.057 7.265 7.265 0 0 0-6.527 3.549 7.275 7.275 0 0 0 0 7.433 7.265 7.265 0 0 0 6.528 3.549 6.593 6.593 0 0 0 5.067-2.035 6.603 6.603 0 0 0 1.715-4.642 6.461 6.461 0 0 0-.11-1.243l-6.672.055zm49.806 1.54a4.397 4.397 0 0 0-4.001-2.981 4.396 4.396 0 0 0-4.397 4.675 4.578 4.578 0 0 0 4.639 4.675 4.649 4.649 0 0 0 3.89-2.068l-1.593-1.1a2.67 2.67 0 0 1-2.297 1.298 2.374 2.374 0 0 1-2.265-1.419l6.255-2.585-.231-.495zm-6.376 1.562a2.564 2.564 0 0 1 2.44-2.728 1.814 1.814 0 0 1 1.737.99l-4.177 1.738zM90.83 33h2.055V19.25H90.83V33zm-3.364-8.03h-.077a3.297 3.297 0 0 0-2.462-1.1 4.685 4.685 0 0 0-4.456 4.68c0 2.5 1.96 4.56 4.456 4.681a3.187 3.187 0 0 0 2.462-1.1h.066v.671c0 1.793-.956 2.75-2.495 2.75a2.583 2.583 0 0 1-2.352-1.661l-1.792.748A4.452 4.452 0 0 0 84.96 37.4c2.407 0 4.397-1.419 4.397-4.873V24.2h-1.89v.77zm-2.352 6.468a2.848 2.848 0 0 1 0-5.676 2.637 2.637 0 0 1 2.495 2.838 2.62 2.62 0 0 1-2.506 2.838h.01zm26.8-12.188H107V33h2.055v-5.214h2.87a4.275 4.275 0 0 0 3.957-2.04 4.282 4.282 0 0 0 0-4.455 4.275 4.275 0 0 0-3.958-2.041h-.01zm0 6.6h-2.87v-4.686h2.913a2.359 2.359 0 0 1 0 4.719l-.044-.033zm12.673-1.98a3.847 3.847 0 0 0-3.66 2.101l1.825.759a1.945 1.945 0 0 1 1.868-1.012 1.978 1.978 0 0 1 2.199 1.771v.143a4.537 4.537 0 0 0-2.144-.528c-1.967 0-3.957 1.1-3.957 3.091a3.18 3.18 0 0 0 3.408 3.025 2.89 2.89 0 0 0 2.638-1.32h.066V33h1.979v-5.291c0-2.409-1.825-3.806-4.167-3.806l-.055-.033zm-.252 7.535c-.67 0-1.605-.341-1.605-1.166 0-1.1 1.165-1.463 2.198-1.463a3.647 3.647 0 0 1 1.869.462 2.485 2.485 0 0 1-2.407 2.2l-.055-.033zM136.02 24.2l-2.353 5.962h-.066l-2.44-5.962h-2.199l3.66 8.338-2.088 4.631h2.144l5.628-12.969h-2.286zM117.54 33h2.056V19.25h-2.056V33z" fill="#FFF"/><path d="M52.126 11.264a2.98 2.98 0 0 1-.825 2.2 3.198 3.198 0 0 1-2.418.979 3.467 3.467 0 0 1-2.43-5.907 3.297 3.297 0 0 1 2.43-.99c.465-.002.925.092 1.352.275.398.16.752.413 1.033.737l-.582.583a2.198 2.198 0 0 0-1.803-.781A2.55 2.55 0 0 0 46.322 11a2.593 2.593 0 1 0 4.397 1.903 2.08 2.08 0 0 0 .55-1.342h-2.386v-.792h3.199c.03.163.044.329.044.495zm5.034-2.75h-2.968v2.09h2.704v.792h-2.704v2.09h2.968v.814h-3.847V7.7h3.847v.814zm3.606 5.786h-.847V8.514h-1.846V7.7h4.583v.814h-1.89V14.3zm5.122 0V7.7h.847v6.6h-.847zm4.606 0h-.846V8.514H67.8V7.7h4.529v.814h-1.836V14.3zm10.42-.858a3.428 3.428 0 0 1-4.836 0 3.566 3.566 0 0 1 0-4.895 3.406 3.406 0 0 1 4.837 0 3.555 3.555 0 0 1 0 4.895zm-4.21-.55a2.54 2.54 0 0 0 3.584 0 2.817 2.817 0 0 0 0-3.784 2.538 2.538 0 0 0-3.583 0 2.817 2.817 0 0 0 0 3.784zM83.08 14.3V7.7h1.034l3.21 5.137V7.7h.846v6.6h-.88l-3.352-5.379V14.3h-.858z" stroke="#FFF" stroke-width=".733" fill="#FFF"/><path d="M1.583.594a2.2 2.2 0 0 0-.506 1.54v24.332c-.033.559.148 1.11.506 1.54l.077.077 13.62-13.618v-.319L1.66.517l-.077.077z" fill="url(#a)" transform="translate(9.893 7.7)"/><path d="M19.786 19.008l-4.507-4.543v-.319l4.507-4.554.1.055 5.396 3.069c1.54.869 1.54 2.299 0 3.179l-5.375 3.058-.12.055z" fill="url(#b)" transform="translate(9.893 7.7)"/><path d="M19.918 18.942L15.28 14.3 1.583 28.006a1.79 1.79 0 0 0 2.286.066l16.06-9.13" fill="url(#c)" transform="translate(9.893 7.7)"/><path d="M19.918 9.658L3.858.528a1.79 1.79 0 0 0-2.286.066L15.279 14.3l4.64-4.642z" fill="url(#d)" transform="translate(9.893 7.7)"/><path d="M29.68 26.543l-15.93 9.075a1.835 1.835 0 0 1-2.198 0l-.077.077.077.077c.65.491 1.548.491 2.198 0l16.06-9.13-.132-.099z" fill="#000" opacity=".2"/><path d="M11.476 35.552a2.201 2.201 0 0 1-.506-1.54v.165c-.033.559.148 1.11.506 1.54l.077-.077-.077-.088zm23.7-12.122l-5.497 3.113.1.099 5.397-3.058A1.925 1.925 0 0 0 36.275 22a2.046 2.046 0 0 1-1.1 1.43z" fill="#000" opacity=".12"/><path d="M13.751 8.382L35.176 20.57c.568.28.974.809 1.099 1.43a1.925 1.925 0 0 0-1.1-1.584L13.752 8.228c-1.538-.869-2.792-.143-2.792 1.617v.165c.033-1.771 1.265-2.497 2.792-1.628z" fill="#FFF" opacity=".25"/></g></svg>