<svg width="106" height="25" fill="none" xmlns="http://www.w3.org/2000/svg"><path fill-rule="evenodd" clip-rule="evenodd" d="M81.892 9.152c.866-.454 1.742-.782 2.738-.77 1.05.01 1.996.324 2.825.958 1.206.922 1.851 2.153 1.88 3.675.019.944.015 1.888.012 2.832l-.003 1.24v1.293c0 .076 0 .151-.005.226-.015.22-.082.285-.293.304h-.017l-.018.001-.407.001c-.325.001-.649.002-.974-.003-.253-.004-.319-.078-.334-.335a4.258 4.258 0 01-.005-.273V17.11c.001-1.203.001-2.406-.002-3.61 0-.252-.006-.508-.053-.755-.207-1.1-.825-1.876-1.914-2.182-1.653-.465-3.134.584-3.413 2.14a3.436 3.436 0 00-.036.603v.05a1646.86 1646.86 0 00-.002 4.97c.003.116 0 .23-.01.346-.016.157-.087.22-.245.237a1.245 1.245 0 01-.138.005h-1.311a.905.905 0 01-.138-.007c-.152-.02-.223-.09-.236-.247a3.52 3.52 0 01-.008-.306V3.57c0-.09 0-.18.005-.27.013-.192.084-.258.282-.277.04-.003.081-.003.121-.003h1.26c.058-.001.115.001.172.008.15.021.222.092.237.249 0 1.917.03 5.874.03 5.874zm-17.898 9.774c.641-.204 1.823-.8 1.823-.8s-.002.355.02.533c.02.158.087.226.24.245.069.007.138.01.207.008h1.156c.052 0 .104 0 .155-.005.178-.017.252-.083.267-.255.008-.092.008-.185.007-.277V3.543c0-.07 0-.14-.003-.211-.013-.223-.076-.303-.286-.307a47.544 47.544 0 00-1.031-.003h-.419a.394.394 0 00-.069.007c-.136.025-.207.09-.221.225a3.702 3.702 0 00-.013.38c0 1.669-.01 5.806-.01 5.806s-1.402-1.091-3.42-1.061a5.211 5.211 0 00-2.569.69c-2.278 1.31-3.16 3.76-2.588 6.045.52 2.083 2.525 4.04 5.085 4.025.567-.003 1.126-.038 1.67-.213zm-1.577-1.85c-1.954-.04-3.289-1.559-3.267-3.352-.001-1.87 1.588-3.289 3.325-3.27a3.33 3.33 0 013.295 3.417c-.032 1.736-1.502 3.245-3.353 3.205zm37.701-8.693c-1.097.099-2.836 1.045-2.836 1.045v-.644c-.018-.155-.09-.225-.24-.247a1.236 1.236 0 00-.173-.01h-1.207a1.252 1.252 0 00-.208.015c-.114.02-.188.092-.2.207a3.74 3.74 0 00-.014.378v14.69c0 .084 0 .168.005.252.016.215.084.295.297.299.484.01.967.01 1.45 0 .207-.004.278-.09.294-.305.008-.103.007-.205.007-.308v-.071c-.002-1.68-.002-3.36 0-5.038a3.719 3.719 0 01.02-.413c.013-.117.097-.157.197-.103.048.026.095.056.142.086.02.014.042.027.063.04 1.21.766 2.523 1.045 3.929.78 1.276-.24 2.349-.857 3.165-1.88.861-1.078 1.255-2.309 1.183-3.691-.083-1.557-.719-2.846-1.9-3.844-1.142-.965-2.478-1.373-3.974-1.238zm3.818 5.37c-.004 1.852-1.545 3.338-3.295 3.276l-.378-.014c-1.767-.167-2.949-1.73-2.941-3.273.008-1.8 1.446-3.31 3.308-3.313 1.957-.004 3.31 1.622 3.306 3.323zm-3.664 3.263c.121.011.244.016.369.013l-.369-.013zm-64.4-8.233c-.886.865-2.913 2.51-2.913 2.51a192.074 192.074 0 01-.018-5.231c.005-.792.01-1.584.01-2.375V3.61c0-.101 0-.202-.007-.303-.013-.195-.082-.26-.279-.279-.034-.003-.069-.003-.103-.003h-1.276a.92.92 0 00-.139.008c-.152.023-.224.091-.239.247-.012.135-.012.27-.011.405V18.25c0 .08 0 .162.002.243 0 .069.006.137.016.206a.232.232 0 00.204.204c.08.01.16.015.241.013h1.16c.05 0 .1 0 .15-.005.192-.018.26-.086.274-.285.015-1.28.015-3.789.015-3.789s2.466 2.547 3.643 3.82a.75.75 0 00.605.262c.485-.008.97-.007 1.456-.005h.58a.838.838 0 00.171-.006.396.396 0 00.098-.041c.016-.008.032-.017.049-.024a.696.696 0 00-.19-.265l-.05-.052c-1.66-1.762-5.07-5.472-5.07-5.472s3.187-2.865 4.772-4.303l.005-.005.01-.009c.045-.04.095-.083.054-.177a2.213 2.213 0 01-.06-.008 1.072 1.072 0 00-.162-.015 39.88 39.88 0 00-.57-.002h-.19l-.466.002c-.374.002-.747.004-1.12-.006a.822.822 0 00-.652.252zm34.951 6.933l.228-.001c.177-.001.354-.002.532.002.202.005.256.043.271.233.021.263.158.45.345.613.164.146.354.26.56.334.86.299 1.698.24 2.501-.191a1.5 1.5 0 00.398-.322c.207-.234.214-.5.04-.762a1.503 1.503 0 00-.604-.501 2.444 2.444 0 00-.69-.214l-.617-.103a99.344 99.344 0 01-1.015-.171 3.972 3.972 0 01-2.02-.982c-.445-.402-.78-.88-.914-1.472-.167-.739-.066-1.44.343-2.087a3.35 3.35 0 01.907-.935c.634-.451 1.343-.689 2.115-.769a5.388 5.388 0 012.247.22c.667.216 1.26.557 1.733 1.086.42.47.674 1.012.699 1.648.016.4-.043.46-.448.463-.276.002-.552.002-.828 0h-.414a3.26 3.26 0 01-.172-.005c-.104-.006-.174-.054-.195-.161a.181.181 0 00-.003-.015.146.146 0 01-.004-.019c-.052-.5-.388-.768-.807-.946a2.92 2.92 0 00-1.555-.207c-.391.053-.764.17-1.096.388a1.732 1.732 0 00-.32.26c-.256.277-.265.576-.032.872.22.28.512.463.85.559.22.061.445.1.67.138l.006.001c.187.032.375.062.562.091.245.038.488.076.73.12.859.157 1.613.518 2.245 1.131a2.768 2.768 0 01-.122 4.053 4.078 4.078 0 01-1.62.885 5.53 5.53 0 01-2.865.023c-.748-.193-1.413-.55-1.945-1.125-.332-.36-.598-.761-.697-1.249a2.884 2.884 0 01-.053-.581c0-.213.083-.292.294-.3.177-.006.353-.004.53-.003l.23.002v-.001zM48.297 8.87c-.202.088-.403.175-.606.248 0 0 .02-.278 0-.39a.215.215 0 00-.184-.182 1.214 1.214 0 00-.207-.012h-1.277a1.145 1.145 0 00-.207.013c-.1.02-.17.085-.183.184-.012.115-.018.23-.015.345v9.31c0 .096 0 .19.009.285.016.153.088.22.246.237.057.005.115.007.172.006h1.252c.031 0 .063 0 .095-.002.231-.016.296-.082.309-.322.004-.077.003-.154.003-.23v-.081c-.002-1.645-.001-3.29 0-4.935v-.072c0-.172 0-.345.028-.513.266-1.6 1.734-2.62 3.336-2.221 1.113.277 1.76 1.039 1.993 2.15.054.256.062.525.062.788.004 1.236.004 2.472.003 3.707v1.143c0 .109 0 .218.01.327.016.17.093.238.269.255.059.006.118.005.177.005h.444c.218 0 .437-.002.656.002.425.006.497-.048.497-.492-.004-1.772-.005-3.543-.002-5.315.001-.974-.263-1.87-.827-2.659-1.16-1.622-2.76-2.255-4.72-2.013-.461.057-.9.246-1.333.434zm-6.624 4.833V9.179c0-.078-.001-.155.001-.233.01-.351.058-.402.398-.41a2.88 2.88 0 01.161-.001h1.011a1.9 1.9 0 01.24.01c.136.018.212.085.227.22.014.136.02.274.017.412v9.156c0 .085.001.17-.005.254-.017.237-.086.306-.314.322a.883.883 0 01-.069.002h-1.275a.91.91 0 01-.138-.006c-.154-.02-.23-.087-.245-.24a3.46 3.46 0 01-.01-.339v-4.623zm51.67 4.602v-4.55l.001-4.551v-.077c0-.078.001-.156-.002-.233-.011-.286-.07-.346-.344-.359-.054-.002-.108-.002-.162-.002h-.906c-.642.001-.643.001-.643.66v9.079c0 .11 0 .221.008.332.016.214.09.286.296.305.035.003.069.003.104.003h1.275a.952.952 0 00.138-.008c.137-.02.21-.085.224-.22.01-.126.014-.253.012-.379zM42.676 5.366l.219-.001c.168-.001.335-.003.503.003.22.007.299.076.301.288.008.504.008 1.008 0 1.513-.003.195-.082.274-.276.276-.504.007-1.008.007-1.513 0-.207-.003-.282-.083-.286-.305a49.933 49.933 0 010-1.479c.004-.216.079-.287.295-.294.175-.006.35-.005.526-.003h.23v.002zm48.566.816l.002.22-.001.167c0 .185-.001.369.004.556.006.244.074.319.306.322.47.007.942.007 1.412 0 .233-.003.318-.081.323-.31.009-.483.009-.965 0-1.447-.005-.238-.084-.317-.313-.321a46.156 46.156 0 00-1.413-.002c-.237.004-.309.078-.317.311-.005.168-.004.336-.003.504zM11.88 1.412c-1.273 0-2.554.392-3.675.81-2.126.797-3.722 2.51-4.942 4.417-.915 1.429-1.806 2.873-1.806 4.626 0 5.32 4.925 10.093 10.423 10.093 1.982 0 4.686-.66 6.241-1.622.87-.538 1.334-1.37 1.828-2.255.154-.277.311-.56.485-.84 1.034-1.667 2.06-3.5 2.06-5.496 0-3.352-2.412-6.174-5.101-7.894-1.581-1.01-3.477-1.84-5.513-1.84zM0 11.265C0 8.738 1.116 6.7 2.566 4.806 4.726 1.985 6.932 0 10.866 0c1.289 0 3.15.013 4.563.42 1.353.391 2.34 1.115 3.267 1.792l.344.251c2.888 2.085 5.164 4.952 5.164 8.682 0 3.847-1.96 7.478-5.132 9.582-2.017 1.337-4.637 1.953-7.192 1.953C5.306 22.68 0 17.557 0 11.265zm11.965-6.918c-.817 0-2.352.487-3.072.757-1.366.513-2.067 1.693-2.718 2.89-.65 1.198-.905 2.213-.905 3.342 0 3.43 2.856 5.237 4.696 6.126 1.417.684 3.637.62 4.636 0 .149-.093.331-.198.532-.314.788-.455 1.854-1.071 2.227-1.675.665-1.074 1.42-2.927 1.42-4.214 0-2.16-1.089-4.324-2.816-5.433-1.016-.651-2.693-1.48-4-1.48zm-8.069 6.912c0-1.629.617-3.49 1.549-4.71 1.388-1.819 3.347-3.53 5.873-3.53.828 0 2.805.433 3.712.695.678.197 1.376.826 1.961 1.353.259.233.495.446.698.593 1.855 1.343 2.542 3.599 2.542 6.002 0 2.48-1.469 5.453-3.507 6.81-1.295.861-3.118 1.083-4.76 1.083-1.413 0-3.232-.466-4.444-1.25-1.9-2.03-3.624-4.349-3.624-7.046zm5.346-1.77c.511-.848.808-1.341 2.261-1.341.781 0 1.841.21 2.448.597 1.032.658 1.499 1.19 1.499 2.474 0 .764-.002 1.42-.398 2.06-.067.106-.127.214-.187.32-.19.34-.368.658-.701.864-.597.369-1.731.493-2.66.23-.163-.045-.322-.086-.474-.126-1.14-.298-1.997-.522-2.35-1.974-.237-.978-.059-2.119.293-2.666.099-.155.187-.3.27-.438zm-1.05-.744c-.557.725-.985 1.506-.985 2.474 0 2.41 1.964 5.084 4.696 4.75.261-.033.515-.057.76-.08.886-.084 1.656-.157 2.262-.558 1.218-.806 1.774-2.823 1.774-4.296 0-1.429-.665-2.6-1.774-3.4-.283-.203-.783-.322-1.258-.434a12.013 12.013 0 01-.537-.136c-2.378-.684-3.576-.095-4.938 1.68z" fill="#fff"/></svg>