<svg width="100" height="100" xmlns="http://www.w3.org/2000/svg"><path d="M67.47 32.88a4.5 4.5 0 1 1-2.696-7.873c.143-.01.289-.01.436 0 5.884.414 10.201 7.02 9.737 14.208-.479 7.413-5.576 14.07-14.947 18.372V88c0 4.826-4.165 9-9 9H16c-4.835 0-9-4.174-9-9 0-2.835 1.006-5.303 2.934-7.175l20-19 4.132 4.35L14.09 85.152C13.37 85.852 13 86.76 13 88c0 1.516 1.481 3 3 3h35c1.519 0 3-1.484 3-3V58.237a2.982 2.982 0 0 1-.334-.35c-9.795-4.291-15.123-11.085-15.613-18.672-.464-7.189 3.853-13.794 9.737-14.208.147-.01.293-.01.437.001a4.5 4.5 0 1 1-2.696 7.873c-.989 1.443-1.644 3.58-1.49 5.948.342 5.31 4.34 10.326 12.459 13.746 8.118-3.42 12.117-8.436 12.46-13.746.153-2.367-.502-4.505-1.49-5.948zM57 78c-21.041 0-38-16.623-38-37C19 19.79 35.79 3 57 3c20.377 0 37 16.959 37 38 0 20.21-16.79 37-37 37zm0-6c16.897 0 31-14.103 31-31C88 23.246 74.036 9 57 9 39.103 9 25 23.103 25 41c0 17.036 14.246 31 32 31z" fill="#007FFF"/></svg>